<svg width="1520" height="993" viewBox="0 0 1520 993" fill="none" xmlns="http://www.w3.org/2000/svg">
<path d="M0 -3.43323e-05V418.936H27.771V386.17M27.771 -3.43323e-05V386.17M27.771 386.17H49.9878V-3.43323e-05V461.064H64.799M64.799 461.064L66.6504 -3.43323e-05M64.799 461.064V503.192H85.1644V-3.43323e-05M151.815 -3.43323e-05V559.769L212.911 638.936M212.911 638.936V-3.43323e-05M212.911 638.936V724.362M212.911 856.596V724.362M244.385 -3.43323e-05V683.404L212.911 724.362M301.778 -3.43323e-05V456.383H327.698V-3.43323e-05M390.646 -3.43323e-05V599.149L468.404 697.447M468.404 697.447V945.532M468.404 697.447V-3.43323e-05M468.404 992.341V945.532M468.404 945.532L494.324 912.766V-3.43323e-05M570.231 -3.43323e-05V177.872L599.854 212.979M599.854 212.979V-3.43323e-05M599.854 212.979V320.638L622.071 348.723M622.071 348.723V417.766L659.099 372.128M622.071 348.723V-3.43323e-05M659.099 372.128V681.064L692.424 723.192M659.099 372.128V-3.43323e-05M692.424 723.192V746.596M692.424 723.192V315.957M692.424 -3.43323e-05V315.957M692.424 315.957L722.046 353.404V-3.43323e-05M751.669 -3.43323e-05V889.362H773.886V650.638M773.886 -3.43323e-05V650.638M773.886 650.638H788.697V477.447M788.697 -3.43323e-05V477.447M788.697 477.447H803.508V449.362M803.508 -3.43323e-05V449.362M803.508 449.362L868.307 365.106V-3.43323e-05M907.186 440V418.936M907.186 -3.43323e-05V418.936M907.186 418.936L953.471 360.426M953.471 360.426V369.787L1020.12 454.043M953.471 360.426V-3.43323e-05M1020.12 454.043V-3.43323e-05M1020.12 454.043V671.702M1020.12 696.277V671.702M1020.12 671.702L1075.66 599.149V-3.43323e-05M1160.83 -3.43323e-05V470.426L1207.11 528.936M1207.11 528.936V788.724L1247.84 837.872M1207.11 528.936V-3.43323e-05M1247.84 837.872V971.277M1247.84 837.872V802.766M1247.84 -3.43323e-05V205.957M1247.84 205.957L1281.17 163.83V-3.43323e-05M1247.84 205.957V802.766M1247.84 802.766L1345.97 676.383V437.66M1345.97 -3.43323e-05V437.66M1345.97 437.66L1407.06 514.894V-3.43323e-05M1455.2 -3.43323e-05V386.17H1481.12M1481.12 386.17V-3.43323e-05M1481.12 386.17V423.617M1481.12 477.447V423.617M1481.12 423.617L1501.49 397.872M1520 -3.43323e-05V374.468L1501.49 397.872M1501.49 -3.43323e-05V397.872" stroke="url(#paint0_linear_497_1133)" stroke-opacity="0.7" stroke-width="2"/>
<defs>
<linearGradient id="paint0_linear_497_1133" x1="760" y1="992.341" x2="760" y2="0" gradientUnits="userSpaceOnUse">
<stop offset="0.157525" stop-color="#FF1515"/>
<stop offset="1" stop-color="#171717"/>
</linearGradient>
</defs>
</svg>
