<svg width="568" height="163" viewBox="0 0 568 163" fill="none" xmlns="http://www.w3.org/2000/svg">
<path fill-rule="evenodd" clip-rule="evenodd" d="M107.214 75.6467H102.652V14.484L114.058 0.369537H177.929L189.335 14.484V75.6467H184.772L171.086 63.8846V45.0654H136.869V28.5985H171.086V14.484H120.901V63.8846L107.214 75.6467ZM0 0.36954V16.3374H70.7149V31.1647H0V61.9599L13.6868 75.6467H77.5583L91.245 61.9599V43.7109L82.1205 31.1647L91.245 20.8997V14.0563L77.5583 0.36954H0ZM19.3897 43.711V59.6789H70.715V43.711H19.3897ZM200.738 0.369537L212.144 14.484H232.674V59.1798L246.361 75.6467H253.204V14.484H271.453L282.859 0.369537H200.738ZM305.672 14.484L294.266 0.369537H376.387L364.981 14.484H346.732V75.6467H339.889L326.202 59.1798V14.484H305.672ZM387.791 0.369537H392.354L406.04 14.484V61.5322H456.225L469.912 75.6467H401.478L387.791 61.5322V0.369537ZM495.004 0.369537L481.317 14.484H552.032L565.719 0.369537H495.004ZM481.317 28.5985H538.345L524.659 42.7129H499.566V59.1798H554.313L568 75.6467H492.723L481.317 61.5322V28.5985ZM82.1206 101.167L70.715 87.0523H148.273L161.96 101.167V119.986L145.992 131.748H136.868L166.522 162.329H145.992L114.056 131.748H91.2451V162.329H82.1206L70.715 148.215V131.748L86.6829 117.634H141.43V101.167H82.1206ZM177.927 100.739L191.614 87.0523H257.767L271.454 100.739V148.643L257.767 162.329H191.614L177.927 148.643V100.739ZM195.001 101V146.623H249.748V101H195.001ZM296.546 87.0523L282.859 100.739V148.643L296.546 162.329H362.698L376.385 148.643V100.739L362.698 87.0523H296.546ZM301.107 146.362V100.739H355.854V146.362H301.107ZM399.197 162.329L387.792 150.567V87.0523H408.322L439.117 144.08H444.82L476.755 87.0523H497.286V150.567L485.88 162.329H479.037V119.986H476.755L449.382 162.329H433.414L408.322 117.634H406.041V162.329H399.197Z" fill="black"/>
</svg>
