<svg width="234" height="60" viewBox="0 0 234 60" fill="none" xmlns="http://www.w3.org/2000/svg">
<path d="M63.1223 37.4172L58.8923 29.2272H58.5923H53.7923V37.4172H51.1523V16.5372H58.2323C60.7323 16.5372 62.5923 17.0672 63.8123 18.1272C65.0323 19.1672 65.6423 20.6972 65.6423 22.7172C65.6423 24.2172 65.3123 25.4872 64.6523 26.5272C63.9923 27.5672 63.0223 28.3072 61.7423 28.7472L66.3023 37.4172H63.1223ZM58.2623 26.7372C59.8223 26.7372 60.9623 26.4372 61.6823 25.8372C62.4223 25.2172 62.7923 24.1772 62.7923 22.7172C62.7923 21.3772 62.4223 20.4372 61.6823 19.8972C60.9623 19.3372 59.8123 19.0572 58.2323 19.0572H53.7923V26.7372H58.2623ZM91.3777 37.7772C90.2177 37.7772 89.0077 37.6272 87.7477 37.3272C86.4877 37.0272 85.2977 36.6172 84.1777 36.0972V33.2472C85.4977 33.9672 86.7177 34.4972 87.8377 34.8372C88.9777 35.1772 90.0977 35.3472 91.1977 35.3472C92.5777 35.3472 93.6477 35.0372 94.4077 34.4172C95.1677 33.7972 95.5477 32.9472 95.5477 31.8672C95.5477 31.1272 95.3377 30.5072 94.9177 30.0072C94.4977 29.5072 93.9677 29.1072 93.3277 28.8072C92.6877 28.5072 91.8277 28.1772 90.7477 27.8172C89.4477 27.3772 88.3977 26.9572 87.5977 26.5572C86.8177 26.1572 86.1477 25.5872 85.5877 24.8472C85.0277 24.1072 84.7477 23.1472 84.7477 21.9672C84.7477 20.2072 85.3877 18.8072 86.6677 17.7672C87.9477 16.7072 89.6677 16.1772 91.8277 16.1772C93.9277 16.1772 95.8577 16.6272 97.6177 17.5272V20.2872C95.6377 19.1672 93.7077 18.6072 91.8277 18.6072C90.4477 18.6072 89.3677 18.8872 88.5877 19.4472C87.8077 19.9872 87.4177 20.7372 87.4177 21.6972C87.4177 22.3572 87.6177 22.9072 88.0177 23.3472C88.4177 23.7872 88.9077 24.1472 89.4877 24.4272C90.0677 24.6872 90.8877 25.0072 91.9477 25.3872C93.2677 25.8272 94.3477 26.2572 95.1877 26.6772C96.0277 27.0972 96.7377 27.7072 97.3177 28.5072C97.9177 29.3072 98.2177 30.3372 98.2177 31.5972C98.2177 32.8372 97.9377 33.9272 97.3777 34.8672C96.8177 35.7872 96.0177 36.5072 94.9777 37.0272C93.9377 37.5272 92.7377 37.7772 91.3777 37.7772ZM129.697 37.4172L125.467 29.2272H125.167H120.367V37.4172H117.727V16.5372H124.807C127.307 16.5372 129.167 17.0672 130.387 18.1272C131.607 19.1672 132.217 20.6972 132.217 22.7172C132.217 24.2172 131.887 25.4872 131.227 26.5272C130.567 27.5672 129.597 28.3072 128.317 28.7472L132.877 37.4172H129.697ZM124.837 26.7372C126.397 26.7372 127.537 26.4372 128.257 25.8372C128.997 25.2172 129.367 24.1772 129.367 22.7172C129.367 21.3772 128.997 20.4372 128.257 19.8972C127.537 19.3372 126.387 19.0572 124.807 19.0572H120.367V26.7372H124.837ZM151.196 16.5372L143.546 37.4172H140.246L132.596 16.5372H135.386L141.986 34.5072L148.556 16.5372H151.196ZM181.312 37.4172L177.082 29.2272H176.782H171.982V37.4172H169.342V16.5372H176.422C178.922 16.5372 180.782 17.0672 182.002 18.1272C183.222 19.1672 183.832 20.6972 183.832 22.7172C183.832 24.2172 183.502 25.4872 182.842 26.5272C182.182 27.5672 181.212 28.3072 179.932 28.7472L184.492 37.4172H181.312ZM176.452 26.7372C178.012 26.7372 179.152 26.4372 179.872 25.8372C180.612 25.2172 180.982 24.1772 180.982 22.7172C180.982 21.3772 180.612 20.4372 179.872 19.8972C179.152 19.3372 178.002 19.0572 176.422 19.0572H171.982V26.7372H176.452Z" fill="white"/>
<path fill-rule="evenodd" clip-rule="evenodd" d="M153 17.3589H167V20.3338H153V17.3589ZM153 35.0283H167V38.0033H153V35.0283ZM163.182 26.1936H153V29.9799H163.182V26.1936Z" fill="white"/>
<path fill-rule="evenodd" clip-rule="evenodd" d="M101 17.3589H115V20.3338H101V17.3589ZM101 35.0284H115V38.0033H101V35.0284ZM111.182 26.1936H101V29.9799H111.182V26.1936Z" fill="white"/>
<path fill-rule="evenodd" clip-rule="evenodd" d="M68 17.2688H82V20.2438H68V17.2688ZM68 34.9383H82V37.9132H68V34.9383ZM76.9091 26.1035H68V29.8898H76.9091V26.1035Z" fill="white"/>
<rect width="2.53486" height="5.7374" transform="matrix(0.710064 0.704137 -0.710064 0.704137 75.8926 8.43408)" fill="white"/>
<ellipse cx="121.432" cy="58.5437" rx="1.43216" ry="1.45631" fill="white"/>
<ellipse cx="132.889" cy="58.5437" rx="1.43216" ry="1.45631" fill="white"/>
<ellipse cx="144.346" cy="58.5437" rx="1.43216" ry="1.45631" fill="white"/>
<ellipse cx="155.804" cy="58.5437" rx="1.43216" ry="1.45631" fill="white"/>
<ellipse cx="232.568" cy="37.5728" rx="1.43216" ry="1.45631" fill="white"/>
<ellipse cx="232.568" cy="25.9224" rx="1.43216" ry="1.45631" fill="white"/>
<ellipse cx="232.568" cy="14.2717" rx="1.43216" ry="1.45631" fill="white"/>
<ellipse cx="227.985" cy="3.78639" rx="1.43216" ry="1.45631" fill="white"/>
<ellipse cx="216.528" cy="1.45631" rx="1.43216" ry="1.45631" fill="white"/>
<ellipse cx="205.071" cy="1.45631" rx="1.43216" ry="1.45631" fill="white"/>
<ellipse cx="193.613" cy="1.45631" rx="1.43216" ry="1.45631" fill="white"/>
<ellipse cx="182.156" cy="1.45631" rx="1.43216" ry="1.45631" fill="white"/>
<ellipse cx="167.261" cy="58.5437" rx="1.43216" ry="1.45631" fill="white"/>
<ellipse cx="178.718" cy="58.5437" rx="1.43216" ry="1.45631" fill="white"/>
<ellipse cx="190.176" cy="58.5437" rx="1.43216" ry="1.45631" fill="white"/>
<ellipse cx="201.633" cy="58.5437" rx="1.43216" ry="1.45631" fill="white"/>
<ellipse cx="213.09" cy="58.5437" rx="1.43216" ry="1.45631" fill="white"/>
<ellipse cx="224.547" cy="57.9612" rx="1.43216" ry="1.45631" fill="white"/>
<ellipse cx="232.568" cy="49.2234" rx="1.43216" ry="1.45631" fill="white"/>
<path d="M171 0.500732H114.333H11C5.47715 0.500732 1 4.97789 1 10.5007V48.0166C1 53.5395 5.47716 58.0166 11 58.0166H114.333" stroke="white" stroke-linejoin="round"/>
</svg>
