<svg width="202" height="52" viewBox="0 0 202 52" fill="none" xmlns="http://www.w3.org/2000/svg">
<path d="M46.3779 30.4H38.0029L36.2279 35H34.0279L40.7279 17.6H43.7779L50.4779 35H48.1529L46.3779 30.4ZM45.6529 28.525L42.2029 19.525L38.7279 28.525H45.6529ZM53.7588 17.6H55.9588V32.9H63.8088V35H53.7588V17.6ZM92.752 30.4H84.377L82.602 35H80.402L87.102 17.6H90.152L96.852 35H94.527L92.752 30.4ZM92.027 28.525L88.577 19.525L85.102 28.525H92.027ZM102.907 19.8H97.6568V17.6H110.357V19.8H105.107V35H102.907V19.8ZM120.622 35.3C118.939 35.3 117.497 34.925 116.297 34.175C115.114 33.425 114.205 32.375 113.572 31.025C112.955 29.675 112.647 28.1 112.647 26.3C112.647 24.5 112.955 22.925 113.572 21.575C114.205 20.225 115.114 19.175 116.297 18.425C117.497 17.675 118.939 17.3 120.622 17.3C122.305 17.3 123.739 17.675 124.922 18.425C126.122 19.175 127.03 20.225 127.647 21.575C128.28 22.925 128.597 24.5 128.597 26.3C128.597 28.1 128.28 29.675 127.647 31.025C127.03 32.375 126.122 33.425 124.922 34.175C123.739 34.925 122.305 35.3 120.622 35.3ZM120.622 33.3C122.489 33.3 123.889 32.675 124.822 31.425C125.755 30.1583 126.222 28.45 126.222 26.3C126.222 24.15 125.755 22.45 124.822 21.2C123.889 19.9333 122.489 19.3 120.622 19.3C118.755 19.3 117.355 19.9333 116.422 21.2C115.489 22.45 115.022 24.15 115.022 26.3C115.022 28.45 115.489 30.1583 116.422 31.425C117.355 32.675 118.755 33.3 120.622 33.3ZM133.143 17.6H135.343V35H133.143V17.6ZM150.476 35L146.951 28.175H146.701H142.701V35H140.501V17.6H146.401C148.484 17.6 150.034 18.0417 151.051 18.925C152.068 19.7917 152.576 21.0667 152.576 22.75C152.576 24 152.301 25.0583 151.751 25.925C151.201 26.7917 150.393 27.4083 149.326 27.775L153.126 35H150.476ZM146.426 26.1C147.726 26.1 148.676 25.85 149.276 25.35C149.893 24.8333 150.201 23.9667 150.201 22.75C150.201 21.6333 149.893 20.85 149.276 20.4C148.676 19.9333 147.718 19.7 146.401 19.7H142.701V26.1H146.426Z" fill="white"/>
<path fill-rule="evenodd" clip-rule="evenodd" d="M67 18H78V21H67V18ZM67 32H78V35H67V32ZM74 25H67V28H74V25Z" fill="white"/>
<rect x="73.2012" y="11" width="2" height="4.52681" transform="rotate(45 73.2012 11)" fill="white"/>
<path fill-rule="evenodd" clip-rule="evenodd" d="M156 18H167V21H156V18ZM156 32H167V35H156V32ZM164 25H156V28H164V25Z" fill="white"/>
<path d="M151 1H101H11C5.47715 1 1 5.47715 1 11V41C1 46.5228 5.47716 51 11 51H101" stroke="white" stroke-linejoin="round"/>
<circle cx="103.25" cy="50.25" r="1.25" fill="white"/>
<circle cx="113.25" cy="50.25" r="1.25" fill="white"/>
<circle cx="123.25" cy="50.25" r="1.25" fill="white"/>
<circle cx="133.25" cy="50.25" r="1.25" fill="white"/>
<circle cx="200.25" cy="32.25" r="1.25" fill="white"/>
<circle cx="200.25" cy="22.25" r="1.25" fill="white"/>
<circle cx="200.25" cy="12.25" r="1.25" fill="white"/>
<circle cx="196.25" cy="3.25" r="1.25" fill="white"/>
<circle cx="186.25" cy="1.25" r="1.25" fill="white"/>
<circle cx="176.25" cy="1.25" r="1.25" fill="white"/>
<circle cx="166.25" cy="1.25" r="1.25" fill="white"/>
<circle cx="156.25" cy="1.25" r="1.25" fill="white"/>
<circle cx="143.25" cy="50.25" r="1.25" fill="white"/>
<circle cx="153.25" cy="50.25" r="1.25" fill="white"/>
<circle cx="163.25" cy="50.25" r="1.25" fill="white"/>
<circle cx="173.25" cy="50.25" r="1.25" fill="white"/>
<circle cx="183.25" cy="50.25" r="1.25" fill="white"/>
<circle cx="193.25" cy="49.75" r="1.25" fill="white"/>
<circle cx="200.25" cy="42.25" r="1.25" fill="white"/>
</svg>
