<svg width="201" height="52" viewBox="0 0 201 52" fill="none" xmlns="http://www.w3.org/2000/svg">
<path d="M150.232 1H100.503H11.0459C5.52305 1 1.0459 5.47715 1.0459 11V41C1.0459 46.5228 5.52306 51 11.0459 51H100.503" stroke="#646363" stroke-linejoin="round"/>
<path d="M55.6053 35L52.0803 28.175H51.8303H47.8303V35H45.6303V17.6H51.5303C53.6136 17.6 55.1636 18.0417 56.1803 18.925C57.197 19.7917 57.7053 21.0667 57.7053 22.75C57.7053 24 57.4303 25.0583 56.8803 25.925C56.3303 26.7917 55.522 27.4083 54.4553 27.775L58.2553 35H55.6053ZM51.5553 26.1C52.8553 26.1 53.8053 25.85 54.4053 25.35C55.022 24.8333 55.3303 23.9667 55.3303 22.75C55.3303 21.6333 55.022 20.85 54.4053 20.4C53.8053 19.9333 52.847 19.7 51.5303 19.7H47.8303V26.1H51.5553ZM79.1514 35.3C78.1847 35.3 77.1764 35.175 76.1264 34.925C75.0764 34.675 74.0847 34.3333 73.1514 33.9V31.525C74.2514 32.125 75.268 32.5667 76.2014 32.85C77.1514 33.1333 78.0847 33.275 79.0014 33.275C80.1514 33.275 81.043 33.0167 81.6764 32.5C82.3097 31.9833 82.6264 31.275 82.6264 30.375C82.6264 29.7583 82.4514 29.2417 82.1014 28.825C81.7514 28.4083 81.3097 28.075 80.7764 27.825C80.243 27.575 79.5264 27.3 78.6264 27C77.543 26.6333 76.668 26.2833 76.0014 25.95C75.3514 25.6167 74.793 25.1417 74.3264 24.525C73.8597 23.9083 73.6264 23.1083 73.6264 22.125C73.6264 20.6583 74.1597 19.4917 75.2264 18.625C76.293 17.7417 77.7264 17.3 79.5264 17.3C81.2764 17.3 82.8847 17.675 84.3514 18.425V20.725C82.7014 19.7917 81.093 19.325 79.5264 19.325C78.3764 19.325 77.4764 19.5583 76.8264 20.025C76.1764 20.475 75.8514 21.1 75.8514 21.9C75.8514 22.45 76.018 22.9083 76.3514 23.275C76.6847 23.6417 77.093 23.9417 77.5764 24.175C78.0597 24.3917 78.743 24.6583 79.6264 24.975C80.7264 25.3417 81.6264 25.7 82.3264 26.05C83.0264 26.4 83.618 26.9083 84.1014 27.575C84.6014 28.2417 84.8514 29.1 84.8514 30.15C84.8514 31.1833 84.618 32.0917 84.1514 32.875C83.6847 33.6417 83.018 34.2417 82.1514 34.675C81.2847 35.0917 80.2847 35.3 79.1514 35.3ZM111.084 35L107.559 28.175H107.309H103.309V35H101.109V17.6H107.009C109.092 17.6 110.642 18.0417 111.659 18.925C112.675 19.7917 113.184 21.0667 113.184 22.75C113.184 24 112.909 25.0583 112.359 25.925C111.809 26.7917 111 27.4083 109.934 27.775L113.734 35H111.084ZM107.034 26.1C108.334 26.1 109.284 25.85 109.884 25.35C110.5 24.8333 110.809 23.9667 110.809 22.75C110.809 21.6333 110.5 20.85 109.884 20.4C109.284 19.9333 108.325 19.7 107.009 19.7H103.309V26.1H107.034ZM129 17.6L122.625 35H119.875L113.5 17.6H115.825L121.325 32.575L126.8 17.6H129ZM154.096 35L150.571 28.175H150.321H146.321V35H144.121V17.6H150.021C152.105 17.6 153.655 18.0417 154.671 18.925C155.688 19.7917 156.196 21.0667 156.196 22.75C156.196 24 155.921 25.0583 155.371 25.925C154.821 26.7917 154.013 27.4083 152.946 27.775L156.746 35H154.096ZM150.046 26.1C151.346 26.1 152.296 25.85 152.896 25.35C153.513 24.8333 153.821 23.9667 153.821 22.75C153.821 21.6333 153.513 20.85 152.896 20.4C152.296 19.9333 151.338 19.7 150.021 19.7H146.321V26.1H150.046Z" fill="#3B4040"/>
<path fill-rule="evenodd" clip-rule="evenodd" d="M130.34 18H141.281V21H130.34V18ZM130.34 32H141.281V35H130.34V32ZM138.297 25H130.34V28H138.297V25Z" fill="#3B4040"/>
<path fill-rule="evenodd" clip-rule="evenodd" d="M87.5737 18H98.514V21H87.5737V18ZM87.5737 32H98.514V35H87.5737V32ZM95.5303 25H87.5737V28H95.5303V25Z" fill="#3B4040"/>
<path fill-rule="evenodd" clip-rule="evenodd" d="M60.7202 18H71.6605V21H60.7202V18ZM60.7202 32H71.6605V35H60.7202V32ZM67.6822 25H60.7202V28H67.6822V25Z" fill="#3B4040"/>
<rect width="1.99458" height="4.51454" transform="matrix(0.70518 0.709028 -0.70518 0.709028 66.8877 11)" fill="#3B4040"/>
<ellipse cx="102.741" cy="50.25" rx="1.24321" ry="1.25" fill="#646363"/>
<ellipse cx="112.687" cy="50.25" rx="1.24322" ry="1.25" fill="#646363"/>
<ellipse cx="122.633" cy="50.25" rx="1.24321" ry="1.25" fill="#646363"/>
<ellipse cx="132.579" cy="50.25" rx="1.24323" ry="1.25" fill="#646363"/>
<ellipse cx="199.215" cy="32.25" rx="1.24322" ry="1.25" fill="#646363"/>
<ellipse cx="199.215" cy="22.25" rx="1.24322" ry="1.25" fill="#646363"/>
<ellipse cx="199.215" cy="12.25" rx="1.24322" ry="1.25" fill="#646363"/>
<ellipse cx="195.236" cy="3.25" rx="1.24322" ry="1.25" fill="#646363"/>
<ellipse cx="185.291" cy="1.25" rx="1.24322" ry="1.25" fill="#646363"/>
<ellipse cx="175.345" cy="1.25" rx="1.24321" ry="1.25" fill="#646363"/>
<ellipse cx="165.399" cy="1.25" rx="1.24322" ry="1.25" fill="#646363"/>
<ellipse cx="155.454" cy="1.25" rx="1.24322" ry="1.25" fill="#646363"/>
<ellipse cx="142.524" cy="50.25" rx="1.24322" ry="1.25" fill="#646363"/>
<ellipse cx="152.47" cy="50.25" rx="1.24322" ry="1.25" fill="#646363"/>
<ellipse cx="162.416" cy="50.25" rx="1.24322" ry="1.25" fill="#646363"/>
<ellipse cx="172.361" cy="50.25" rx="1.24321" ry="1.25" fill="#646363"/>
<ellipse cx="182.307" cy="50.25" rx="1.24322" ry="1.25" fill="#646363"/>
<ellipse cx="192.253" cy="49.75" rx="1.24322" ry="1.25" fill="#646363"/>
<ellipse cx="199.215" cy="42.25" rx="1.24322" ry="1.25" fill="#646363"/>
</svg>
