<svg width="1520" height="653" viewBox="0 0 1520 653" fill="none" xmlns="http://www.w3.org/2000/svg">
<path fill-rule="evenodd" clip-rule="evenodd" d="M-138.651 614.338C-142.179 612.384 -146.981 613.951 -149.568 617.981C-152.246 622.153 -151.535 627.385 -147.979 629.667C-144.424 631.949 -139.371 630.417 -136.693 626.245C-134.354 622.602 -134.6 618.151 -137.067 615.561L-38.7434 481.921L41.8881 438.52L121.201 395.829L155.056 636.333C153.395 637.069 151.866 638.35 150.749 640.089C148.071 644.261 148.782 649.493 152.338 651.775C155.893 654.058 160.946 652.525 163.624 648.353C165.243 645.831 165.624 642.921 164.885 640.51L433.059 368.972C436.156 370.433 440.098 369.337 442.689 366.348L723.061 521.712C720.725 525.799 721.512 530.731 724.935 532.928C728.49 535.21 733.543 533.678 736.221 529.506C738.744 525.577 738.259 520.707 735.224 518.247L783.779 451.881L839.449 513.258C839.196 513.568 838.957 513.897 838.734 514.244C836.056 518.416 836.767 523.648 840.323 525.93C843.878 528.212 848.931 526.68 851.609 522.508C854.287 518.336 853.576 513.104 850.021 510.822C849.708 510.621 849.384 510.45 849.051 510.308L895.138 332.736L962.339 295.21L983.893 293.164C983.691 295.996 984.802 298.671 987.081 300.134C990.636 302.416 995.689 300.884 998.367 296.712C999.129 295.525 999.617 294.252 999.843 292.986L1185.79 306.153C1185.1 309.44 1186.17 312.733 1188.8 314.418C1192.35 316.7 1197.41 315.168 1200.08 310.996C1202.27 307.596 1202.2 303.493 1200.17 300.855L1277.21 229.39L1340.32 308.355C1339.71 308.929 1339.15 309.597 1338.66 310.351C1335.99 314.523 1336.7 319.755 1340.25 322.037C1343.81 324.319 1348.86 322.787 1351.54 318.615C1353.98 314.807 1353.6 310.117 1350.82 307.592L1377.71 256.604L1481.5 323.223C1479.93 327.029 1480.88 331.238 1483.96 333.22C1487.52 335.502 1492.57 333.97 1495.25 329.798C1497.93 325.626 1497.22 320.394 1493.66 318.112C1493.03 317.704 1492.34 317.418 1491.64 317.247L1502.08 27.351L1541.45 188.581L1543.39 188.106L1503.97 26.6753C1505.81 25.9817 1507.53 24.6288 1508.75 22.7277C1509.53 21.5024 1510.03 20.1856 1510.24 18.8789L1575.42 2.33945L1574.93 0.400829L1510.35 16.7881C1510.2 14.4267 1509.11 12.2916 1507.16 11.0415C1503.6 8.75932 1498.55 10.2913 1495.87 14.4633C1494.29 16.9295 1493.89 19.7662 1494.56 22.145L1223.79 147.645C1223.42 145.693 1222.38 143.977 1220.72 142.907C1217.16 140.625 1212.11 142.157 1209.43 146.329C1207.75 148.955 1207.4 152.002 1208.27 154.468L913.573 277.45C913.295 275.316 912.226 273.418 910.435 272.268C906.88 269.986 901.827 271.518 899.149 275.69C898.821 276.2 898.544 276.726 898.317 277.261L811.115 251.13C811.501 250.705 811.86 250.239 812.184 249.734C814.862 245.562 814.151 240.33 810.596 238.048C807.04 235.766 801.987 237.298 799.309 241.47C797.682 244.004 797.306 246.93 798.059 249.348L787.13 252.753L622.542 215.452C623.256 212.151 622.183 208.837 619.547 207.145C615.992 204.863 610.939 206.395 608.261 210.567C606.392 213.478 606.173 216.905 607.42 219.486L558.253 260.627L421.1 184.768C422.938 180.845 422.049 176.37 418.834 174.307C415.279 172.025 410.226 173.557 407.548 177.729C406.507 179.35 405.978 181.132 405.929 182.838L353.061 189.392L280.643 43.5804C281.189 43.0453 281.69 42.4349 282.127 41.7542C284.805 37.5821 284.094 32.35 280.538 30.0678C276.983 27.7857 271.93 29.3177 269.252 33.4897C267.525 36.1798 267.207 39.3107 268.153 41.8072L114.752 119.68L111.869 113.429C112.704 112.758 113.459 111.928 114.084 110.954C116.762 106.781 116.051 101.549 112.496 99.2672C108.941 96.985 103.888 98.5171 101.21 102.689C99.1447 105.906 99.0947 109.753 100.81 112.392L25.4751 163.638C24.9583 162.814 24.2727 162.103 23.4258 161.559C20.6691 159.789 17.0119 160.313 14.2596 162.582L-54.2157 63.769C-53.5524 63.1703 -52.9496 62.4655 -52.4346 61.6631C-49.7565 57.4911 -50.4677 52.259 -54.023 49.9768C-57.5782 47.6946 -62.6314 49.2267 -65.3094 53.3987C-67.9874 57.5706 -67.2763 62.8028 -63.721 65.085C-61.4124 66.5668 -58.4722 66.4405 -55.9608 65.0274L-5.8795 147.448L-89.5035 73.8797C-89.1609 73.4898 -88.8414 73.0671 -88.55 72.6132C-85.872 68.4412 -86.5831 63.209 -90.1384 60.9269C-93.6937 58.6447 -98.7468 60.1767 -101.425 64.3487C-104.103 68.5207 -103.392 73.7529 -99.8364 76.035C-97.1795 77.7405 -93.6861 77.3159 -90.9725 75.2511L-2.4016 153.171L13.2235 178.885L-132.251 525.44L-132.81 526.341C-136.354 524.224 -141.283 525.774 -143.915 529.875C-146.593 534.047 -145.882 539.279 -142.327 541.562L-142.269 541.598L-164.056 576.74C-167.547 575.065 -172.127 576.658 -174.631 580.559C-177.309 584.731 -176.598 589.963 -173.043 592.245C-169.488 594.527 -164.435 592.995 -161.757 588.823C-159.838 585.835 -159.659 582.304 -161.018 579.701L-104.52 517.326L-42.8544 484.134L-138.651 614.338ZM847.115 509.805L892.721 334.086L869.504 347.05C871.129 349.684 871.046 353.454 869.017 356.614C866.339 360.786 861.285 362.318 857.73 360.036C855.995 358.923 854.938 357.106 854.621 355.054L784.984 450.233L840.862 511.839C842.72 510.31 844.989 509.576 847.115 509.805ZM999.983 290.991L1186.42 304.192C1186.64 303.696 1186.9 303.207 1187.21 302.731C1188.78 300.287 1191.16 298.748 1193.58 298.353L1198.83 263.603L1020.29 274.917L999.276 287.938C999.702 288.871 999.94 289.91 999.983 290.991ZM998.197 286.253L1016.06 275.185L995.914 276.462L974.701 288.307L984.871 289.557C985.053 289.181 985.26 288.81 985.492 288.448C988.17 284.276 993.223 282.744 996.779 285.026C997.318 285.372 997.791 285.786 998.197 286.253ZM800.898 253.156C800.266 252.751 799.724 252.252 799.275 251.683L794.313 254.381L879.18 273.614L809.329 252.683C806.684 254.475 803.415 254.772 800.898 253.156ZM897.607 279.841L791.651 255.828L675.562 318.95C675.687 319.206 675.798 319.47 675.895 319.741L897.553 281.755C897.504 281.129 897.522 280.488 897.607 279.841ZM897.946 283.716L693.912 318.683L892.548 299.827L901.388 287.744C901.166 287.635 900.949 287.512 900.737 287.376C899.386 286.509 898.446 285.216 897.946 283.716ZM903.981 288.421L896.926 299.411L901.842 298.944L904.57 288.432C904.373 288.436 904.176 288.433 903.981 288.421ZM906.728 288.08L903.96 298.743L961.732 293.259L968.381 289.546L912.711 282.707C912.513 283.13 912.284 283.547 912.023 283.954C910.688 286.034 908.763 287.457 906.728 288.08ZM913.581 279.675L995.335 274.494L1200.87 159.72L913.588 279.611L913.581 279.675ZM1198.5 299.309C1198.58 299.361 1198.65 299.413 1198.73 299.467L1275.96 227.823L1270.35 220.801L1228.98 256.505C1229.94 259.005 1229.62 262.146 1227.89 264.844C1225.21 269.016 1220.16 270.548 1216.6 268.266C1214.7 267.044 1213.61 264.976 1213.42 262.678L1200.87 263.473L1195.62 298.295C1196.63 298.408 1197.61 298.74 1198.5 299.309ZM1210.09 157.297L1023.89 272.685L1199.13 261.579L1214.6 159.073C1213.34 159.056 1212.11 158.715 1211.02 158.016C1210.69 157.801 1210.38 157.56 1210.09 157.297ZM1217.99 158.355L1222.65 252.1C1223.93 252.104 1225.19 252.445 1226.3 253.158C1226.97 253.584 1227.53 254.112 1227.99 254.717L1269.1 219.238L1219.67 157.392C1219.13 157.777 1218.57 158.099 1217.99 158.355ZM1222.36 154.507L1292.17 199.32L1495.28 24.0188L1223.91 149.79C1223.81 151.372 1223.3 153.006 1222.36 154.507ZM1349.14 306.485L1376.02 255.52L1300.97 207.346L1278.68 228.026L1341.92 307.145C1344.2 305.756 1346.89 305.452 1349.14 306.485ZM1482.43 321.448C1484.2 318.756 1486.96 317.186 1489.64 317.062L1500.09 27.1305C1499.69 27.0713 1499.3 26.9778 1498.91 26.8485L1378.65 254.829L1482.43 321.448ZM1496.81 25.6731L1302.49 205.941L1376.96 253.745L1497.14 25.9287C1497.03 25.8467 1496.92 25.7614 1496.81 25.6731ZM608.544 221.154L560.129 261.665L631.616 301.204L652.829 294.595L617.338 222.342C614.888 223.616 612.075 223.682 609.849 222.253C609.36 221.939 608.924 221.569 608.544 221.154ZM619.019 221.227L654.762 293.993L783.32 253.94L621.923 217.363C621.704 217.862 621.442 218.354 621.135 218.832C620.535 219.767 619.814 220.57 619.019 221.227ZM420.083 186.491C419.247 187.644 418.223 188.569 417.106 189.236L437.687 352.418C439.201 352.288 440.705 352.612 442.007 353.448C443.002 354.087 443.774 354.956 444.311 355.968L556.608 262.003L420.083 186.491ZM409.136 189.415C409.027 189.345 408.92 189.272 408.816 189.196L368.97 221.426L434.5 353.369C434.9 353.16 435.309 352.983 435.724 352.84L415.199 190.096C413.13 190.749 410.94 190.573 409.136 189.415ZM407.389 187.778C407.103 187.393 406.858 186.977 406.655 186.538L359.286 201.926L368.059 219.591L407.389 187.778ZM443.856 364.708L724.22 520.067C724.945 519.223 725.778 518.527 726.669 517.996L669.477 332.024C667.42 332.662 665.246 332.481 663.454 331.33C661.208 329.888 660.097 327.269 660.258 324.484L444.844 362.389C444.618 363.177 444.29 363.957 443.856 364.708ZM728.504 517.16L671.32 331.212C671.952 330.845 672.556 330.397 673.114 329.871L782.407 450.369L733.487 517.233C731.922 516.617 730.172 516.619 728.504 517.16ZM783.613 448.721L674.438 328.354C674.542 328.209 674.643 328.06 674.74 327.908C675.46 326.786 675.936 325.587 676.176 324.39L855.783 348.951C855.342 349.748 855.019 350.576 854.81 351.408L783.613 448.721ZM676.362 322.397L857.073 347.109C857.764 346.318 858.55 345.66 859.389 345.149L890.969 301.986L676.361 322.358L676.362 322.397ZM862.754 343.937C863.793 343.799 864.833 343.873 865.814 344.177L888.962 308.115L862.754 343.937ZM867.907 345.266C868.002 345.34 868.096 345.417 868.187 345.495L893.417 331.407L901.307 301.004L895.553 301.55L867.624 345.059C867.721 345.126 867.815 345.195 867.907 345.266ZM788.696 255.159L674.428 317.29C674.055 316.887 673.629 316.528 673.152 316.222C670.92 314.789 668.097 314.86 665.643 316.143L655.654 295.81L787.212 254.822L788.696 255.159ZM653.722 296.412L663.964 317.263C663.542 317.613 663.142 318.004 662.769 318.435L634.039 302.544L653.722 296.412ZM631.395 303.368L661.603 320.075C661.17 320.825 660.842 321.605 660.617 322.391L453.175 358.893L631.395 303.368ZM445.205 359.281L628.973 302.027L558.485 263.041L445.033 357.972C445.123 358.397 445.181 358.835 445.205 359.281ZM432.823 354.487L367.377 222.714L335.525 248.479L432.338 354.916C432.411 354.847 432.485 354.779 432.56 354.713C432.647 354.636 432.734 354.561 432.823 354.487ZM431.016 356.435L333.967 249.739L251.127 316.745L429.499 359.527C429.768 358.62 430.174 357.723 430.721 356.87C430.743 356.837 430.764 356.803 430.786 356.77L430.823 356.714C430.886 356.62 430.95 356.527 431.016 356.435ZM429.117 362.816L223.595 344.861C223.336 345.583 222.988 346.295 222.55 346.978C220.985 349.416 218.609 350.953 216.195 351.353L160.593 635.972C161.093 636.142 161.577 636.373 162.036 636.667C162.826 637.174 163.476 637.827 163.979 638.582L431.375 367.831C430.013 366.562 429.243 364.766 429.117 362.816ZM156.992 635.734C157.537 635.635 158.084 635.594 158.625 635.614L214.145 351.414C213.131 351.302 212.15 350.97 211.263 350.4C210.451 349.878 209.787 349.203 209.278 348.421L123.079 394.819L156.992 635.734ZM106.381 290.549L112.222 332.039L74.2595 328.329L102.916 289.38C102.976 289.422 103.037 289.462 103.099 289.502C104.102 290.146 105.226 290.486 106.381 290.549ZM100.87 287.121C100.887 287.152 100.905 287.183 100.923 287.213L62.3672 327.167L35.899 324.58C36.0257 323.724 36.0326 322.873 35.9237 322.058L100.87 287.121ZM21.5029 320.325C22.8798 318.18 24.8846 316.732 26.9909 316.143L24.6635 281.758L-80.6992 475.42L60.5952 329.003L35.3979 326.541C35.1415 327.24 34.8022 327.928 34.3777 328.589C31.6996 332.761 26.6466 334.293 23.0913 332.011C19.536 329.729 18.8248 324.497 21.5029 320.325ZM28.9753 315.846C29.1806 315.842 29.3853 315.847 29.5889 315.86L45.6229 244.699C45.3577 244.71 45.0932 244.707 44.8305 244.69L26.4462 278.481L28.9753 315.846ZM32.7893 316.903C33.9899 317.674 34.8662 318.781 35.3971 320.07L100.134 285.245C99.6973 283.483 99.8355 281.491 100.593 279.594L52.9461 240.185L52.9203 240.226C51.6152 242.259 49.746 243.665 47.761 244.308L31.5449 316.278C31.9748 316.44 32.3914 316.647 32.7893 316.903ZM40.0455 231.961C40.9604 230.536 42.1526 229.419 43.4675 228.656L20.5176 190.889L25.8964 270.358L42.2421 243.994C42.0351 243.89 41.8321 243.775 41.6339 243.647C38.0786 241.365 37.3674 236.133 40.0455 231.961ZM45.314 227.844C47.2327 227.25 49.2515 227.369 50.9681 228.322L55.2681 219.176L21.8921 176.368C21.1632 176.828 20.3917 177.176 19.605 177.405L20.2243 186.554L45.314 227.844ZM52.5852 229.583C52.7909 229.803 52.9807 230.035 53.1546 230.28L59.5934 224.723L56.6468 220.944L52.5852 229.583ZM54.0931 232.111C54.1105 232.161 54.1274 232.212 54.1437 232.262L62.8603 228.913L61.4251 227.072L60.8247 226.302L54.0931 232.111ZM54.5228 234.259C54.6122 235.591 54.4009 236.997 53.873 238.356L99.9146 276.438L64.1457 230.562L54.5228 234.259ZM105.441 274.236C104.37 274.771 103.365 275.535 102.503 276.505L66.0972 229.812L76.9648 225.636L80.0321 225.256L105.763 247.713L105.441 274.236ZM111.58 273.78C110.277 273.283 108.849 273.212 107.45 273.521L107.742 249.441L120.681 260.734L111.58 273.78ZM113.844 275.227C113.681 275.067 113.508 274.915 113.326 274.772L122.197 262.057L125.618 265.043L113.844 275.227ZM115.821 278.913C115.664 278.173 115.407 277.47 115.053 276.826L127.14 266.371L134.542 272.831L115.821 278.913ZM115.35 284.179C115.76 283.113 115.975 282.02 116.004 280.956L136.298 274.364L159.744 294.827L115.35 284.179ZM114.28 286.239C114.316 286.187 114.351 286.134 114.385 286.08L114.398 286.06L114.426 286.015L162.994 297.663L209.225 338.014L114.28 286.239ZM112.993 287.815C111.658 289.155 110.036 290.039 108.378 290.389L114.269 332.239L208.432 341.441C208.56 340.998 208.72 340.557 208.914 340.122L112.993 287.815ZM114.556 334.277L208.077 343.416C207.996 344.524 208.116 345.609 208.429 346.606L122.781 392.707L114.556 334.277ZM424.634 360.417L224.082 342.896C224.276 341.505 224.155 340.132 223.735 338.901L249.166 318.331L424.634 360.417ZM246.713 317.743L222.814 337.074C222.324 336.375 221.705 335.769 220.961 335.292C220.466 334.974 219.942 334.73 219.399 334.557L223.576 312.194L246.713 317.743ZM221.629 311.727L217.425 334.235C216.288 334.213 215.126 334.457 214.021 334.94L201.039 306.789L221.629 311.727ZM198.563 306.195L212.28 335.94C211.858 336.246 211.454 336.59 211.073 336.972L167.188 298.669L198.563 306.195ZM163.938 295.833L138.514 273.644L177.684 260.919L197.496 303.882L163.938 295.833ZM136.758 272.111L176.84 259.091L165.068 233.563L128.668 265.05L136.758 272.111ZM199.973 304.476L179.599 260.297L234.569 242.44L221.996 309.758L199.973 304.476ZM178.756 258.468L234.987 240.202L241.517 205.236L190.505 211.56L166.643 232.202L178.756 258.468ZM223.944 310.225L236.735 241.737L306.172 219.18L332.619 248.257L248.674 316.157L223.944 310.225ZM237.153 239.498L304.696 217.557L288.222 199.446L243.6 204.978L237.153 239.498ZM334.177 246.997L308.259 218.502L357.363 202.551L366.466 220.879L334.177 246.997ZM306.783 216.879L356.464 200.74L351.9 191.552L290.652 199.145L306.783 216.879ZM279.042 44.8537C278.199 45.391 277.297 45.7787 276.38 46.004L253.75 151.543C256.618 153.533 257.511 157.513 256.114 161.173L289.005 197.334L350.957 189.653L279.042 44.8537ZM250.71 166.906C252.419 166.179 253.996 164.879 255.14 163.097L255.148 163.084L286.575 197.635L243.985 202.915L250.71 166.906ZM243.164 166.01C243.38 166.193 243.61 166.363 243.853 166.519C245.268 167.426 246.919 167.731 248.564 167.505L241.902 203.173L193.225 209.208L243.164 166.01ZM240.986 162.616C241.186 163.29 241.474 163.927 241.846 164.506L189.656 209.65L158.05 213.569L157.244 211.821L173.476 188.555L240.986 162.616ZM240.709 159.095C240.648 159.602 240.629 160.106 240.651 160.601L175.518 185.627L192.239 161.659L240.709 159.095ZM251.897 150.647C248.56 149.636 244.549 151.274 242.265 154.832C241.803 155.553 241.441 156.304 241.178 157.067L193.69 159.579L272.896 46.0475C273.351 46.1551 273.816 46.2155 274.286 46.2303L251.897 150.647ZM270.84 45.176C270.816 45.1604 270.792 45.1446 270.768 45.1287L134.573 162.66L134.594 162.705L191.158 159.713L270.997 45.2735C270.944 45.2418 270.892 45.2093 270.84 45.176ZM269.275 43.7746C269.219 43.7053 269.164 43.635 269.111 43.5636L115.59 121.497L133.701 160.77L269.275 43.7746ZM102.148 113.9L31.5967 161.893L98.0613 128.152L104.215 115.062C103.724 114.893 103.249 114.665 102.798 114.375C102.57 114.229 102.353 114.07 102.148 113.9ZM106.253 115.43L100.964 126.679L107.268 123.479L107.366 115.38C107.164 115.404 106.962 115.42 106.761 115.428C106.591 115.434 106.422 115.435 106.253 115.43ZM109.373 114.877L109.281 122.457L112.967 120.586L110.172 114.523C109.909 114.655 109.642 114.774 109.373 114.877ZM-140.412 542.398L-162.403 577.869C-162.341 577.928 -162.279 577.988 -162.219 578.048L-109.786 520.16L-129.633 530.843C-129.105 533.139 -129.542 535.805 -131.041 538.14C-133.265 541.606 -137.129 543.25 -140.412 542.398ZM26.5575 166.694C26.6337 167.254 26.6551 167.832 26.6204 168.417L80.4709 165.568L96.6763 131.098L26.5575 166.694ZM25.0142 173.245C24.8294 173.533 24.6333 173.808 24.4272 174.071L61.331 206.279L79.5052 167.622L26.2796 170.437C26.0118 171.396 25.5919 172.345 25.0142 173.245ZM17.0392 177.716C16.8566 177.707 16.6749 177.691 16.4942 177.668L15.8945 179.429L17.9685 182.842L17.6218 177.722C17.5811 177.723 17.5403 177.724 17.4997 177.724C17.4627 177.725 17.4257 177.725 17.3886 177.725C17.2719 177.725 17.1554 177.722 17.0392 177.716ZM10.5199 170.585C10.4775 168.953 10.88 167.229 11.7561 165.627L2.62675 157.595L10.5199 170.585ZM895.833 330.057L903.426 300.803L957.397 295.68L895.833 330.057ZM982.532 291.284L966.674 292.79L971.743 289.959L982.532 291.284ZM1019.66 272.953L999.963 274.201L1178.78 174.346L1019.66 272.953ZM1216.17 162.075L1220.66 252.356C1218.5 252.917 1216.43 254.382 1215.02 256.58C1214.18 257.881 1213.68 259.284 1213.48 260.67L1201.17 261.45L1216.17 162.075ZM1277.43 226.459L1299.24 206.23L1292.35 201.81L1271.86 219.494L1277.43 226.459ZM1300.75 204.825L1293.93 200.447L1459.75 57.3217L1300.75 204.825ZM1221.25 156.171L1290.59 200.683L1270.61 217.93L1221.25 156.171ZM791.358 253.711L792.136 253.288L791.023 253.635L791.358 253.711ZM358.387 200.115L405.022 184.966L354.004 191.291L358.387 200.115ZM991.287 276.755L918.308 281.38L971.339 287.894L991.287 276.755ZM155.918 213.721L155.966 213.827L155.833 213.843L155.918 213.721ZM156.846 215.733L154.294 216.05L123.348 260.407L127.146 263.722L164.196 231.673L156.846 215.733ZM154.947 211.617L153.163 214.174L108.102 219.761L108.176 213.644L148.702 198.073L154.947 211.617ZM151.624 216.381L108.077 221.779L107.774 246.814L121.832 259.084L151.624 216.381ZM106.166 214.416L106.098 220.009L84.7087 222.661L106.166 214.416ZM106.192 212.264L79.8044 222.403L72.6148 216.128L106.5 186.886L106.192 212.264ZM106.532 184.217L71.0929 214.799L62.898 207.647L81.7716 167.502L106.751 166.181L106.532 184.217ZM69.5635 216.119L62.0131 209.529L57.6008 218.915L61.1095 223.415L69.5635 216.119ZM82.7372 165.448L99.5791 129.625L107.241 125.735L106.775 164.177L82.7372 165.448ZM108.776 164.071L109.253 124.714L113.806 122.403L132.126 162.13L131.255 162.882L108.776 164.071ZM12.6118 163.715L-0.851147 151.871L-38.2908 90.2584L12.6118 163.715ZM-125.534 514.606L7.85015 196.853L-69.6242 424.427L-125.534 514.606ZM-130.468 526.359L-72.4899 432.845L-90.41 485.483L-95.5724 490.833C-97.8826 491.307 -100.128 492.815 -101.629 495.153C-102.33 496.245 -102.799 497.41 -103.045 498.576L-130.939 527.482L-130.468 526.359ZM-128.756 528.1L-103.185 501.602C-102.919 503.758 -101.846 505.679 -100.04 506.839C-99.523 507.171 -98.9742 507.422 -98.4057 507.596L-105.771 515.728L-128.756 528.1ZM-81.2434 491.628L-87.1316 498.129C-87.1476 499.889 -87.6764 501.739 -88.7537 503.417C-90.5047 506.145 -93.271 507.744 -95.9701 507.886L-100.505 512.894L-40.0876 480.373L-33.0882 470.86L-81.2434 491.628ZM-87.9104 494.503C-87.748 494.84 -87.6105 495.191 -87.4984 495.554L-85.6719 493.538L-87.9104 494.503ZM-92.7479 490.786C-92.5815 490.816 -92.4163 490.853 -92.2525 490.895L-91.9249 489.933L-92.7479 490.786ZM-84.2913 482.023L-89.7887 492.127C-89.523 492.34 -89.2768 492.57 -89.0499 492.816L-82.4344 489.963L63.1099 329.277L-84.2913 482.023ZM-67.8043 425.287L-87.1456 482.101L-85.9186 480.829L24.4116 278.036L24.3209 276.695L-67.8043 425.287ZM-78.0059 488.053L-30.741 467.669L70.5637 329.978L65.6127 329.494L-78.0059 488.053ZM-35.9766 478.16L-29.4511 469.291L20.6203 447.696L-35.9766 478.16ZM-27.1038 466.101L40.9788 436.738L120.904 393.718L112.508 334.077L72.8801 330.204L-27.1038 466.101ZM93.883 298.282L71.9429 328.103L67.2848 327.648L93.883 298.282ZM106.074 222.028L105.795 245.086L82.6953 224.926L106.074 222.028ZM71.0854 217.448L77.6925 223.214L76.476 223.682L62.6535 225.395L62.3407 224.994L71.0854 217.448ZM64.0863 227.233L68.7321 226.657L64.8117 228.163L64.0863 227.233ZM60.4461 208.162L56.2221 217.146L25.3005 177.487L60.4461 208.162ZM15.0541 181.897L18.2618 187.176L24.0892 273.273L-64.9385 416.869L15.0541 181.897ZM26.1943 274.759L26.1281 273.78L31.0168 265.895L26.1943 274.759ZM135.495 164.66L189.707 161.793L172.186 186.907L149.733 195.534L135.495 164.66ZM150.572 197.354L170.144 189.835L156.273 209.716L150.572 197.354ZM133.345 164.774L147.862 196.253L108.202 211.492L108.521 185.142L132.043 164.843L133.345 164.774ZM128.782 165.015L108.553 182.472L108.752 166.075L128.782 165.015ZM158.929 215.475L165.771 230.311L186.937 212.003L158.929 215.475Z" fill="url(#paint0_linear_497_3600)" fill-opacity="0.6"/>
<defs>
<linearGradient id="paint0_linear_497_3600" x1="-372" y1="485.867" x2="1684.52" y2="384.245" gradientUnits="userSpaceOnUse">
<stop offset="0.445135" stop-color="#61E1C2"/>
<stop offset="1"/>
</linearGradient>
</defs>
</svg>
