<svg width="1520" height="653" viewBox="0 0 1520 653" fill="none" xmlns="http://www.w3.org/2000/svg">
<path fill-rule="evenodd" clip-rule="evenodd" d="M-22.145 635.569C-27.029 633.935 -32.004 635.573 -33.3454 639.301C-34.7117 643.098 -31.7903 647.626 -26.82 649.414C-21.8498 651.203 -16.7129 649.574 -15.3466 645.777C-14.1312 642.399 -16.3086 638.443 -20.3028 636.352L37.6551 514.188L111.883 471.702L185.332 429.663L321.002 637.81C319.41 638.549 318.187 639.754 317.618 641.335C316.252 645.132 319.173 649.66 324.144 651.449C329.114 653.237 334.251 651.609 335.617 647.812C336.465 645.455 335.661 642.817 333.741 640.727L529.505 388.285C533.619 389.464 537.702 388.355 539.533 385.663L921.619 505.229C920.748 508.889 923.617 513.041 928.325 514.735C933.295 516.524 938.432 514.895 939.799 511.098C941.107 507.461 938.483 503.154 933.893 501.226L962.349 440.609L1050.73 491.123C1050.6 491.363 1050.49 491.614 1050.4 491.876C1049.03 495.673 1051.95 500.201 1056.92 501.989C1061.89 503.778 1067.03 502.149 1068.39 498.352C1069.76 494.555 1066.84 490.027 1061.87 488.239C1061.37 488.059 1060.87 487.915 1060.37 487.803L1041.2 330.124L1102.37 293.627L1126.53 290.545C1127.46 292.999 1129.79 295.237 1132.94 296.371C1137.91 298.16 1143.05 296.531 1144.42 292.734C1144.79 291.695 1144.84 290.6 1144.62 289.523L1361.71 290.326C1362.3 293.192 1364.83 295.943 1368.45 297.245C1373.42 299.033 1378.55 297.405 1379.92 293.607C1381.05 290.461 1379.24 286.814 1375.76 284.638L1434.55 217.924L1538.47 283.359C1538.05 283.866 1537.72 284.44 1537.49 285.073C1536.13 288.871 1539.05 293.399 1544.02 295.187C1548.99 296.975 1554.12 295.347 1555.49 291.55C1556.76 288.022 1554.33 283.864 1549.99 281.858L1560 235.995L1705.35 288.296C1705.23 291.652 1707.97 295.166 1712.21 296.69C1717.18 298.478 1722.32 296.85 1723.68 293.053C1725.05 289.255 1722.13 284.727 1717.16 282.939C1716.24 282.609 1715.32 282.395 1714.42 282.29L1609.29 28.4836L1719.53 167.435L1721.1 166.192L1611.33 27.8307C1613.12 27.1158 1614.51 25.8425 1615.13 24.1261C1615.52 23.0176 1615.56 21.8467 1615.28 20.7L1682.43 2.62058L1681.91 0.689344L1614.55 18.8272C1613.42 16.7821 1611.31 14.9889 1608.6 14.0124C1603.63 12.224 1598.49 13.8523 1597.13 17.6496C1596.31 19.9116 1597.02 22.4329 1598.78 24.48L1341.03 149.647C1339.83 147.943 1337.94 146.484 1335.58 145.638C1330.61 143.849 1325.48 145.478 1324.11 149.275C1323.25 151.677 1324.1 154.372 1326.1 156.481L1040.09 280.827C1038.91 278.964 1036.92 277.353 1034.4 276.446C1029.43 274.657 1024.29 276.286 1022.93 280.083C1022.78 280.494 1022.68 280.913 1022.63 281.337L912.851 263.546C913.075 263.195 913.261 262.818 913.405 262.418C914.771 258.62 911.85 254.092 906.88 252.304C901.909 250.515 896.773 252.144 895.406 255.941C894.576 258.248 895.329 260.826 897.163 262.894L886.45 266.379L683.552 243.227C682.968 240.361 680.436 237.608 676.819 236.307C671.848 234.519 666.711 236.147 665.345 239.944C664.374 242.642 665.568 245.708 668.122 247.899L628.936 286.448L441.79 227.991C442.177 224.512 439.379 220.762 434.964 219.173C429.994 217.385 424.857 219.013 423.491 222.811C422.967 224.265 423.073 225.826 423.682 227.3L366.225 236.047L224.889 112.873C225.262 112.397 225.561 111.865 225.771 111.283C227.137 107.485 224.215 102.957 219.245 101.169C214.275 99.3804 209.138 101.009 207.772 104.806C206.883 107.276 207.809 110.056 209.933 112.189L66.7515 188.958L60.8646 183.591C61.507 182.971 62.004 182.228 62.3108 181.375C63.6772 177.578 60.7556 173.05 55.7853 171.262C50.8151 169.473 45.6784 171.102 44.312 174.899C43.2452 177.864 44.7925 181.274 47.8879 183.478L-17.2342 232.563C-18.1807 231.835 -19.2875 231.223 -20.5204 230.78C-24.3116 229.415 -28.1998 230.039 -30.4374 232.097L-148.315 149.739C-147.849 149.204 -147.482 148.591 -147.236 147.909C-145.87 144.111 -148.791 139.583 -153.762 137.795C-158.732 136.006 -163.868 137.635 -165.235 141.432C-166.601 145.229 -163.68 149.757 -158.709 151.546C-155.542 152.685 -152.308 152.438 -150.024 151.125L-60.8803 219.331L-184.43 160.555C-184.24 160.239 -184.079 159.904 -183.952 159.549C-182.586 155.752 -185.507 151.224 -190.477 149.435C-195.448 147.647 -200.584 149.275 -201.951 153.073C-203.317 156.87 -200.396 161.398 -195.425 163.186C-191.793 164.493 -188.071 163.975 -185.798 162.119L-53.227 225.187L-24.95 246.822L-50.7572 557.642L-51.0077 558.395C-55.9734 556.615 -61.1014 558.244 -62.4664 562.037C-63.8328 565.835 -60.9113 570.363 -55.9411 572.151C-55.8352 572.189 -55.7291 572.226 -55.6231 572.261L-66.2503 604.187C-70.9837 602.802 -75.6935 604.452 -76.9929 608.063C-78.3593 611.86 -75.4378 616.388 -70.4676 618.177C-65.4973 619.965 -60.3605 618.337 -58.9941 614.539C-57.9936 611.759 -59.2924 608.586 -62.0113 606.384L-22.9999 548.904L34.6162 515.927L-22.145 635.569ZM1058.33 487.524L1039.33 331.245L1017.88 344.043C1020.85 346.249 1022.31 349.581 1021.27 352.485C1019.9 356.282 1014.76 357.91 1009.79 356.122C1007.26 355.209 1005.26 353.584 1004.08 351.706L963.201 438.792L1051.98 489.532C1053.51 488.136 1055.81 487.408 1058.33 487.524ZM1143.88 287.52L1361.63 288.326C1361.69 287.922 1361.78 287.523 1361.92 287.131C1362.74 284.87 1364.89 283.378 1367.54 282.918L1359.51 252.367L1160.18 272.572L1141.82 284.938C1142.68 285.714 1143.38 286.592 1143.88 287.52ZM1140.11 283.677L1155.97 272.999L1133.04 275.323L1114.11 286.62L1126.18 287.126C1126.24 286.833 1126.31 286.543 1126.42 286.258C1127.78 282.461 1132.92 280.832 1137.89 282.621C1138.69 282.907 1139.43 283.264 1140.11 283.677ZM901.932 266.055C901.015 265.725 900.168 265.302 899.405 264.807L895.005 267.355L992.506 278.481L911.15 265.296C908.855 266.898 905.354 267.286 901.932 266.055ZM1022.9 283.961L892.1 269.037L785.664 330.656C785.921 330.877 786.164 331.108 786.392 331.346L1023.53 285.423C1023.27 284.947 1023.05 284.458 1022.9 283.961ZM1024.84 287.207L808.533 329.095L1025.48 301.419L1030.59 290.545C1030.21 290.448 1029.83 290.332 1029.45 290.197C1027.59 289.525 1026.01 288.467 1024.84 287.207ZM1033.3 290.921L1029.72 300.878L1035.54 300.135L1034.42 290.886C1034.05 290.916 1033.68 290.928 1033.3 290.921ZM1036.39 290.52L1037.53 299.882L1101.7 291.696L1107.33 288.338L1041.19 285.569C1041.13 285.903 1041.04 286.234 1040.93 286.56C1040.23 288.504 1038.54 289.88 1036.39 290.52ZM1040.95 282.647L1132.4 273.378L1320.74 160.992L1040.94 282.637L1040.95 282.647ZM1373.4 283.494C1373.57 283.558 1373.75 283.626 1373.92 283.697L1432.83 216.844L1423.27 210.82L1390.71 244.229C1392.9 246.375 1393.87 249.2 1392.96 251.706C1391.6 255.504 1386.46 257.132 1381.49 255.344C1378.87 254.399 1376.81 252.692 1375.66 250.731L1361.53 252.163L1369.57 282.77C1370.81 282.797 1372.11 283.031 1373.4 283.494ZM1329.17 158.753L1163.69 270.206L1359 250.409L1335.27 160.1C1333.79 160.177 1332.21 159.953 1330.64 159.389C1330.12 159.204 1329.64 158.991 1329.17 158.753ZM1338.68 159.3L1381.81 240.881C1383.29 240.805 1384.87 241.029 1386.44 241.593C1387.43 241.949 1388.34 242.415 1389.15 242.962L1421.54 209.731L1340.1 158.453C1339.67 158.782 1339.19 159.065 1338.68 159.3ZM1342.19 155.496L1440.07 190.714L1600.51 26.0872L1600.46 26.0507L1600.43 26.0258C1600.39 26.0007 1600.36 25.9755 1600.33 25.9502L1341.98 151.407C1342.5 152.752 1342.6 154.164 1342.19 155.496ZM1548.1 281.159L1558.11 235.312L1452.66 197.37L1435.89 216.404L1540.05 281.992C1542.14 280.688 1545.11 280.321 1548.1 281.159ZM1705.78 286.325C1706.77 283.953 1709.26 282.484 1712.23 282.247L1607.12 28.4736C1606.54 28.4428 1605.95 28.3667 1605.35 28.2429L1560.43 234.024L1705.78 286.325ZM1602.53 27.2968L1454.08 195.756L1558.54 233.341L1603.43 27.6793C1603.12 27.5621 1602.82 27.4343 1602.53 27.2968ZM669.776 249.078L631.101 287.124L728.828 317.651L749.889 310.8L680.327 249.764C678.059 250.965 674.933 251.16 671.871 250.058C671.124 249.789 670.423 249.459 669.776 249.078ZM681.981 248.554L752.102 310.08L881.869 267.869L683.629 245.249C683.577 245.644 683.482 246.036 683.344 246.421C683.051 247.236 682.583 247.951 681.981 248.554ZM441.222 229.909C440.731 230.889 439.97 231.697 439.021 232.309L528.319 373.626C529.991 373.424 531.835 373.621 533.657 374.276C535.11 374.799 536.388 375.557 537.435 376.461L627.319 288.039L441.222 229.909ZM430.016 232.924C429.803 232.847 429.593 232.766 429.387 232.679L397.144 262.993L525.184 374.579C525.523 374.399 525.882 374.241 526.256 374.106L437.199 233.17C435.105 233.859 432.539 233.832 430.016 232.924ZM427.515 231.694C426.975 231.346 426.477 230.962 426.025 230.551L378.413 246.669L395.628 261.672L427.515 231.694ZM540.353 383.824L922.424 503.385C922.887 502.694 923.497 502.105 924.218 501.632L784.014 342.507C781.941 343.16 779.421 343.118 776.943 342.226C773.824 341.104 771.511 338.902 770.559 336.48L540.5 381.972C540.549 382.594 540.503 383.216 540.353 383.824ZM926.095 500.737L785.911 341.635C786.409 341.318 786.856 340.947 787.241 340.526L960.607 439.613L931.979 500.595C929.889 500.088 927.83 500.167 926.095 500.737ZM961.459 437.797L788.319 338.839C788.341 338.787 788.362 338.734 788.382 338.681C788.394 338.651 788.405 338.62 788.416 338.589C788.767 337.613 788.835 336.59 788.658 335.577L1003.07 346.692C1002.89 347.511 1002.89 348.353 1003.06 349.185L961.459 437.797ZM789.065 333.595L1003.92 344.733C1004.46 343.943 1005.19 343.289 1006.06 342.789L1024.47 303.564L789.065 333.595ZM1008.72 341.826C1010.01 341.581 1011.41 341.58 1012.85 341.853L1026.45 304.067L1008.72 341.826ZM1014.78 342.386C1015.18 342.531 1015.57 342.694 1015.94 342.872L1039.06 329.074L1035.79 302.121L1028.96 302.992L1014.78 342.386ZM888.765 268.656L783.866 329.386C783.252 329.034 782.592 328.728 781.891 328.475C778.819 327.37 775.683 327.57 773.414 328.78L753.85 311.614L886.655 268.415L888.765 268.656ZM751.638 312.334L771.765 329.994C771.505 330.256 771.27 330.54 771.064 330.844L732.126 318.681L751.638 312.334ZM728.84 319.75L770.245 332.683C770.097 333.29 770.051 333.911 770.1 334.532L548.973 378.257L728.84 319.75ZM539.653 379.186L725.542 318.72L629.484 288.715L538.817 377.907C539.138 378.319 539.418 378.747 539.653 379.186ZM523.533 375.794L395.679 264.369L369.988 288.523L523.351 375.985C523.41 375.92 523.471 375.856 523.533 375.794ZM522.276 377.674L368.463 289.956L301.37 353.033L521.854 380.142C521.818 379.389 521.923 378.638 522.184 377.914C522.197 377.877 522.21 377.841 522.224 377.805L522.237 377.77C522.25 377.738 522.263 377.706 522.276 377.674ZM522.83 383.329L281.433 379.468C281.417 380.069 281.308 380.666 281.1 381.246C280.286 383.507 278.135 384.999 275.479 385.459L327.009 637.145C327.699 637.265 328.397 637.448 329.091 637.698C330.27 638.122 331.333 638.7 332.251 639.385L527.549 387.544C525.444 386.539 523.801 385.025 522.83 383.329ZM322.973 637.172C323.6 637.046 324.256 636.978 324.932 636.972L273.468 385.607C272.222 385.583 270.919 385.349 269.626 384.883C268.457 384.463 267.401 383.891 266.488 383.212L187.071 428.668L322.973 637.172ZM126.01 338.65L149.319 374.412L104.471 373.352L121.368 337.737C121.528 337.803 121.691 337.865 121.856 337.924C123.257 338.429 124.671 338.661 126.01 338.65ZM118.284 335.913C118.333 335.953 118.382 335.993 118.431 336.032C118.496 336.084 118.561 336.134 118.628 336.185L91.0322 373.035L59.4399 372.289C59.2278 371.553 58.8893 370.83 58.4388 370.143L118.284 335.913ZM41.3628 369.533C42.0681 367.573 43.7781 366.19 45.9514 365.558L29.2302 335.315L-12.9438 511.881L89.56 375.001L59.6934 374.295C59.6709 374.875 59.5628 375.45 59.3616 376.009C57.9953 379.806 52.8584 381.435 47.8882 379.646C42.9179 377.858 39.9965 373.33 41.3628 369.533ZM48.0357 365.194C48.3309 365.174 48.6309 365.166 48.9341 365.17L38.4736 302.091C38.0433 302.134 37.6023 302.151 37.1541 302.141L29.9197 332.429L48.0357 365.194ZM52.8361 365.895C54.5477 366.511 56.0163 367.452 57.1505 368.576L116.819 334.447C115.621 332.976 114.958 331.278 114.997 329.615L44.7687 297.915C44.0582 299.743 42.4612 301.051 40.4349 301.693L50.9973 365.387C51.6079 365.506 52.2232 365.675 52.8361 365.895ZM26.8204 291.304C27.271 290.052 28.1315 289.035 29.2607 288.3L-11.8859 256.818L26.3542 325.98L34.4192 301.751C34.0616 301.657 33.7032 301.546 33.3458 301.417C28.3755 299.629 25.4541 295.101 26.8204 291.304ZM31.3183 287.356C33.2957 286.757 35.6676 286.785 38.0186 287.571L39.1897 279.576L-16.4361 243.898C-17.0533 244.3 -17.7507 244.618 -18.5055 244.845L-14.2991 252.453L31.3183 287.356ZM39.9206 288.385C40.3814 288.63 40.8176 288.899 41.227 289.189L46.2095 284.078L41.0374 280.761L39.9206 288.385ZM42.7509 290.491C42.8427 290.586 42.9322 290.682 43.0193 290.779L51.4226 287.422L49.3064 286.064L47.9279 285.18L42.7509 290.491ZM44.2219 292.452C44.8362 293.555 45.1665 294.733 45.1552 295.895L110.908 325.575L53.4917 288.749L44.2219 292.452ZM118.419 324.43C117.44 324.936 116.617 325.626 116.021 326.479L55.7743 287.837L65.9067 283.789L69.4466 283.25L108.226 301.575L118.419 324.43ZM125.417 323.762C123.623 323.342 121.855 323.352 120.298 323.734L111 302.886L130.424 312.065L125.417 323.762ZM128.506 324.932C128.13 324.73 127.738 324.543 127.33 324.376L132.234 312.92L137.678 315.493L128.506 324.932ZM132.077 327.951C131.563 327.265 130.935 326.623 130.209 326.05L139.589 316.396L150.699 321.646L132.077 327.951ZM133.666 332.413C133.676 331.509 133.48 330.595 133.104 329.714L153.303 322.876L187.488 339.031L133.666 332.413ZM132.318 336.038C131.34 337.201 129.903 338.01 128.231 338.395L151.744 374.469L262.776 377.091C262.758 376.804 262.761 376.517 262.784 376.232L132.318 336.038ZM153.068 376.501L263.229 379.102C263.597 380.052 264.174 380.969 264.927 381.801L185.977 426.989L153.068 376.501ZM513.965 381.187L281.159 377.463C280.793 376.234 280.073 375.042 279.07 373.998L299.475 354.815L513.965 381.187ZM296.893 354.497L277.548 372.684C276.673 372.058 275.674 371.528 274.574 371.132C273.83 370.865 273.082 370.673 272.343 370.555L268.112 350.959L296.893 354.497ZM266.01 350.7L270.266 370.409C268.951 370.438 267.712 370.703 266.634 371.177L240.768 347.597L266.01 350.7ZM237.337 347.175L264.863 372.269C264.588 372.501 264.335 372.753 264.107 373.025L199.58 342.532L237.337 347.175ZM193.816 339.809L156.03 321.953L195.145 308.711L234.782 344.845L193.816 339.809ZM153.427 320.723L193.456 307.172L169.644 285.464L141.062 314.88L153.427 320.723ZM238.213 345.267L197.31 307.978L252.734 289.215L265.563 348.63L238.213 345.267ZM195.621 306.439L252.309 287.248L245.654 256.425L189.563 264.964L171.039 284.029L195.621 306.439ZM267.665 348.889L254.641 288.57L324.539 264.907L366.646 288.92L298.788 352.715L267.665 348.889ZM254.216 286.602L322.216 263.582L296.179 248.733L247.635 256.124L254.216 286.602ZM368.17 287.487L327.073 264.049L376.22 247.411L394.164 263.049L368.17 287.487ZM324.749 262.724L374.475 245.89L365.61 238.164L299.366 248.248L324.749 262.724ZM134.03 334.473L193.252 341.754L259.912 373.254L134.03 334.473ZM150.644 376.443L103.533 375.331L44.4567 499.851L110.932 469.942L184.238 427.984L150.644 376.443ZM116.45 343.436L102.282 373.301L96.2779 373.159L116.45 343.436ZM101.343 375.279L94.9415 375.128L-4.72618 521.98L41.6423 501.117L101.343 375.279ZM97.9503 367.133L93.8989 373.103L93.4874 373.093L97.9503 367.133ZM92.5626 375.072L92.0152 375.059L-14.1139 516.78L-16.2833 525.862C-15.7932 526.065 -15.3252 526.295 -14.8818 526.549L-8.2059 523.545L92.5626 375.072ZM-19.1796 523.545L-19.1527 525.056C-19.513 525 -19.8708 524.962 -20.2247 524.941L-19.1796 523.545ZM-28.3164 529.283C-27.5175 527.063 -25.4299 525.584 -22.8402 525.096L-19.2374 520.286L-20.0971 471.864L-48.7838 558.046L-48.8948 559.383L-48.8594 559.404L-48.7655 559.46C-48.7214 559.487 -48.6776 559.514 -48.634 559.541L-28.4888 532.64C-28.7472 531.515 -28.7072 530.369 -28.3164 529.283ZM-53.6732 572.735C-49.4941 573.393 -45.626 571.733 -44.4677 568.514C-43.694 566.364 -44.295 563.98 -45.8641 561.991L-26.9524 551.167L-63.6693 605.266C-63.8998 605.137 -64.1366 605.015 -64.3795 604.9L-53.6732 572.735ZM223.408 114.235C222.646 114.746 221.757 115.127 220.787 115.363L237.588 208.723C241.675 210.235 244.348 213.606 244.341 216.868L296.566 246.652L363.633 236.441L223.408 114.235ZM240.361 222.437C242.028 221.734 243.325 220.538 243.949 218.947L293.379 247.137L247.212 254.165L240.361 222.437ZM231.362 221.946C231.738 222.126 232.128 222.289 232.531 222.434C234.561 223.165 236.619 223.325 238.437 223.001L245.231 254.467L191.87 262.59L231.362 221.946ZM229.587 220.903L188.598 263.088L153.867 268.375L152.022 266.693L160.958 245.818L227.67 219.168C228.214 219.799 228.858 220.385 229.587 220.903ZM226.51 217.478L162.071 243.22L171.462 221.282L225.983 216.223C226.118 216.648 226.294 217.067 226.51 217.478ZM225.67 214.243L172.357 219.19L216.732 115.529C217.436 115.629 218.131 115.664 218.804 115.637L235.451 208.14C231.181 207.378 227.186 209.04 226.006 212.321C225.781 212.947 225.672 213.593 225.67 214.243ZM214.297 114.92C214.199 114.884 214.101 114.848 214.004 114.81L106.448 225.147L106.607 225.291L170.092 219.4L214.751 115.074C214.698 115.057 214.644 115.039 214.59 115.021C214.552 115.008 214.513 114.995 214.475 114.982L214.394 114.954L214.297 114.92ZM212.112 113.886C211.939 113.781 211.769 113.674 211.604 113.563L68.3189 190.387L104.969 223.799L212.112 113.886ZM49.763 184.569L-12.2722 231.328L51.2451 197.272L52.9589 185.572C52.2558 185.452 51.5449 185.267 50.8374 185.012C50.4676 184.879 50.1092 184.731 49.763 184.569ZM54.9557 185.739L53.4387 196.096L59.6874 192.745L56.5085 185.618C56.0062 185.695 55.4868 185.736 54.9557 185.739ZM58.4663 185.097L61.4547 191.798L64.8822 189.96L59.191 184.772C59.1002 184.818 59.0081 184.863 58.9146 184.906C58.8278 184.946 58.7399 184.985 58.651 185.022L58.6253 185.033L58.5517 185.063L58.4663 185.097ZM-21.791 539.397C-24.407 538.456 -26.4554 536.755 -27.6098 534.802L-46.5299 560.068L-24.3949 547.398L-19.3756 540.003C-20.1739 539.887 -20.9847 539.687 -21.791 539.397ZM-10.3176 535.76C-11.2396 538.322 -13.8786 539.897 -17.0248 540.101L-20.4424 545.136L36.117 512.763L40.3195 503.906L-6.86894 525.137L-10.7177 530.808C-9.92915 532.414 -9.73919 534.152 -10.3176 535.76ZM-12.9938 527.892C-12.5965 528.242 -12.2335 528.612 -11.9077 528.999L-10.3487 526.702L-12.9938 527.892ZM53.7052 286.51L57.1958 285.115L52.6177 285.812L53.7052 286.51ZM65.3783 281.847L65.9731 281.609L56.0022 276.897L49.353 283.718L50.0686 284.177L65.3783 281.847ZM97.2618 276.993L74.0892 280.52L95.0929 272.13L97.2618 276.993ZM68.5098 280.596L94.2777 270.302L84.2807 247.887L57.4785 275.383L68.5098 280.596ZM99.3124 276.681L96.9516 271.387L136.759 255.485L149.624 267.213L148.796 269.147L99.3124 276.681ZM96.1364 269.559L135.116 253.988L105.912 227.364L104.125 227.53L85.7833 246.346L96.1364 269.559ZM150.457 265.267L138.823 254.661L158.334 246.866L150.457 265.267ZM137.181 253.163L159.446 244.268L169.196 221.492L108.606 227.114L137.181 253.163ZM103.573 225.232L66.4496 191.389L62.2715 193.629L77.5935 227.983L103.207 225.607L103.573 225.232ZM-14.9236 235.018C-14.6096 235.496 -14.3496 235.991 -14.1487 236.496L46.3217 230.885L50.8844 199.735L-14.9236 235.018ZM-14.1417 241.26L-14.1543 241.289C-14.1844 241.356 -14.2157 241.423 -14.2483 241.488L40.948 267.571L46.0233 232.921L-13.6787 238.461C-13.6122 239.283 -13.7108 240.104 -13.9949 240.893C-14.0267 240.982 -14.0605 241.069 -14.0964 241.155C-14.1112 241.19 -14.1264 241.225 -14.1417 241.26ZM-20.5805 245.226C-21.0819 245.264 -21.5969 245.267 -22.1202 245.234L-22.0979 246.486L-18.26 249.423L-20.5805 245.226ZM-31.7027 239.137C-32.2835 237.851 -32.4811 236.49 -32.2106 235.185L-44.5248 229.327L-31.7027 239.137ZM-114.26 175.971L-33.681 232.271L-52.1782 223.471L-114.26 175.971ZM-48.0832 549.609L-23.8897 258.225L-20.2038 465.852L-48.0832 549.609ZM-18.198 466.159L-17.2835 517.676L-15.963 515.913L27.7943 332.718L26.8111 330.94L-18.198 466.159ZM39.1558 511.024L43.1339 502.639L93.0203 480.194L39.1558 511.024ZM-17.1332 520.812L-17.2256 520.936L-17.2213 521.181L-17.1332 520.812ZM47.6346 282.616L41.3556 278.589L42.5354 270.533L54.0901 275.994L47.6346 282.616ZM39.5078 277.404L40.645 269.64L-9.65571 245.871L39.5078 277.404ZM55.5664 274.479L42.8385 268.465L48.0725 232.731L76.3508 230.107L83.404 245.922L55.5664 274.479ZM75.4905 228.178L48.3707 230.695L53.0779 198.559L60.5042 194.577L75.4905 228.178ZM-18.3048 460.147L-22.0526 249.039L-15.8468 253.787L25.4954 328.56L-18.3048 460.147ZM27.6699 328.36L31.7964 315.963L28.4837 329.832L27.6699 328.36ZM84.9065 244.38L78.4536 229.912L101.054 227.815L84.9065 244.38ZM1040.94 327.953L1037.77 301.868L1097.4 294.26L1040.94 327.953ZM1122.91 288.99L1106.67 291.062L1110.97 288.491L1122.91 288.99ZM1159.48 270.633L1137.1 272.901L1303.8 173.426L1159.48 270.633ZM1337.83 161.988L1379.72 241.208C1377.47 241.817 1375.69 243.219 1374.97 245.23C1374.55 246.386 1374.53 247.61 1374.85 248.803L1361.01 250.205L1337.83 161.988ZM1434.17 215.324L1450.64 196.642L1440.6 193.032L1424.69 209.356L1434.17 215.324ZM1452.06 195.028L1442.14 191.458L1578.54 51.4952L1452.06 195.028ZM1342.98 157.904L1438.54 192.288L1422.96 208.266L1342.98 157.904ZM1128.34 275.799L1048.63 283.879L1110.46 286.468L1128.34 275.799ZM891.67 266.974L892.42 266.54L891.237 266.925L891.67 266.974ZM376.668 245.148L423.194 229.397L368.201 237.769L376.668 245.148ZM155.769 270.109L186.291 265.462L169.56 282.681L155.769 270.109ZM153.225 270.496L168.166 284.116L139.151 313.977L133.021 311.08L150.197 270.957L153.225 270.496ZM131.212 310.225L109.75 300.084L100.157 278.575L147.87 271.312L131.212 310.225ZM72.9871 282.711L98.1067 278.887L106.975 298.772L72.9871 282.711ZM151.324 268.763L151.123 268.793L151.189 268.64L151.324 268.763Z" fill="url(#paint0_linear_361_1504)" fill-opacity="0.4"/>
<defs>
<linearGradient id="paint0_linear_361_1504" x1="-339.999" y1="536.724" x2="1544.9" y2="-458.853" gradientUnits="userSpaceOnUse">
<stop offset="0.301757" stop-color="#00CB9A"/>
<stop offset="1"/>
</linearGradient>
</defs>
</svg>
