<svg width="1520" height="596" viewBox="0 0 1520 596" fill="none" xmlns="http://www.w3.org/2000/svg">
<path fill-rule="evenodd" clip-rule="evenodd" d="M1612.76 53.8858C1616.58 56.023 1621.45 54.7877 1623.78 51.02C1626.18 47.142 1624.98 42.0495 1621.11 39.6457C1617.24 37.242 1612.16 38.4371 1609.76 42.3152C1607.65 45.7248 1608.32 50.0733 1611.14 52.7077L1521.42 176.161L1442.03 213.517L1363.77 250.343L1307.74 16.1604C1309.39 15.5426 1310.86 14.3921 1311.86 12.7754C1314.26 8.89731 1313.06 3.80495 1309.19 1.40115C1305.32 -1.00265 1300.24 0.192493 1297.84 4.07053C1296.38 6.43861 1296.25 9.25949 1297.26 11.6445L1044.29 258.731C1040.98 257.113 1037 257.919 1034.57 260.63L731.541 94.82C733.541 91.0158 732.29 86.2538 728.587 83.9537C724.717 81.5499 719.636 82.745 717.237 86.6231C714.964 90.2982 715.916 95.0641 719.316 97.5986L675.05 158.904L612.156 96.4496C612.373 96.181 612.575 95.8959 612.762 95.5945C615.16 91.7165 613.968 86.624 610.098 84.2203C606.228 81.8165 601.147 83.0116 598.748 86.8897C596.35 90.7677 597.542 95.8601 601.412 98.2639C601.77 98.4864 602.139 98.6781 602.515 98.8397L570.509 267.706L504.525 300.117L482.306 300.886C482.257 298.173 480.878 295.54 478.406 294.004C474.536 291.6 469.454 292.795 467.056 296.673C466.383 297.762 465.992 298.946 465.865 300.139L272.778 276.964C273.186 273.844 271.788 270.629 268.946 268.863C265.076 266.46 259.995 267.655 257.596 271.533C255.63 274.712 256.077 278.708 258.435 281.369L185.233 346.001L113.123 266.149C113.688 265.638 114.192 265.04 114.613 264.359C117.012 260.481 115.819 255.389 111.95 252.985C108.08 250.581 102.998 251.776 100.6 255.655C98.3962 259.217 99.2236 263.805 102.373 266.391L79.1192 314.031L-33.9164 243.815C-32.6851 240.247 -34.0312 236.174 -37.3685 234.101C-41.2382 231.697 -46.3196 232.892 -48.7182 236.77C-51.1168 240.648 -49.9243 245.741 -46.0546 248.144C-45.354 248.579 -44.6137 248.897 -43.8568 249.101L-29.2282 528.494L-84.0652 370.385L-85.9528 371.041L-31.1693 528.995C-33.0024 529.563 -34.6469 530.772 -35.7371 532.534C-36.4407 533.672 -36.8353 534.914 -36.944 536.162L-102.618 548.437L-102.25 550.405L-36.8718 538.185C-36.5077 540.472 -35.1916 542.593 -33.0735 543.909C-29.2039 546.312 -24.1224 545.117 -21.7238 541.239C-20.3013 538.939 -20.1418 536.212 -21.0548 533.872L247.44 427.916C247.98 429.83 249.208 431.556 251.029 432.687C254.898 435.091 259.98 433.895 262.378 430.017C263.892 427.571 263.975 424.64 262.859 422.207L556.264 320.026C556.734 322.11 558.006 324.011 559.961 325.225C563.831 327.629 568.912 326.434 571.311 322.556C571.591 322.102 571.823 321.632 572.006 321.152L664.276 351.282C663.935 351.655 663.624 352.066 663.347 352.512C660.949 356.39 662.141 361.483 666.011 363.887C669.881 366.29 674.962 365.095 677.361 361.217C678.819 358.86 678.95 356.055 677.96 353.677L688.802 351.037L862.087 396.351C861.669 399.478 863.067 402.705 865.916 404.475C869.786 406.879 874.867 405.684 877.266 401.806C878.951 399.082 878.864 395.758 877.321 393.188L924.37 356.301L1072.68 437.323C1071.18 440.992 1072.49 445.319 1075.97 447.478C1079.84 449.882 1084.92 448.686 1087.32 444.808C1088.24 443.309 1088.63 441.627 1088.54 439.99L1142.5 436.637L1230.03 581.52C1229.52 581.998 1229.07 582.549 1228.69 583.168C1226.29 587.047 1227.48 592.139 1231.35 594.543C1235.22 596.946 1240.3 595.751 1242.7 591.873C1244.25 589.364 1244.3 586.346 1243.1 583.877L1394.57 517.327L1398.11 523.558C1397.32 524.155 1396.63 524.906 1396.07 525.799C1393.68 529.677 1394.87 534.77 1398.74 537.174C1402.61 539.577 1407.69 538.382 1410.09 534.504C1411.95 531.5 1411.65 527.766 1409.62 525.119L1482.89 479.871C1483.5 480.712 1484.28 481.451 1485.22 482.032C1488.2 483.885 1491.9 483.6 1494.54 481.597L1573.88 580.871C1573.27 581.404 1572.72 582.037 1572.27 582.764C1569.87 586.642 1571.07 591.735 1574.94 594.138C1578.81 596.542 1583.89 595.347 1586.29 591.469C1588.68 587.591 1587.49 582.499 1583.62 580.095C1581.13 578.544 1578.13 578.491 1575.67 579.689L1517.04 497.681L1609.41 573.112C1609.11 573.453 1608.84 573.823 1608.59 574.222C1606.19 578.1 1607.39 583.193 1611.25 585.596C1615.12 588 1620.21 586.805 1622.6 582.927C1625 579.049 1623.81 573.957 1619.94 571.553C1617.07 569.771 1613.54 569.966 1610.93 571.766L1512.6 491.479L1494.2 465.742L1613.96 139.347L1614.44 138.53C1618.3 140.827 1623.29 139.616 1625.66 135.781C1628.06 131.903 1626.87 126.811 1623 124.407C1622.96 124.38 1622.91 124.354 1622.87 124.328L1642.28 91.6253C1646.04 93.4889 1650.67 92.2151 1652.93 88.5667C1655.33 84.6886 1654.13 79.5962 1650.26 77.1924C1646.39 74.7887 1641.31 75.9838 1638.91 79.8618C1637.18 82.6623 1637.32 86.0961 1638.99 88.6934L1586.22 145.667L1525.17 174.392L1612.76 53.8858ZM604.443 99.4003L572.752 266.604L595.676 255.344C593.748 252.707 593.495 249.055 595.319 246.105C597.718 242.227 602.799 241.032 606.669 243.436C608.589 244.628 609.85 246.483 610.34 248.522L673.865 160.544L610.719 97.8403C608.928 99.1926 606.652 99.7561 604.443 99.4003ZM465.897 302.159L272.272 278.919C272.094 279.37 271.873 279.811 271.609 280.238C270.195 282.524 267.848 283.878 265.367 284.112L263.003 317.336L446.489 316.454L466.908 305.133C466.383 304.213 466.041 303.201 465.897 302.159ZM468.117 306.751L450.653 316.434L471.513 316.333L492.196 306.174L481.59 304.395C481.441 304.73 481.267 305.058 481.069 305.378C478.671 309.256 473.589 310.451 469.72 308.048C469.12 307.675 468.585 307.238 468.117 306.751ZM674.697 349.843C675.395 350.277 676.006 350.798 676.525 351.384L681.346 349.088L594.282 326.321L666.115 349.777C668.677 348.241 671.985 348.158 674.697 349.843ZM572.541 318.567L684.15 347.753L798.318 293.39C798.162 293.132 798.021 292.866 797.895 292.594L572.429 316.806C572.528 317.386 572.567 317.976 572.541 318.567ZM571.841 314.856L778.753 292.636L575.888 299.652L567.871 310.755C568.039 310.836 568.205 310.923 568.369 311.016C568.462 311.069 568.555 311.124 568.647 311.182C570.112 312.092 571.193 313.387 571.841 314.856ZM565.293 310L571.601 299.8L566.426 299.979L564.537 309.944C564.789 309.951 565.041 309.97 565.293 310ZM562.464 310.151L564.378 300.05L505.023 302.103L498.66 305.228L556.72 314.964C556.881 314.585 557.074 314.213 557.297 313.851C558.505 311.898 560.393 310.626 562.464 310.151ZM556.064 317.928L471.982 318.333L269.621 417.733L556.062 317.976L556.064 317.928ZM260.26 282.907C260.154 282.841 260.049 282.773 259.947 282.703L186.574 347.486L193.07 354.68L232.573 322.584C231.338 320.105 231.376 317.062 232.939 314.534C235.338 310.656 240.419 309.461 244.289 311.865C246.351 313.146 247.653 315.19 248.057 317.408L260.998 317.346L263.367 284.055C262.296 283.893 261.239 283.515 260.26 282.907ZM260.769 419.419L442.847 318.473L262.86 319.339L255.881 417.418C257.198 417.498 258.515 417.898 259.715 418.643C260.092 418.877 260.444 419.137 260.769 419.419ZM252.509 417.917L239.482 327.136C238.15 327.062 236.817 326.662 235.603 325.908C234.863 325.448 234.22 324.89 233.682 324.261L194.413 356.168L250.901 418.721C251.409 418.394 251.949 418.125 252.509 417.917ZM248.275 421.462L172.208 374.21L-22.047 532.047L-22.0109 532.098L247.13 425.887C247.088 424.382 247.456 422.848 248.275 421.462ZM104.071 267.471L80.8267 315.092L162.664 365.928L183.734 347.324L111.474 267.304C109.225 268.498 106.478 268.619 104.071 267.471ZM-34.7981 245.622C-36.3947 248.088 -39.0943 249.425 -41.841 249.384L-27.2132 528.764C-26.7623 528.849 -26.315 528.972 -25.876 529.135L78.2374 315.838L-34.7981 245.622ZM-23.6206 530.403L161.099 367.31L79.9448 316.898L-24.0989 530.053C-23.9342 530.165 -23.7747 530.281 -23.6206 530.403ZM876.09 391.611L922.458 355.257L845.097 312.995L823.943 318.143L866.905 389.906C869.314 388.833 872.193 388.935 874.602 390.432C875.153 390.774 875.65 391.171 876.09 391.611ZM865.192 390.934L821.91 318.638L692.899 350.04L862.592 394.414C862.77 393.965 862.99 393.526 863.252 393.101C863.782 392.245 864.443 391.519 865.192 390.934ZM1073.66 435.577C1074.41 434.54 1075.37 433.727 1076.45 433.157L1040.9 274.423C1039.35 274.464 1037.77 274.067 1036.35 273.185C1035.25 272.502 1034.36 271.6 1033.72 270.572L926.083 354.958L1073.66 435.577ZM1084.65 433.434C1084.71 433.468 1084.76 433.503 1084.82 433.538C1084.85 433.563 1084.89 433.588 1084.93 433.614C1084.97 433.642 1085.01 433.67 1085.05 433.699L1123.3 404.861L1044.06 273.703C1043.68 273.875 1043.29 274.016 1042.88 274.127L1078.33 432.436C1080.41 431.921 1082.69 432.214 1084.65 433.434ZM1086.56 435.068C1086.91 435.471 1087.21 435.903 1087.47 436.357L1134.97 424.174L1124.34 406.583L1086.56 435.068ZM1033.42 262.279L730.397 96.4745C729.74 97.2152 728.968 97.8154 728.126 98.2649L803.458 281.072C805.519 280.579 807.769 280.878 809.713 282.086C812.152 283.601 813.528 286.186 813.61 288.86L1032.64 264.376C1032.8 263.659 1033.06 262.954 1033.42 262.279ZM726.261 98.9855L801.584 281.768C800.992 282.074 800.433 282.454 799.923 282.903L676.487 160.33L721.061 98.5977C722.744 99.3057 724.569 99.4134 726.261 98.9855ZM675.302 161.971L798.595 284.401C798.543 284.475 798.493 284.55 798.444 284.626C798.417 284.669 798.39 284.712 798.363 284.755C797.729 285.781 797.345 286.892 797.197 288.015L609.677 254.197C610.075 253.414 610.336 252.592 610.468 251.761L675.302 161.971ZM796.946 290.004L608.435 256.007C607.761 256.753 606.97 257.355 606.108 257.799L577.372 297.598L796.946 290.004ZM602.997 258.692C601.879 258.784 600.735 258.649 599.64 258.27L577.77 293.63L602.997 258.692ZM597.835 257.386C597.585 257.223 597.347 257.049 597.12 256.865L572.286 269.063L566.808 297.963L572.867 297.754L597.835 257.386ZM687.156 348.539L799.591 295.001C800.018 295.421 800.497 295.801 801.027 296.13C803.443 297.63 806.331 297.728 808.744 296.646L820.833 316.84L688.818 348.973L687.156 348.539ZM822.866 316.345L810.454 295.613C810.825 295.322 811.174 294.997 811.495 294.638L842.488 311.569L822.866 316.345ZM845.374 310.867L812.648 292.989C813.006 292.315 813.262 291.611 813.42 290.896L1024.24 267.328L845.374 310.867ZM1032.54 267.371L847.983 312.292L924.172 353.914L1032.85 268.71C1032.71 268.273 1032.6 267.825 1032.54 267.371ZM1045.77 272.671L1124.9 403.651L1155.44 380.626L1046.15 272.36C1046.11 272.391 1046.08 272.422 1046.04 272.452C1046 272.488 1045.96 272.523 1045.91 272.557C1045.87 272.596 1045.82 272.634 1045.77 272.671ZM1047.47 270.86L1157.05 379.41L1236.59 319.437L1048.71 268.084C1048.51 268.923 1048.18 269.743 1047.7 270.516C1047.68 270.541 1047.67 270.565 1047.65 270.59C1047.63 270.621 1047.61 270.653 1047.59 270.684C1047.57 270.719 1047.54 270.754 1047.52 270.789C1047.51 270.813 1047.49 270.836 1047.47 270.86ZM1048.82 264.812L1262.56 293.716C1262.76 293.05 1263.05 292.4 1263.43 291.78C1264.85 289.497 1267.19 288.144 1269.66 287.907L1302.11 16.2159C1301.56 16.0213 1301.02 15.765 1300.51 15.4448C1299.63 14.8978 1298.89 14.2115 1298.29 13.4321L1046.01 259.85C1047.54 261.144 1048.51 262.919 1048.82 264.812ZM1305.8 16.6298C1305.23 16.6965 1304.65 16.7036 1304.07 16.649L1271.67 287.961C1272.74 288.123 1273.8 288.501 1274.78 289.111C1275.68 289.667 1276.43 290.366 1277.03 291.162L1361.92 251.212L1305.8 16.6298ZM1388.29 352.806L1378.63 312.469L1418.18 318.192L1392.03 354.174C1391.94 354.115 1391.86 354.058 1391.77 354.002C1390.67 353.323 1389.48 352.931 1388.29 352.806ZM1394.29 356.456C1394.25 356.395 1394.21 356.336 1394.17 356.276L1430.37 319.957L1458.05 323.962C1458 324.777 1458.07 325.591 1458.26 326.378L1394.29 356.456ZM1473.29 328.829C1472.05 330.827 1470.1 332.112 1467.98 332.561L1473.42 366.043L1565.47 184.43L1432.14 318.189L1458.42 321.993C1458.62 321.351 1458.9 320.723 1459.27 320.124C1461.67 316.246 1466.75 315.051 1470.62 317.454C1474.49 319.858 1475.69 324.951 1473.29 328.829ZM1465.98 332.733C1465.75 332.725 1465.51 332.707 1465.28 332.678L1454.96 400.499C1455.28 400.502 1455.6 400.523 1455.92 400.563L1471.88 369.067L1465.98 332.733ZM1461.94 331.498C1460.62 330.68 1459.61 329.55 1458.95 328.263L1395.19 358.248C1395.8 359.957 1395.84 361.854 1395.25 363.632L1447.9 404.379C1449.08 402.487 1450.9 401.239 1452.9 400.742L1463.33 332.192C1462.85 332.008 1462.39 331.777 1461.94 331.498ZM1461.89 413.114C1461.08 414.421 1459.97 415.424 1458.7 416.087L1485.65 453.776L1473.12 376.694L1458.5 401.336C1458.56 401.367 1458.63 401.399 1458.69 401.431C1458.87 401.526 1459.05 401.629 1459.23 401.739C1463.1 404.143 1464.29 409.236 1461.89 413.114ZM1456.76 416.807C1454.82 417.259 1452.72 417.014 1450.87 415.978L1447.27 424.475L1485.56 467.785C1486.26 467.397 1487.01 467.114 1487.78 466.943L1486.37 458.223L1456.76 416.807ZM1449.22 414.761C1448.95 414.506 1448.7 414.236 1448.47 413.952L1442.36 418.915L1445.81 422.814L1449.22 414.761ZM1447.41 412.238C1447.37 412.165 1447.34 412.091 1447.31 412.018L1438.67 414.741L1440.24 416.519L1441.03 417.415L1447.41 412.238ZM1446.75 410.095C1446.54 408.825 1446.63 407.503 1447.03 406.239L1396.76 367.327L1437.22 413.099L1446.75 410.095ZM1390.66 368.622C1391.71 368.174 1392.67 367.506 1393.48 366.635L1435.13 413.757L1424.49 417.111L1421.29 417.31L1392.64 394.077L1390.66 368.622ZM1384.32 368.678C1385.74 369.258 1387.25 369.414 1388.7 369.185L1390.5 392.342L1376.12 380.68L1384.32 368.678ZM1381.88 367.14C1382.1 367.336 1382.32 367.523 1382.56 367.698L1374.56 379.416L1370.68 376.264L1381.88 367.14ZM1379.56 363.507C1379.8 364.252 1380.13 364.966 1380.57 365.623L1369.09 374.976L1360.86 368.304L1379.56 363.507ZM1379.57 358.516C1379.25 359.505 1379.13 360.528 1379.2 361.535L1358.93 366.733L1333.15 345.828L1379.57 358.516ZM1380.47 356.59C1380.45 356.617 1380.43 356.644 1380.42 356.672L1380.42 356.673L1329.29 342.699L1278.68 301.655L1380.47 356.59ZM1381.76 355.016C1383.01 353.831 1384.59 353.089 1386.24 352.848L1376.51 312.16L1278.48 297.973C1278.39 298.351 1278.28 298.725 1278.14 299.093L1381.76 355.016ZM1376.01 310.066L1278.68 295.98C1278.66 294.922 1278.44 293.876 1278.03 292.903L1362.4 253.201L1376.01 310.066ZM1054.55 267.605L1262.21 295.688C1262.14 297.024 1262.39 298.357 1262.94 299.569L1238.61 317.915L1054.55 267.605ZM1241.05 318.582L1263.99 301.284C1264.57 302.004 1265.27 302.641 1266.1 303.154C1266.65 303.499 1267.23 303.769 1267.82 303.969L1265.48 325.259L1241.05 318.582ZM1267.43 325.792L1269.79 304.37C1270.97 304.462 1272.15 304.299 1273.25 303.899L1289.06 331.703L1267.43 325.792ZM1291.78 332.447L1275.04 302.993C1275.41 302.742 1275.77 302.457 1276.1 302.142L1324.5 341.39L1291.78 332.447ZM1328.36 344.519L1356.51 367.352L1317.33 377.401L1293.17 334.903L1328.36 344.519ZM1358.45 368.922L1318.36 379.205L1332.77 404.562L1367.51 376.267L1358.45 368.922ZM1290.45 334.159L1315.33 377.916L1260.14 392.071L1267.21 327.806L1290.45 334.159ZM1316.35 379.72L1259.9 394.197L1256.23 427.565L1308.52 424.317L1331.2 405.842L1316.35 379.72ZM1265.26 327.273L1258.07 392.601L1188.41 410.468L1158.49 380.833L1239.03 320.104L1265.26 327.273ZM1257.83 394.728L1190.06 412.11L1208.65 430.522L1254.21 427.691L1257.83 394.728ZM1156.88 382.049L1186.15 411.047L1136.99 423.656L1125.94 405.373L1156.88 382.049ZM1187.81 412.688L1138.07 425.445L1143.58 434.565L1205.98 430.688L1187.81 412.688ZM1231.64 580.326C1232.47 579.858 1233.37 579.538 1234.3 579.378L1248.41 478.78C1245.26 476.72 1243.97 472.846 1245.05 469.392L1207.88 432.575L1144.75 436.498L1231.64 580.326ZM1250.2 464.063C1248.5 464.658 1246.98 465.814 1245.94 467.462L1210.56 432.409L1253.98 429.711L1250.2 464.063ZM1258.01 465.366C1257.96 465.331 1257.92 465.296 1257.87 465.262C1257.83 465.231 1257.79 465.2 1257.75 465.169C1257.69 465.125 1257.63 465.082 1257.56 465.039C1257.46 464.971 1257.36 464.906 1257.26 464.842C1255.71 463.876 1253.95 463.491 1252.26 463.628L1256.01 429.585L1305.85 426.488L1258.07 465.412L1258.01 465.366ZM1260.57 468.786C1260.29 468.099 1259.93 467.447 1259.47 466.849L1309.28 426.275L1341.67 424.263L1342.7 426.083L1328.08 447.504L1260.57 468.786ZM1261.16 472.154C1261.17 471.674 1261.15 471.196 1261.08 470.723L1326.25 450.179L1311.08 472.406L1261.16 472.154ZM1250.3 479.699C1253.84 480.893 1257.87 479.54 1259.92 476.216C1260.33 475.558 1260.64 474.864 1260.84 474.154L1309.72 474.401L1237.92 579.564C1237.4 579.417 1236.87 579.324 1236.34 579.283L1250.3 479.699ZM1240.04 580.499C1240.06 580.515 1240.09 580.531 1240.11 580.546L1240.17 580.585L1370.39 474.798L1370.34 474.706L1312.13 474.413L1239.8 580.357C1239.88 580.403 1239.96 580.45 1240.04 580.499ZM1241.73 581.895C1241.78 581.947 1241.83 581.999 1241.88 582.052C1241.91 582.094 1241.95 582.136 1241.99 582.178L1393.57 515.577L1371.4 476.562L1241.73 581.895ZM1408.18 523.658L1477.26 480.997L1411.02 510.097L1405.83 522.362C1406.38 522.556 1406.91 522.812 1407.42 523.13C1407.69 523.294 1407.94 523.47 1408.18 523.658ZM1403.85 521.924L1408.36 511.269L1401.99 514.068L1402.6 521.904C1403.01 521.879 1403.43 521.886 1403.85 521.924ZM1400.62 522.267L1400.05 514.919L1396.41 516.519L1399.84 522.555C1400.09 522.446 1400.36 522.35 1400.62 522.267ZM1621.03 123.514L1640.6 90.5279C1640.49 90.4356 1640.39 90.3407 1640.28 90.2436L1591.05 143.392L1610.85 134.076C1610.09 131.822 1610.3 129.257 1611.65 127.076C1613.66 123.83 1617.55 122.464 1621.03 123.514ZM1612.65 137.091L1586.24 163.592C1586.1 164.743 1585.71 165.882 1585.06 166.932C1583.69 169.14 1581.46 170.478 1579.07 170.778L1574.27 175.597L1560.23 225.971L1612.15 138.482L1612.66 137.095L1612.65 137.091ZM1481.54 476.929C1481.41 476.384 1481.34 475.827 1481.32 475.265L1425.89 474.986L1412.16 507.411L1481.54 476.929ZM1482.55 470.658C1482.7 470.413 1482.87 470.179 1483.04 469.955L1442.08 436.741L1426.73 472.989L1481.5 473.265C1481.69 472.366 1482.04 471.484 1482.55 470.658ZM1489.78 466.751C1490.19 466.761 1490.61 466.804 1491.03 466.879L1491.46 465.338L1488.99 461.886L1489.78 466.751ZM1497.76 474.155C1497.92 475.673 1497.66 477.246 1496.94 478.69L1506.7 486.658L1497.76 474.155ZM570.043 270.165L564.76 298.034L509.41 299.948L570.043 270.165ZM484.297 302.82L500.139 302.272L495.276 304.661L484.297 302.82ZM447.011 318.453L467.397 318.355L290.148 405.42L447.011 318.453ZM254.07 414.724L241.482 327.003C243.671 326.587 245.686 325.287 246.953 323.239C247.694 322.04 248.093 320.725 248.175 319.409L260.856 319.348L254.07 414.724ZM185.075 348.81L164.439 367.03L172.051 371.759L191.517 355.943L185.075 348.81ZM162.873 368.412L170.409 373.093L9.40944 503.909L162.873 368.412ZM248.916 419.506L173.85 372.876L192.86 357.43L248.916 419.506ZM476.098 316.311L550.517 315.953L495.58 306.741L476.098 316.311ZM1136.05 425.964L1089.39 437.932L1141.33 434.704L1136.05 425.964ZM684.352 349.874L684.722 349.97L683.55 350.256L684.352 349.874ZM1343.96 424.246L1343.89 424.125L1344.05 424.115L1343.96 424.246ZM1342.79 422.187L1345.48 422.02L1373.43 381.073L1369.09 377.554L1333.77 406.326L1342.79 422.187ZM1345.06 426.181L1346.58 423.958L1392.74 421.089L1393.2 426.975L1352.76 439.725L1345.06 426.181ZM1348.01 421.863L1392.59 419.093L1390.72 395.09L1374.99 382.337L1348.01 421.863ZM1395.16 426.358L1394.74 420.965L1416.57 419.609L1395.16 426.358ZM1395.32 428.407L1421.59 420.125L1429.65 426.661L1397.23 452.997L1395.32 428.407ZM1397.42 455.422L1431.24 427.949L1440.46 435.431L1424.57 472.978L1398.78 472.848L1397.42 455.422ZM1432.82 426.661L1441.28 433.514L1444.94 424.855L1440.81 420.177L1432.82 426.661ZM1423.72 474.975L1409.49 508.583L1401.82 511.954L1398.93 474.85L1423.72 474.975ZM1396.93 474.84L1399.88 512.805L1395.41 514.769L1372.97 475.285L1373.66 474.723L1396.93 474.84ZM1492.14 462.866L1488.26 457.44L1474.71 374.016L1554.26 239.954L1492.14 462.866ZM1556.32 232.564L1474.21 370.939L1473.96 369.392L1570.03 179.854L1571.39 178.486L1556.32 232.564ZM1472.62 373.617L1472.43 372.417L1467.11 382.905L1472.62 373.617ZM1568.39 178.663L1429.67 317.832L1429.49 317.807L1565.58 170.886L1572.27 168.465C1572.54 168.74 1572.85 168.997 1573.17 169.234L1568.39 178.663ZM1575.37 171.663L1575.69 170.497C1575.91 170.564 1576.14 170.62 1576.36 170.667L1575.37 171.663ZM1582.4 155.558C1584.39 156.796 1585.67 158.745 1586.12 160.875L1610.43 136.485L1587.42 147.314L1580.57 154.71C1581.2 154.912 1581.81 155.194 1582.4 155.558ZM1570.97 166.806C1570.75 166.443 1570.57 166.065 1570.41 165.676L1568.55 167.681L1570.97 166.806ZM1571.05 158.228C1572.63 155.662 1575.4 154.271 1578.2 154.319L1582.58 149.589L1522.73 177.754L1516.29 186.612L1564.45 169.168L1569.84 163.342C1569.68 161.612 1570.06 159.818 1571.05 158.228ZM1427.91 319.599L1427.84 319.59L1426.84 320.667L1427.91 319.599ZM1561.48 172.373L1427.09 317.459L1421.75 316.686L1514.19 189.502L1561.48 172.373ZM1425.43 319.242L1420.42 318.516L1399.7 347.021L1425.43 319.242ZM1510.83 190.718L1419.51 316.363L1378.13 310.374L1364.25 252.332L1442.84 215.349L1510.83 190.718ZM1512.94 187.828L1462.49 206.1L1518.97 179.523L1512.94 187.828ZM1558.17 233.36L1608.38 148.75L1497.67 450.485L1558.17 233.36ZM1496.64 481.03L1511.13 492.861L1553.86 552.623L1496.64 481.03ZM1394.58 418.969L1392.86 396.825L1418.34 417.493L1394.58 418.969ZM1431.24 425.373L1423.88 419.404L1424.86 419.094L1439.07 418.211L1439.48 418.676L1431.24 425.373ZM1437.39 416.31L1432.79 416.596L1436.58 415.399L1437.39 416.31ZM1442.89 434.825L1446.41 426.515L1481.26 465.941L1442.89 434.825ZM1369.2 472.699L1313.49 472.418L1329.34 449.206L1351.82 442.119L1369.2 472.699ZM1350.81 440.339L1331.17 446.531L1343.8 428.019L1350.81 440.339ZM1371.51 472.71L1353.77 441.505L1393.36 429.024L1395.35 454.529L1372.96 472.718L1371.51 472.71ZM1376.11 472.734L1395.54 456.954L1396.77 472.838L1376.11 472.734ZM1340.57 422.325L1332.2 407.606L1311.95 424.103L1340.57 422.325Z" fill="url(#paint0_linear_1841_854)" fill-opacity="0.5"/>
<defs>
<linearGradient id="paint0_linear_1841_854" x1="1864.95" y1="191.11" x2="-204.02" y2="487.218" gradientUnits="userSpaceOnUse">
<stop offset="0.445135" stop-color="#61E1C2"/>
<stop offset="1"/>
</linearGradient>
</defs>
</svg>
