<svg width="326" height="1775" viewBox="0 0 326 1775" fill="none" xmlns="http://www.w3.org/2000/svg">
<path fill-rule="evenodd" clip-rule="evenodd" d="M262.396 1733.77C260.147 1737.54 261.231 1742.44 264.918 1744.89C268.713 1747.42 273.828 1746.38 276.344 1742.57C278.859 1738.77 277.822 1733.64 274.027 1731.12C270.691 1728.91 266.333 1729.44 263.619 1732.19L143.226 1638.55L108.387 1557.89L74.0429 1478.37L309.321 1429.39C309.887 1431.06 310.99 1432.56 312.572 1433.61C316.367 1436.13 321.482 1435.09 323.997 1431.29C326.513 1427.49 325.476 1422.36 321.681 1419.84C319.363 1418.3 316.553 1418.09 314.144 1419.02L75.4169 1158.1C77.1315 1154.83 76.4495 1150.82 73.8207 1148.3L248.434 849.812C252.167 851.931 256.955 850.822 259.362 847.183C261.877 843.381 260.84 838.254 257.045 835.733C253.449 833.344 248.666 834.153 246.035 837.481L186.24 791.272L250.449 730.175C250.71 730.4 250.988 730.612 251.282 730.807C255.077 733.328 260.193 732.289 262.708 728.486C265.224 724.683 264.187 719.557 260.392 717.036C256.597 714.515 251.482 715.554 248.966 719.357C248.733 719.709 248.531 720.073 248.358 720.445L80.9094 683.236L50.5953 616.154L50.5062 593.872C53.2134 593.906 55.8816 592.605 57.4887 590.175C60.0041 586.372 58.967 581.245 55.1723 578.725C54.1073 578.017 52.9384 577.59 51.7521 577.426L80.7533 384.719C83.8523 385.222 87.1018 383.92 88.9491 381.127C91.4646 377.324 90.4275 372.198 86.6327 369.677C83.5213 367.61 79.522 367.936 76.796 370.217L14.5653 294.921L96.4078 225.124C96.8995 225.705 97.4804 226.228 98.1462 226.67C101.941 229.191 107.056 228.151 109.572 224.349C112.087 220.546 111.05 215.419 107.255 212.898C103.769 210.582 99.1677 211.271 96.4923 214.348L49.687 189.603L123.165 78.5155C126.687 79.8572 130.79 78.6329 132.959 75.3534C135.475 71.5505 134.437 66.4239 130.643 63.9031C126.848 61.3822 121.733 62.4215 119.217 66.2245C118.762 66.9131 118.423 67.6451 118.195 68.3971L-160.912 74.5328L-1.54314 24.4224L-2.14278 22.5124L-161.352 72.5727C-161.863 70.7193 -163.018 69.0352 -164.743 67.8894C-165.856 67.15 -167.083 66.7169 -168.324 66.57L-178.565 0.411971L-180.54 0.717233L-170.344 66.5807C-172.636 66.8756 -174.792 68.1292 -176.168 70.2108C-178.684 74.0137 -177.647 79.1402 -173.852 81.6611C-171.602 83.1561 -168.886 83.399 -166.525 82.5557L-69.0312 354.736C-70.9571 355.219 -72.7158 356.396 -73.8991 358.185C-76.4146 361.988 -75.3774 367.114 -71.5827 369.635C-69.1884 371.226 -66.2683 371.399 -63.8073 370.355L29.1613 667.372C27.0685 667.779 25.1337 668.995 23.8627 670.917C21.3472 674.72 22.3843 679.846 26.1791 682.367C26.6226 682.662 27.0842 682.908 27.5575 683.106L-5.30616 774.613C-5.66844 774.261 -6.06842 773.936 -6.50483 773.646C-10.2996 771.125 -15.415 772.165 -17.9305 775.968C-20.4459 779.771 -19.4089 784.897 -15.6141 787.418C-13.3077 788.95 -10.5135 789.167 -8.11157 788.248L-5.81018 799.188L-56.288 971.386C-59.394 970.872 -62.6551 972.174 -64.507 974.974C-67.0225 978.777 -65.9854 983.903 -62.1907 986.424C-59.5248 988.195 -56.2071 988.209 -53.5969 986.742L-18.2418 1034.99L-103.573 1181.09C-107.186 1179.47 -111.542 1180.65 -113.801 1184.07C-116.316 1187.87 -115.279 1193 -111.484 1195.52C-110.017 1196.49 -108.352 1196.94 -106.716 1196.89L-105.018 1251.04L-252.189 1334.3C-252.651 1333.78 -253.186 1333.32 -253.792 1332.91C-257.587 1330.39 -262.702 1331.43 -265.218 1335.23C-267.733 1339.04 -266.696 1344.16 -262.901 1346.69C-260.446 1348.32 -257.437 1348.46 -254.938 1347.32L-193.18 1501.08L-199.503 1504.44C-200.075 1503.63 -200.802 1502.91 -201.676 1502.33C-205.471 1499.81 -210.586 1500.85 -213.102 1504.65C-215.617 1508.46 -214.58 1513.58 -210.785 1516.1C-207.845 1518.06 -204.113 1517.87 -201.41 1515.92L-158.515 1590.69C-159.372 1591.28 -160.133 1592.04 -160.741 1592.96C-162.68 1595.89 -162.509 1599.61 -160.592 1602.31L-262.025 1678.76C-262.538 1678.13 -263.152 1677.56 -263.864 1677.09C-267.659 1674.57 -272.774 1675.61 -275.29 1679.41C-277.805 1683.22 -276.768 1688.34 -272.973 1690.86C-269.178 1693.38 -264.063 1692.34 -261.547 1688.54C-259.925 1686.09 -259.781 1683.09 -260.9 1680.59L-177.324 1624.36L-255.369 1714.59C-255.7 1714.28 -256.061 1713.99 -256.451 1713.73C-260.246 1711.21 -265.361 1712.25 -267.877 1716.05C-270.392 1719.86 -269.355 1724.98 -265.56 1727.5C-261.766 1730.02 -256.65 1728.99 -254.135 1725.18C-252.271 1722.36 -252.357 1718.82 -254.072 1716.15L-170.997 1620.1L-144.767 1602.45L177.122 1732.37L177.922 1732.88C175.513 1736.67 176.569 1741.71 180.321 1744.2C184.116 1746.72 189.231 1745.68 191.747 1741.88L191.789 1741.82L191.83 1741.75L223.855 1762.19C221.882 1765.9 223.011 1770.58 226.581 1772.95C230.376 1775.47 235.491 1774.43 238.007 1770.63C240.522 1766.82 239.485 1761.7 235.69 1759.18C232.95 1757.36 229.52 1757.39 226.879 1758.99L171.664 1704.39L144.873 1642.36L262.396 1733.77ZM247.74 722.358L81.9393 685.515L92.4719 708.823C95.1612 706.972 98.8114 706.829 101.698 708.747C105.492 711.268 106.53 716.394 104.014 720.197C102.766 722.084 100.878 723.291 98.828 723.72L184.638 790.034L249.104 728.692C247.81 726.857 247.318 724.559 247.74 722.358ZM49.7357 577.396L78.8177 384.152C78.3738 383.96 77.9407 383.726 77.5235 383.449C75.2857 381.962 74.0069 379.569 73.8501 377.076L40.7847 373.695L36.0711 557.522L46.7388 578.319C47.6726 577.821 48.6917 577.509 49.7357 577.396ZM45.0886 579.48L35.9641 561.692L35.4282 582.591L44.9297 603.617L47.0266 593.048C46.6979 592.888 46.376 592.704 46.063 592.496C42.2682 589.975 41.2312 584.849 43.7466 581.046C44.1364 580.457 44.5886 579.934 45.0886 579.48ZM-4.18842 785.097C-4.64235 785.783 -5.18093 786.379 -5.78114 786.881L-3.63857 791.78L21.7156 705.287L-3.86075 776.503C-2.40749 779.116 -2.42552 782.431 -4.18842 785.097ZM30.1204 683.721L-2.39146 794.631L48.3474 910.648C48.6097 910.5 48.8793 910.366 49.1547 910.248L31.8792 683.663C31.2988 683.744 30.709 683.765 30.1204 683.721ZM33.8427 683.133L49.696 891.066L48.8829 687.649L38.0544 679.281C37.9197 679.541 37.7699 679.796 37.6048 680.046C36.6525 681.486 35.3276 682.529 33.8427 683.133ZM38.8856 676.723L48.8657 683.353L48.8449 678.162L38.9644 675.966C38.9574 676.087 38.9478 676.207 38.9356 676.328C38.9221 676.46 38.9055 676.591 38.8856 676.723ZM38.8217 673.884L48.8367 676.11L48.5988 616.589L45.6766 610.122L34.1966 667.983C34.5698 668.157 34.9348 668.361 35.2884 668.595C37.1993 669.865 38.4108 671.795 38.8217 673.884ZM31.2589 667.235L33.419 582.997L-59.5533 377.26L31.2114 667.233L31.2589 667.235ZM75.2071 371.998C75.2763 371.894 75.3474 371.791 75.4205 371.691L13.0442 296.218L5.66981 302.508L36.4776 343.055C38.9876 341.893 42.0221 342.024 44.4956 343.667C48.2904 346.188 49.3274 351.314 46.812 355.117C45.4715 357.144 43.3926 358.386 41.1687 358.722L40.8362 371.688L73.967 375.076C74.1614 374.008 74.5705 372.961 75.2071 371.998ZM-60.9637 368.347L34.1674 553.81L38.7911 373.491L-58.8181 363.511C-58.9385 364.828 -59.3769 366.134 -60.1571 367.314C-60.4024 367.685 -60.6725 368.029 -60.9637 368.347ZM-59.2134 360.118L31.7269 349.837C31.8413 348.505 32.2808 347.181 33.0699 345.988C33.5513 345.261 34.128 344.634 34.7724 344.114L4.14654 303.807L-59.9662 358.484C-59.6549 359.002 -59.4032 359.551 -59.2134 360.118ZM-62.6204 355.768L-13.1731 281.012L-164.674 81.6172L-164.726 81.6523L-66.9986 354.487C-65.4961 354.491 -63.9784 354.906 -62.6204 355.768ZM95.3647 216.014L48.578 191.279L-4.62072 271.707L13.2903 293.379L95.3044 223.435C94.1822 221.146 94.1453 218.391 95.3647 216.014ZM121.389 77.5763C118.978 75.9018 117.728 73.1569 117.852 70.4071L-161.243 76.5424C-161.341 76.9918 -161.477 77.4365 -161.653 77.8717L47.9103 188.664L121.389 77.5763ZM-162.987 80.092L-5.95266 270.096L46.8014 190.34L-162.622 79.6224L-162.659 79.6737L-162.7 79.7285L-162.718 79.7531C-162.805 79.869 -162.895 79.982 -162.987 80.092ZM-51.987 985.558L-17.1427 1033.11L27.3684 956.907L22.8782 935.562L-50.0058 976.409C-49.0098 978.855 -49.199 981.735 -50.765 984.103C-51.1234 984.645 -51.5345 985.13 -51.987 985.558ZM-50.9799 974.661L22.4464 933.509L-4.93991 803.325L-54.3706 971.951C-53.9285 972.143 -53.497 972.376 -53.0814 972.653C-52.2437 973.209 -51.5403 973.893 -50.9799 974.661ZM-101.86 1182.12C-100.849 1182.91 -100.067 1183.89 -99.5321 1184.99L59.8699 1154.22C59.8761 1152.66 60.3208 1151.09 61.2432 1149.7C61.9587 1148.62 62.8845 1147.76 63.9304 1147.14L-16.9532 1036.75L-101.86 1182.12ZM-100.059 1193.2C-100.148 1193.33 -100.24 1193.46 -100.336 1193.59L-72.7396 1232.78L60.491 1157.41C60.332 1157.02 60.2029 1156.62 60.1043 1156.21L-98.8705 1186.9C-98.4203 1189 -98.7816 1191.27 -100.059 1193.2ZM-101.746 1195.06C-102.159 1195.39 -102.599 1195.68 -103.06 1195.93L-92.3571 1243.88L-74.4876 1233.77L-101.746 1195.06ZM72.2095 1147.09L246.818 848.615C246.099 847.934 245.524 847.143 245.102 846.286L60.4773 916.172C60.9056 918.252 60.5384 920.496 59.275 922.406C57.6891 924.804 55.0699 926.103 52.3997 926.104L70.143 1146.25C70.8526 1146.43 71.5479 1146.71 72.2095 1147.09ZM244.44 844.396L59.8399 914.273C59.553 913.671 59.1916 913.1 58.7587 912.576L184.775 792.667L244.986 839.198C244.228 840.862 244.065 842.687 244.44 844.396ZM183.173 791.429L57.3042 911.198C57.1916 911.115 57.0764 911.034 56.9586 910.956C55.955 910.289 54.8591 909.872 53.7433 909.688L93.1895 722.882C93.9587 723.305 94.7708 723.592 95.5964 723.75L183.173 791.429ZM51.7673 909.372L91.4214 721.582C90.6973 720.884 90.1218 720.073 89.7044 719.196L50.8872 689.198L51.7673 909.372ZM88.9097 716.055C88.8515 714.931 89.0211 713.79 89.4333 712.703L54.8119 689.704L88.9097 716.055ZM90.3696 710.924C90.5396 710.678 90.7207 710.444 90.9118 710.223L79.5018 684.974L50.8449 678.606L50.8692 684.684L90.3696 710.924ZM-3.26669 797.617L46.7021 911.873C46.2704 912.288 45.8773 912.757 45.5329 913.277C43.9625 915.652 43.7768 918.542 44.7821 920.992L24.2728 932.486L-3.75117 799.27L-3.26669 797.617ZM24.7046 934.538L45.761 922.738C46.0395 923.117 46.353 923.476 46.7006 923.809L28.8695 954.337L24.7046 934.538ZM29.4827 957.252L48.3125 925.014C48.9729 925.393 49.6667 925.671 50.3748 925.851L67.4532 1137.75L29.4827 957.252ZM67.1586 1146.06L27.9816 959.822L-15.8541 1034.87L65.8128 1146.33C66.2531 1146.2 66.7033 1146.11 67.1586 1146.06ZM61.469 1159.15L-71.5815 1234.43L-49.5483 1265.72L61.7672 1159.54C61.7428 1159.51 61.7186 1159.48 61.6947 1159.45C61.6171 1159.35 61.5418 1159.25 61.469 1159.15ZM63.2238 1160.91L-48.3835 1267.37L9.00648 1348.87L65.9529 1162.24C65.1234 1162.01 64.3153 1161.65 63.5596 1161.15C63.4451 1161.07 63.3332 1160.99 63.2238 1160.91ZM69.2151 1162.45L33.8706 1375.66C34.5281 1375.89 35.1679 1376.2 35.7741 1376.6C38.008 1378.09 39.2862 1380.47 39.4466 1382.96L309.437 1423.74C309.648 1423.2 309.92 1422.67 310.255 1422.16C310.828 1421.3 311.535 1420.57 312.331 1420L74.2494 1159.78C72.9118 1161.28 71.1119 1162.19 69.2151 1162.45ZM308.912 1427.43C308.863 1426.85 308.874 1426.27 308.946 1425.69L39.3317 1384.97C39.1377 1386.04 38.7284 1387.09 38.0905 1388.05C37.5086 1388.93 36.7875 1389.66 35.9759 1390.24L73.2326 1476.49L308.912 1427.43ZM-28.8986 1499.8L11.6269 1491.37L4.71231 1530.81L-30.3772 1503.51C-30.3592 1503.49 -30.3413 1503.46 -30.3236 1503.44L-30.306 1503.41C-30.2693 1503.36 -30.2332 1503.31 -30.1976 1503.25C-29.4872 1502.18 -29.0602 1501 -28.8986 1499.8ZM-32.7225 1505.71C-32.6606 1505.67 -32.5993 1505.63 -32.5383 1505.59L2.58117 1542.96L-2.25805 1570.57C-3.06835 1570.49 -3.88253 1570.54 -4.67313 1570.7L-32.7225 1505.71ZM-7.57515 1585.68C-9.53016 1584.38 -10.7532 1582.39 -11.1357 1580.25L-44.6974 1584.67L133.64 1682.42L4.29126 1544.78L-0.30361 1570.99C0.330811 1571.22 0.948202 1571.52 1.53408 1571.91C5.32885 1574.43 6.36593 1579.56 3.85049 1583.36C1.33506 1587.16 -3.78037 1588.2 -7.57515 1585.68ZM-11.247 1578.24C-11.2315 1578.01 -11.206 1577.77 -11.1703 1577.54L-78.4994 1565.14C-78.5073 1565.34 -78.5226 1565.54 -78.5454 1565.75L-78.5546 1565.82L-78.5627 1565.89C-78.5718 1565.96 -78.5818 1566.03 -78.5927 1566.1L-47.6668 1583.05L-11.247 1578.24ZM-9.89154 1574.23C-9.03539 1572.94 -7.87804 1571.96 -6.57413 1571.34L-34.5362 1506.55C-36.2592 1507.11 -38.1524 1507.09 -39.907 1506.45L-82.1532 1557.94C-80.3023 1559.18 -79.1129 1561.05 -78.6785 1563.07L-10.6261 1575.6C-10.4285 1575.13 -10.184 1574.67 -9.89154 1574.23ZM-91.2921 1571.7C-92.5717 1570.85 -93.5377 1569.7 -94.1597 1568.41L-132.571 1594.25L-55.3088 1584.06L-79.4418 1568.66C-79.57 1568.9 -79.7115 1569.14 -79.8665 1569.37C-82.3819 1573.18 -87.4973 1574.22 -91.2921 1571.7ZM-94.8191 1566.44C-95.211 1564.49 -94.903 1562.39 -93.8121 1560.57L-102.176 1556.71L-146.541 1593.74C-146.176 1594.45 -145.917 1595.21 -145.77 1595.99L-137.031 1594.84L-94.8191 1566.44ZM-92.5492 1558.95C-92.2867 1558.69 -92.0091 1558.44 -91.7188 1558.22L-96.4822 1551.95L-100.476 1555.29L-92.5492 1558.95ZM-89.9776 1557.21C-89.9037 1557.18 -89.8292 1557.15 -89.7544 1557.12L-92.2069 1548.39L-94.0268 1549.9L-94.9461 1550.67L-89.9776 1557.21ZM-87.8197 1556.62C-86.5473 1556.45 -85.2319 1556.58 -83.9837 1557.02L-43.646 1507.85L-90.5256 1546.98L-87.8197 1556.62ZM-44.7453 1501.7C-44.3308 1502.77 -43.6938 1503.75 -42.8501 1504.58L-91.1184 1544.87L-94.1384 1534.11L-94.2391 1530.9L-70.193 1502.91L-44.7453 1501.7ZM-44.6072 1495.34C-45.2294 1496.75 -45.4317 1498.26 -45.2477 1499.72L-68.398 1500.82L-56.3272 1486.77L-44.6072 1495.34ZM-43.3012 1493.28C-43.3958 1493.39 -43.4879 1493.5 -43.5774 1493.62L-55.02 1485.25L-51.7575 1481.45L-42.999 1492.95C-43.1023 1493.06 -43.2031 1493.17 -43.3012 1493.28ZM-39.3059 1490.74C-40.0563 1490.95 -40.7784 1491.27 -41.4475 1491.69L-50.4257 1479.9L-43.5191 1471.86L-39.3059 1490.74ZM-34.3283 1490.9C-35.3046 1490.55 -36.3218 1490.4 -37.3271 1490.43L-41.8941 1469.97L-20.2594 1444.79L-34.3283 1490.9ZM-32.4354 1491.86C-32.4615 1491.84 -32.4877 1491.82 -32.514 1491.8L-17.0184 1441.01L25.4542 1391.57L-32.4354 1491.86ZM-30.9034 1493.2C-29.7595 1494.49 -29.0679 1496.09 -28.8778 1497.75L11.999 1489.24L29.1378 1391.48C28.7644 1391.39 28.395 1391.26 28.0327 1391.11L-30.9034 1493.2ZM14.105 1488.81L31.1203 1391.75C32.1763 1391.76 33.2263 1391.57 34.2094 1391.19L71.2356 1476.91L14.105 1488.81ZM66.2511 1168.11L31.9127 1375.25C30.583 1375.14 29.245 1375.36 28.0199 1375.87L10.4646 1350.94L66.2511 1168.11ZM9.72564 1353.36L26.2787 1376.87C25.5421 1377.42 24.8859 1378.11 24.3484 1378.92C23.9879 1379.47 23.7003 1380.04 23.4834 1380.63L2.32099 1377.63L9.72564 1353.36ZM1.72971 1379.57L23.0236 1382.58C22.8954 1383.76 23.0225 1384.95 23.3877 1386.07L-4.82429 1401.05L1.72971 1379.57ZM-5.64956 1403.75L24.2369 1387.88C24.4761 1388.26 24.7483 1388.63 25.0525 1388.97L-15.5657 1436.25L-5.64956 1403.75ZM-18.8067 1440.03L-42.438 1467.53L-51.2663 1427.98L-8.14356 1405.08L-18.8067 1440.03ZM-44.063 1469.42L-53.0965 1428.95L-78.8266 1442.62L-51.6652 1478.27L-44.063 1469.42ZM-7.31828 1402.37L-51.7185 1425.95L-64.1536 1370.24L-0.273643 1379.29L-7.31828 1402.37ZM-53.5488 1426.93L-66.2676 1369.94L-99.4359 1365.25L-97.7897 1417.72L-80.0558 1441L-53.5488 1426.93ZM0.317606 1377.35L-64.6195 1368.15L-80.3157 1297.83L-49.8458 1268.77L8.26751 1351.29L0.317606 1377.35ZM-66.7335 1367.85L-82.0036 1299.44L-100.934 1317.5L-99.4996 1363.21L-66.7335 1367.85ZM-51.0106 1267.11L-80.8246 1295.55L-91.9014 1245.92L-73.3296 1235.42L-51.0106 1267.11ZM-82.5125 1297.16L-93.719 1246.95L-102.982 1252.19L-101.018 1314.81L-82.5125 1297.16ZM-251.047 1335.96C-250.605 1336.8 -250.314 1337.72 -250.182 1338.66L-150.278 1355.85C-148.128 1352.76 -144.225 1351.58 -140.813 1352.77L-102.959 1316.66L-104.947 1253.3L-251.047 1335.96ZM-135.654 1358.1C-136.195 1356.37 -137.302 1354.81 -138.914 1353.72L-102.875 1319.35L-101.508 1362.93L-135.654 1358.1ZM-137.24 1365.93C-137.029 1365.68 -136.831 1365.42 -136.647 1365.14C-135.636 1363.61 -135.198 1361.87 -135.284 1360.17L-101.444 1364.96L-99.8747 1414.99L-137.24 1365.93ZM-140.681 1368.33C-139.988 1368.08 -139.326 1367.73 -138.715 1367.29L-99.7668 1418.43L-98.7471 1450.93L-100.595 1451.91L-121.513 1436.61L-140.681 1368.33ZM-144.058 1368.82C-143.58 1368.85 -143.102 1368.84 -142.629 1368.79L-124.124 1434.7L-145.831 1418.82L-144.058 1368.82ZM-151.252 1357.71C-152.551 1361.23 -151.325 1365.3 -148.072 1367.46C-147.428 1367.89 -146.745 1368.22 -146.044 1368.44L-147.78 1417.4L-250.479 1342.27C-250.316 1341.75 -250.207 1341.22 -250.15 1340.69L-151.252 1357.71ZM-251.476 1344.36C-251.505 1344.41 -251.535 1344.45 -251.566 1344.5L-150.027 1478.16L-149.933 1478.11L-147.866 1419.81L-251.327 1344.13C-251.375 1344.21 -251.424 1344.29 -251.476 1344.36ZM-253.054 1346.14L-253.099 1346.17L-253.141 1346.21C-253.164 1346.23 -253.187 1346.24 -253.21 1346.26L-191.405 1500.14L-151.816 1479.11L-252.919 1346.02C-252.964 1346.06 -253.009 1346.1 -253.054 1346.14ZM-199.91 1514.52L-159.464 1585.02L-186.471 1517.78L-198.545 1512.21C-198.755 1512.75 -199.026 1513.28 -199.36 1513.78C-199.392 1513.83 -199.426 1513.88 -199.459 1513.93L-199.515 1514.01C-199.641 1514.19 -199.773 1514.36 -199.91 1514.52ZM-198.048 1510.23L-187.557 1515.08L-190.155 1508.61L-197.99 1508.98C-197.978 1509.4 -197.997 1509.82 -198.048 1510.23ZM-198.291 1506.99L-190.945 1506.64L-192.43 1502.95L-198.555 1506.2C-198.543 1506.23 -198.532 1506.26 -198.521 1506.29C-198.507 1506.33 -198.493 1506.37 -198.479 1506.4C-198.409 1506.6 -198.346 1506.79 -198.291 1506.99ZM192.697 1739.93L225 1760.54C225.096 1760.44 225.194 1760.33 225.294 1760.23L173.784 1709.29L182.473 1729.41C184.745 1728.72 187.297 1729.01 189.43 1730.43C192.607 1732.54 193.851 1736.48 192.697 1739.93ZM179.412 1731.13L153.787 1703.86C152.643 1703.68 151.518 1703.26 150.49 1702.58C148.329 1701.14 147.062 1698.86 146.836 1696.46L142.177 1691.51L92.3567 1675.91L178.039 1730.58L179.406 1731.13L179.412 1731.13ZM-155.54 1589.43C-154.993 1589.32 -154.434 1589.26 -153.874 1589.26L-151.905 1533.74L-183.827 1519L-155.54 1589.43ZM-148.814 1591C-148.752 1591.05 -148.691 1591.09 -148.63 1591.14L-114.254 1551.13L-149.938 1534.65L-151.883 1589.5C-150.993 1589.72 -150.124 1590.1 -149.316 1590.64C-149.143 1590.75 -148.975 1590.87 -148.814 1591ZM-145.639 1597.99C-145.662 1598.41 -145.717 1598.83 -145.805 1599.24L-144.283 1599.72L-140.765 1597.35L-145.639 1597.99ZM-153.267 1605.76C-154.787 1605.87 -156.347 1605.57 -157.765 1604.8L-166.006 1614.33L-153.267 1605.76ZM78.472 682.695L50.8367 676.554L50.6148 621.05L78.472 682.695ZM48.5157 595.812L48.5792 611.693L46.3456 606.75L48.5157 595.812ZM34.0604 557.98L33.5367 578.405L-47.9033 398.187L34.0604 557.98ZM-56.0789 361.779L31.7986 351.844C32.1474 354.05 33.3823 356.107 35.3863 357.439C36.5594 358.218 37.8587 358.657 39.1683 358.779L38.8426 371.485L-56.0789 361.779ZM11.7693 294.676L-5.77353 273.45L-10.7229 280.933L4.45727 300.912L11.7693 294.676ZM-7.10547 271.838L-12.0048 279.245L-137.591 113.958L-7.10547 271.838ZM-60.6844 356.466L-11.8912 282.699L2.93406 302.211L-60.6844 356.466ZM35.3105 587.183L33.3988 661.734L44.2607 606.989L35.3105 587.183ZM-4.51376 794.765L-4.87026 793.95L-4.62152 795.133L-4.51376 794.765ZM-94.1748 1244.91L-104.689 1197.8L-103.053 1249.93L-94.1748 1244.91ZM-98.8001 1453.22L-98.6772 1453.16L-98.6722 1453.32L-98.8001 1453.22ZM-96.7107 1452.11L-96.6261 1454.81L-56.6396 1484.06L-52.9969 1479.82L-80.6155 1443.57L-96.7107 1452.11ZM-100.763 1454.27L-98.5926 1455.85L-97.1391 1502.19L-103.023 1502.47L-114.506 1461.57L-100.763 1454.27ZM-96.5465 1457.35L-95.143 1502.09L-71.1475 1500.95L-57.9467 1485.59L-96.5465 1457.35ZM-102.468 1504.44L-97.0763 1504.19L-96.389 1526.1L-102.468 1504.44ZM-104.516 1504.54L-97.0567 1531.11L-103.823 1538.99L-129.101 1505.71L-104.516 1504.54ZM-131.524 1505.82L-105.155 1540.54L-112.899 1549.55L-149.861 1532.48L-148.945 1506.65L-131.524 1505.82ZM-103.917 1542.17L-111.011 1550.42L-102.487 1554.36L-97.6939 1550.36L-103.917 1542.17ZM-151.829 1531.58L-184.914 1516.3L-188.042 1508.51L-150.948 1506.75L-151.829 1531.58ZM-150.877 1504.74L-188.832 1506.54L-190.655 1502.01L-150.589 1480.73L-150.051 1481.44L-150.877 1504.74ZM-141.836 1600.48L-136.305 1596.76L-52.6864 1585.73L78.604 1669.5L-141.836 1600.48ZM85.9046 1671.79L-49.6052 1585.32L-48.0518 1585.12L138.06 1687.12L139.385 1688.53L85.9046 1671.79ZM-52.2277 1583.65L-51.0211 1583.49L-61.3448 1577.83L-52.2277 1583.65ZM139.297 1685.52L4.72253 1542.32L4.75371 1542.15L147.14 1682.95L149.351 1689.72C149.068 1689.99 148.802 1690.28 148.555 1690.6L139.297 1685.52ZM146.064 1692.72L147.22 1693.08C147.147 1693.3 147.083 1693.53 147.03 1693.75L146.064 1692.72ZM161.915 1700.26C160.62 1702.21 158.636 1703.44 156.497 1703.82L180.086 1728.92L169.984 1705.54L162.817 1698.45C162.596 1699.07 162.297 1699.68 161.915 1700.26ZM151.045 1688.47C151.414 1688.26 151.797 1688.09 152.19 1687.94L150.245 1686.02L151.045 1688.47ZM159.599 1688.81C162.11 1690.47 163.413 1693.28 163.279 1696.09L167.864 1700.63L141.596 1639.81L132.957 1633.09L148.888 1681.86L154.533 1687.45C156.264 1687.34 158.042 1687.77 159.599 1688.81ZM3.01251 1540.5L3.02447 1540.44L1.94794 1539.37L3.01251 1540.5ZM145.783 1678.79L5.17378 1539.75L6.10701 1534.43L130.139 1630.9L145.783 1678.79ZM3.44454 1538.04L4.32145 1533.04L-23.4876 1511.41L3.44454 1538.04ZM129.03 1627.5L6.49785 1532.2L13.7329 1490.93L72.046 1478.79L106.535 1558.64L129.03 1627.5ZM131.848 1629.7L115.159 1578.6L139.948 1636L131.848 1629.7ZM85.0561 1673.62L167.921 1726.5L-129.676 1606.39L85.0561 1673.62ZM-160.096 1604.44L-172.333 1618.59L-233.22 1659.55L-160.096 1604.44ZM-95.0801 1504.09L-72.9425 1503.04L-94.3321 1527.94L-95.0801 1504.09ZM-102.585 1540.62L-96.4071 1533.42L-96.128 1534.42L-95.6807 1548.68L-96.1578 1549.08L-102.585 1540.62ZM-93.7325 1547.05L-93.8773 1542.44L-92.7998 1546.27L-93.7325 1547.05ZM-112.366 1552L-104.187 1555.78L-144.565 1589.48L-112.366 1552ZM-147.895 1477.03L-145.917 1421.24L-123.249 1437.82L-116.866 1460.55L-147.895 1477.03ZM-115.06 1459.59L-120.637 1439.73L-102.558 1452.95L-115.06 1459.59ZM-147.977 1479.34L-116.312 1462.52L-105.071 1502.56L-130.571 1503.78L-148.028 1480.79L-147.977 1479.34ZM-148.14 1483.95L-132.993 1503.89L-148.874 1504.64L-148.14 1483.95ZM-96.7807 1449.89L-81.8447 1441.95L-97.6818 1421.16L-96.7807 1449.89Z" fill="url(#paint0_linear_1841_887)" fill-opacity="0.6"/>
<defs>
<linearGradient id="paint0_linear_1841_887" x1="117.843" y1="1982.2" x2="-116.668" y2="-99.0443" gradientUnits="userSpaceOnUse">
<stop offset="0.445135" stop-color="#61E1C2"/>
<stop offset="1"/>
</linearGradient>
</defs>
</svg>
