<svg width="1203" height="137" viewBox="0 0 1203 137" fill="none" xmlns="http://www.w3.org/2000/svg">
<path fill-rule="evenodd" clip-rule="evenodd" d="M98.498 131.853V47.3557C98.498 32.3752 102.15 20.7374 109.455 12.4425C116.883 4.14749 127.407 0 141.025 0C154.768 0 165.291 3.34275 172.596 10.0283C180.024 16.7138 183.738 26.123 183.738 38.256C183.738 46.0557 181.881 52.4317 178.167 57.3839C174.453 62.3362 168.139 66.236 159.225 69.0836V69.8264C168.51 73.4168 174.7 78.5547 177.796 85.2402C181.014 91.8019 182.624 102.697 182.624 117.925V131.853H165.167V108.082C165.167 98.6731 162.506 91.3686 157.182 86.1687C151.858 80.8451 144.182 78.1833 134.154 78.1833H124.126V61.8409H134.711C146.597 61.8409 154.83 59.4267 159.41 54.5983C163.991 49.7699 166.282 44.0129 166.282 37.3274C166.282 31.0133 163.991 25.9373 159.41 22.0993C154.953 18.2613 149.011 16.3423 141.582 16.3423C133.04 16.3423 126.602 18.7566 122.269 23.585C118.059 28.4134 115.955 36.337 115.955 47.3557V131.853H98.498ZM0 66.8551C0.123806 46.1795 5.81887 30.2086 17.0852 18.9423C28.4753 7.55214 44.1367 1.85708 64.0694 1.85708H76.1405V18.1994H61.8409C48.0985 18.1994 37.5131 22.7802 30.0848 31.9419C22.7802 40.9797 19.0042 52.6174 18.7566 66.8551C19.0042 81.0927 22.7802 92.7923 30.0848 101.954C37.5131 110.992 48.0985 115.511 61.8409 115.511H76.1405V131.853H64.0694C44.1367 131.853 28.4753 126.22 17.0852 114.954C5.81887 103.563 0.123806 87.5306 0 66.8551ZM205.135 131.853H279.047V115.511H222.592V72.7977H265.491V56.4554H222.592V35.2846C222.592 23.8945 229.401 18.1994 243.02 18.1994H279.047V1.85708H245.434C238.253 1.85708 232.187 2.41421 227.235 3.52846C222.282 4.64271 217.825 7.05692 213.864 10.7711C208.045 16.3423 205.135 23.7088 205.135 32.8704V131.853ZM315.04 131.853H298.512V50.1413C298.512 36.7703 302.783 25.3802 311.326 15.9709C319.992 6.5617 331.135 1.85708 344.753 1.85708H387.281V131.853H369.824V18.1994H344.753C335.715 18.1994 328.473 20.8613 323.025 26.1849C317.702 31.5085 315.04 39.9892 315.04 51.627V67.4122C321.973 60.1077 331.878 56.4554 344.753 56.4554H361.653V72.7977H344.753C337.573 72.7977 331.692 73.6644 327.111 75.3977C322.654 77.1309 318.63 80.1023 315.04 84.3117V131.853ZM404.997 1.85708V18.1994H437.124V131.853H454.581V18.1994H486.709V1.85708H404.997ZM521.851 131.853H504.394V1.85708H521.851V131.853ZM557.661 1.85704H539.09L591.436 136.496L641.229 1.85704H622.659L590.16 85.4259L557.661 1.85704ZM729.702 131.853H655.79V115.511H712.246V72.7977H669.347V56.4553H712.246V35.2846C712.246 23.8944 705.437 18.1994 691.818 18.1994H655.79V1.85703H689.404C696.584 1.85703 702.651 2.41416 707.603 3.52841C712.555 4.64266 717.012 7.05687 720.974 10.771C726.793 16.3423 729.702 23.7087 729.702 32.8704V131.853ZM1203 1.85703H761.943V136.496L901.223 136.496H910.509L1203 136.496V1.85703ZM923.104 110.406C927.832 112.263 932.98 113.282 938.367 113.282C961.444 113.282 980.152 94.5746 980.152 71.4977C980.152 56.0641 971.784 42.5848 959.338 35.349L923.104 110.406ZM951.721 31.8927C947.528 30.4794 943.037 29.7133 938.367 29.7133C915.29 29.7133 896.583 48.4208 896.583 71.4977C896.583 86.204 904.18 99.1357 915.664 106.582L951.721 31.8927ZM829.63 113.282H813.014V29.7133H871.17C871.17 29.7133 880.701 37.0507 883.632 43.6414C887.447 52.2198 888.609 59.5051 883.632 67.5182C880.392 72.7336 871.17 77.4669 871.17 77.4669L891.94 113.282H875.324L852.477 77.4669V67.5182H867.016C876.155 61.5491 876.155 51.6004 867.016 45.6312H829.63V113.282ZM1026.58 113.282C1049.66 113.282 1068.36 94.5746 1068.36 71.4977C1068.36 48.4208 1049.66 29.7133 1026.58 29.7133C1003.5 29.7133 984.794 48.4208 984.794 71.4977C984.794 94.5746 1003.5 113.282 1026.58 113.282ZM1088.92 113.282H1073V29.7133H1092.9L1112.8 79.8546H1116.78L1136.68 29.7133H1156.57V113.282H1140.65V58.9624H1136.68L1116.78 113.282H1112.8L1092.9 58.9624H1088.92V113.282Z" fill="black"/>
</svg>
