<svg width="556" height="301" viewBox="0 0 556 301" fill="none" xmlns="http://www.w3.org/2000/svg">
<path fill-rule="evenodd" clip-rule="evenodd" d="M182.384 140.159H150.919L219.569 0H225.29L291.079 140.159H222.429V117.276H251.033L222.429 57.2079L182.384 140.159ZM34.1203 70.0796H60.4002V116.799H86.68C86.68 116.799 93.4598 115.011 95.44 113.879C97.6539 112.614 99.82 110.959 99.82 110.959L19.5204 2.39208e-06H86.68C86.68 2.39208e-06 149.46 7.29996 150.92 70.0796C152.38 132.859 86.68 140.159 86.68 140.159H34.1203V70.0796ZM69.1595 23.3599L121.719 93.4395C121.719 93.4395 129.578 64.8326 121.719 49.6397C116.533 39.613 111.177 34.6278 101.279 29.1998C90.1007 23.0696 69.1595 23.3599 69.1595 23.3599ZM329.038 140.159H302.758V84.6796H340.718L291.078 0H358.238C358.238 0 393.278 2.91999 403.498 40.8798C413.717 78.8396 381.598 99.2795 381.598 99.2795L407.878 140.159H375.758L355.318 108.039H329.038V140.159ZM366.999 78.8396L334.879 26.2798H355.319C355.319 26.2798 371.379 26.2798 378.679 46.7197C385.979 67.1596 366.999 78.8396 366.999 78.8396ZM453.546 0H428.318V140.159L470.366 86.8988L504.004 134.553H534.839L487.185 65.8749L534.839 0H504.004L453.546 70.0796V0ZM37.0401 291.999H63.32V259.879H89.5999L110.04 291.999H142.16L115.88 251.119C115.88 251.119 148 230.679 137.78 192.719C127.56 154.759 92.5198 151.839 92.5198 151.839H25.3602L74.9999 236.519H37.0401V291.999ZM69.1595 178.119L101.279 230.679C101.279 230.679 120.259 218.999 112.959 198.559C105.659 178.119 89.5994 178.119 89.5994 178.119H69.1595ZM243.594 271.909C235.517 277.49 225.72 280.758 215.159 280.758C187.501 280.758 165.08 258.337 165.08 230.679C165.08 219.105 169.006 208.447 175.6 199.967L243.594 271.909ZM254.526 261.638L186.468 189.628C194.593 183.938 204.487 180.599 215.159 180.599C236.123 180.599 254.079 193.48 261.542 211.76C259.859 217.778 258.959 224.123 258.959 230.679C258.959 237.234 259.859 243.58 261.542 249.598C259.765 253.951 257.392 257.998 254.526 261.638ZM272.099 271.542C259.378 289.236 238.615 300.758 215.159 300.758C176.456 300.758 145.08 269.383 145.08 230.679C145.08 191.975 176.456 160.599 215.159 160.599C238.615 160.599 259.378 172.122 272.099 189.816C284.819 172.122 305.583 160.599 329.038 160.599C367.742 160.599 399.118 191.975 399.118 230.679C399.118 269.383 367.742 300.758 329.038 300.758C305.583 300.758 284.819 289.236 272.099 271.542ZM282.656 249.598C284.837 254.941 287.916 259.824 291.704 264.058L356.888 189.051C348.925 183.713 339.345 180.599 329.038 180.599C308.074 180.599 290.119 193.48 282.656 211.76C284.339 217.778 285.239 224.123 285.239 230.679C285.239 237.234 284.339 243.58 282.656 249.598ZM329.038 280.758C319.611 280.758 310.792 278.154 303.262 273.624L367.966 199.171C374.94 207.776 379.118 218.74 379.118 230.679C379.118 258.337 356.697 280.758 329.038 280.758ZM415.398 160.599L434.25 155.948L470.512 224.962L505.544 156.067L524.458 160.599V300.758H504.458V202.329L479.572 251.271L470.803 268.515L461.805 251.39L435.398 201.131V300.758H415.398V160.599ZM0 297.838V2.91994H4V297.838H0ZM551.878 2.91994V297.838H555.878V2.91994H551.878Z" fill="url(#paint0_linear_1849_6621)"/>
<defs>
<linearGradient id="paint0_linear_1849_6621" x1="277.939" y1="0" x2="277.939" y2="300.758" gradientUnits="userSpaceOnUse">
<stop stop-color="white"/>
<stop offset="1" stop-color="white"/>
</linearGradient>
</defs>
</svg>
