<svg width="264" height="61" viewBox="0 0 264 61" fill="none" xmlns="http://www.w3.org/2000/svg">
<path d="M0.00341797 10C0.00341797 4.47715 4.48057 0 10.0034 0H253.003C258.526 0 263.003 4.47715 263.003 10V51C263.003 56.5229 258.526 61 253.003 61H10.0034C4.48057 61 0.00341797 56.5228 0.00341797 51V10Z" fill="black"/>
<path d="M69.6141 17.512C72.5075 17.512 74.7195 18.3707 76.2501 20.088C77.7808 21.8053 78.5461 24.1947 78.5461 27.256C78.5461 30.3173 77.7808 32.7067 76.2501 34.424C74.7195 36.1413 72.5075 37 69.6141 37H63.0341V17.512H69.6141ZM69.8101 34.648C71.8261 34.648 73.3381 33.9947 74.3461 32.688C75.3728 31.3627 75.8861 29.552 75.8861 27.256C75.8861 24.96 75.3728 23.1587 74.3461 21.852C73.3381 20.5267 71.8261 19.864 69.8101 19.864H65.4981V34.648H69.8101ZM83.7058 19.864V26.024H92.2458V28.264H83.7058V34.648H92.8618V37H81.2418V17.512H92.8618V19.864H83.7058ZM89.3338 10.988H92.4698L88.5498 15.104H86.2818L89.3338 10.988ZM103.604 37.336C101.719 37.336 100.113 36.916 98.7879 36.076C97.4813 35.236 96.4919 34.06 95.8199 32.548C95.1666 31.036 94.8399 29.272 94.8399 27.256C94.8399 25.24 95.1666 23.476 95.8199 21.964C96.4919 20.452 97.4813 19.276 98.7879 18.436C100.113 17.596 101.719 17.176 103.604 17.176C104.631 17.176 105.62 17.3067 106.572 17.568C107.524 17.8107 108.392 18.1747 109.176 18.66V21.46H109.064C108.448 20.8627 107.673 20.3867 106.74 20.032C105.807 19.6587 104.789 19.472 103.688 19.472C101.56 19.472 99.9919 20.1627 98.9839 21.544C97.9946 22.9253 97.4999 24.8293 97.4999 27.256C97.4999 29.7013 97.9946 31.6147 98.9839 32.996C99.9919 34.3773 101.551 35.068 103.66 35.068C104.724 35.068 105.723 34.8907 106.656 34.536C107.608 34.1813 108.411 33.6867 109.064 33.052H109.176V35.852C108.392 36.3373 107.524 36.7107 106.572 36.972C105.62 37.2147 104.631 37.336 103.604 37.336ZM120.284 37.336C118.399 37.336 116.784 36.916 115.44 36.076C114.115 35.236 113.098 34.06 112.388 32.548C111.698 31.036 111.352 29.272 111.352 27.256C111.352 25.24 111.698 23.476 112.388 21.964C113.098 20.452 114.115 19.276 115.44 18.436C116.784 17.596 118.399 17.176 120.284 17.176C122.17 17.176 123.775 17.596 125.1 18.436C126.444 19.276 127.462 20.452 128.152 21.964C128.862 23.476 129.216 25.24 129.216 27.256C129.216 29.272 128.862 31.036 128.152 32.548C127.462 34.06 126.444 35.236 125.1 36.076C123.775 36.916 122.17 37.336 120.284 37.336ZM120.284 35.096C122.375 35.096 123.943 34.396 124.988 32.996C126.034 31.5773 126.556 29.664 126.556 27.256C126.556 24.848 126.034 22.944 124.988 21.544C123.943 20.1253 122.375 19.416 120.284 19.416C118.194 19.416 116.626 20.1253 115.58 21.544C114.535 22.944 114.012 24.848 114.012 27.256C114.012 29.664 114.535 31.5773 115.58 32.996C116.626 34.396 118.194 35.096 120.284 35.096ZM139.32 37.336C136.968 37.336 135.139 36.5893 133.832 35.096C132.544 33.584 131.9 31.5307 131.9 28.936V17.512H134.364V28.852C134.364 30.756 134.784 32.268 135.624 33.388C136.483 34.4893 137.715 35.04 139.32 35.04C140.925 35.04 142.148 34.4893 142.988 33.388C143.847 32.268 144.276 30.756 144.276 28.852V17.512H146.74V28.936C146.74 31.5307 146.087 33.584 144.78 35.096C143.492 36.5893 141.672 37.336 139.32 37.336ZM165.088 17.512L157.948 37H154.868L147.728 17.512H150.332L156.492 34.284L162.624 17.512H165.088ZM177.245 37L173.297 29.356H173.017H168.537V37H166.073V17.512H172.681C175.014 17.512 176.75 18.0067 177.889 18.996C179.028 19.9667 179.597 21.3947 179.597 23.28C179.597 24.68 179.289 25.8653 178.673 26.836C178.057 27.8067 177.152 28.4973 175.957 28.908L180.213 37H177.245ZM172.709 27.032C174.165 27.032 175.229 26.752 175.901 26.192C176.592 25.6133 176.937 24.6427 176.937 23.28C176.937 22.0293 176.592 21.152 175.901 20.648C175.229 20.1253 174.156 19.864 172.681 19.864H168.537V27.032H172.709ZM181.786 17.512H184.25V37H181.786V17.512ZM198.539 37L194.591 29.356H194.311H189.831V37H187.367V17.512H193.975C196.309 17.512 198.045 18.0067 199.183 18.996C200.322 19.9667 200.891 21.3947 200.891 23.28C200.891 24.68 200.583 25.8653 199.967 26.836C199.351 27.8067 198.446 28.4973 197.251 28.908L201.507 37H198.539ZM194.003 27.032C195.459 27.032 196.523 26.752 197.195 26.192C197.886 25.6133 198.231 24.6427 198.231 23.28C198.231 22.0293 197.886 21.152 197.195 20.648C196.523 20.1253 195.45 19.864 193.975 19.864H189.831V27.032H194.003Z" fill="white"/>
</svg>
