<svg width="1520" height="8476" viewBox="0 0 1520 8476" fill="none" xmlns="http://www.w3.org/2000/svg">
<g filter="url(#filter0_d_1841_768)">
<path d="M-518.115 897.696C-518.115 897.696 243.601 782.104 605.886 446.884" stroke="#22EDE1"/>
</g>
<g filter="url(#filter1_d_1841_768)">
<path d="M-521.416 828.886C-521.416 828.886 240.63 777.375 611.828 447.409" stroke="black"/>
</g>
<g filter="url(#filter2_d_1841_768)">
<path d="M-513.493 949.964C-291.718 907.405 254.087 841.476 609.556 451.086" stroke="black"/>
</g>
<g filter="url(#filter3_d_1841_768)">
<path d="M-508.211 1614.24L611.5 453.74" stroke="#22EDE1"/>
</g>
<g filter="url(#filter4_d_1841_768)">
<path d="M-514.814 1024.73C-340.749 975.865 282.398 818.883 608.507 452.137" stroke="#22EDE1"/>
</g>
<g filter="url(#filter5_d_1841_768)">
<path d="M-513.493 1370.76L612.82 455.063" stroke="black"/>
</g>
<g filter="url(#filter6_d_1841_768)">
<path d="M-521.416 1754.51C-521.416 1754.51 109.602 987.728 620.742 461.68" stroke="#22EDE1"/>
</g>
<g filter="url(#filter7_d_1841_768)">
<path d="M244.036 1317.5C244.036 1317.5 348.633 1031.72 622.063 464.326" stroke="black"/>
</g>
<g filter="url(#filter8_d_1841_768)">
<path d="M-241.488 1827.29C-241.488 1827.29 342.695 915.422 623.383 465.649" stroke="black"/>
</g>
<g filter="url(#filter9_d_1841_768)">
<path d="M188.156 1250.5C188.156 1250.5 475.862 667.036 626.333 467.375" stroke="black"/>
</g>
<g filter="url(#filter10_d_1841_768)">
<path d="M285.357 1401.2C285.357 1401.2 362.548 966.83 645.831 476.236" stroke="#22EDE1"/>
</g>
<g filter="url(#filter11_d_1841_768)">
<path d="M439.186 1401.2C439.186 1401.2 315.687 910.872 645.83 478.882" stroke="black"/>
</g>
<g filter="url(#filter12_d_1841_768)">
<path d="M629.48 470.001C405.607 795.239 781 1154.1 1514.48 470.001C2013.08 -149.472 1371.35 -223.557 881.139 169.458" stroke="black"/>
</g>
<g filter="url(#filter13_d_1841_768)">
<path d="M632.1 472.63C409.801 1033.78 1126.51 914.511 1544.89 529.901C1963.28 145.291 1755.13 -416.387 887.955 175.24" stroke="#22EDE1"/>
</g>
<g filter="url(#filter14_d_1841_768)">
<path d="M636.296 474.731C582.818 891.917 1097.15 810.477 1301.1 549.867C1505.05 289.257 1347.23 -58.5741 887.955 175.24" stroke="#22EDE1" stroke-width="3"/>
</g>
<g filter="url(#filter15_d_1841_768)">
<path d="M641.538 481.035C598.969 763.995 833.648 773.603 981.803 762.137C1117.59 751.629 1276.98 614.493 1276.98 614.493C1640.31 225.153 1196.24 -44.3879 890.052 174.713" stroke="black" stroke-width="3"/>
</g>
<g filter="url(#filter16_d_1841_768)">
<path d="M631.052 474.731C407.436 1048.39 948.968 1439.49 1481.36 1428C1689.18 1423.51 1898.57 1426.49 2056.08 1251.83C2617.07 629.731 1811.76 -253.506 897.917 189.426" stroke="black"/>
</g>
<g filter="url(#filter17_d_1841_768)">
<path d="M630.528 472.629C422.909 1258.66 1226.65 1063.73 1330.98 936.577C1435.31 809.424 1486.7 627.614 1429.55 431.121C1371.58 231.821 1196.55 76.7839 891.625 179.968" stroke="black"/>
</g>
<g filter="url(#filter18_d_1841_768)">
<path d="M634.722 475.782C437.589 1124.15 1128.6 1178.27 1365.58 915.036C1602.56 651.799 1425.35 -38.6082 892.149 179.443" stroke="#22EDE1"/>
</g>
<g filter="url(#filter19_d_1841_768)">
<path d="M607.984 450.561C158.141 832.544 467.473 113.89 537.729 7.62875C607.984 -98.6328 1141.19 -990.675 842.342 141.086" stroke="black"/>
</g>
<g filter="url(#filter20_d_1841_768)">
<path d="M606.934 449.51C307.04 747.426 212.143 445.307 487.396 -22.3199C625.559 -257.046 743.774 -388.015 804.068 -388.015C864.361 -388.015 991.764 -361.743 842.865 140.036" stroke="#22EDE1"/>
</g>
<g filter="url(#filter21_d_1841_768)">
<path d="M600.643 436.898C257.816 667.519 -192.533 506.96 -423.298 255.628C-654.143 4.20877 -665.301 -338.062 -423.298 -560.881C60.6233 -1006.44 1272.78 -806.252 842.866 140.034" stroke="#22EDE1"/>
</g>
<g filter="url(#filter22_d_1841_768)">
<path d="M601.167 440.053C-130.219 846.731 -802.42 -96.4047 -470.484 -590.303C-142.854 -1077.79 1147.48 -906.082 829.758 132.68" stroke="black"/>
</g>
<g filter="url(#filter23_d_1841_768)">
<path d="M587.012 423.24C-42.6621 765.816 -379.781 16.5616 77.3999 -280.303C534.581 -577.167 897.917 -225.659 820.846 131.104" stroke="#22EDE1"/>
</g>
<g filter="url(#filter24_d_1841_768)">
<path d="M587.536 424.815C-62.5849 733.239 -337.838 -19.6927 55.3806 -260.337C342.346 -435.956 915.218 -438.981 822.419 131.629" stroke="black"/>
</g>
<g filter="url(#filter25_d_1841_768)">
<path d="M583.342 419.562C202.182 565.105 197.148 5.5281 383.062 -204.641C568.977 -414.811 969.22 -423.218 822.943 131.104" stroke="black" stroke-width="3"/>
</g>
<g filter="url(#filter26_d_1841_768)">
<path d="M584.39 420.612C309.662 572.985 39.6515 147.916 362.615 -218.829C685.578 -585.574 952.967 -204.642 824.515 132.154" stroke="#22EDE1" stroke-width="3"/>
</g>
<g filter="url(#filter27_d_1841_768)">
<path d="M850.206 145.29C850.206 145.29 1011.69 -93.252 1058.35 -293.438" stroke="#22EDE1"/>
</g>
<g filter="url(#filter28_d_1841_768)">
<path d="M853.875 146.867C853.875 146.867 1011.69 -83.7944 1074.6 -293.964" stroke="black"/>
</g>
<g filter="url(#filter29_d_1841_768)">
<path d="M856.498 148.968C856.498 148.968 1037.38 -95.3537 1129.65 -294.489" stroke="#22EDE1"/>
</g>
<g filter="url(#filter30_d_1841_768)">
<path d="M1233.46 -292.913C1093.48 -107.438 871.178 159.477 871.178 159.477" stroke="black"/>
</g>
<g filter="url(#filter31_d_1841_768)">
<path d="M1461.01 -290.811C1188.37 -146.845 892.149 177.867 892.149 177.867" stroke="black"/>
</g>
<g filter="url(#filter32_d_1841_768)">
<path d="M874.847 164.731L1248.67 -295.54" stroke="black"/>
</g>
<g filter="url(#filter33_d_1841_768)">
<path d="M875.896 163.155L1270.16 -294.489" stroke="#22EDE1"/>
</g>
<path fill-rule="evenodd" clip-rule="evenodd" d="M570.872 256.596C596.135 179.946 668.195 124.632 753.146 124.632C837.936 124.632 909.884 179.737 935.276 256.162H910.894V282.221H941.94C943.184 289.051 944.067 296.006 944.57 303.068H910.894V329.126H962.898V303.068H945.573C945.072 296.007 944.194 289.051 942.957 282.221H985.434V256.162H936.329C910.899 179.177 838.496 123.632 753.146 123.632C667.669 123.632 595.177 179.342 569.848 256.506C568.399 256.393 566.919 256.336 565.408 256.336C557.839 256.336 551.367 257.726 545.993 260.505C540.619 263.285 536.546 267.165 533.772 272.145C531.056 277.067 529.698 282.742 529.698 289.17C529.698 295.771 531.056 301.417 533.772 306.108C536.546 310.74 539.81 314.504 543.566 317.4C547.322 320.237 552.523 323.683 559.168 327.736C559.648 328.029 560.116 328.315 560.571 328.595C561.254 340.134 562.947 351.401 565.563 362.307C564.31 362.539 562.987 362.655 561.595 362.655C558.128 362.655 554.632 361.96 551.107 360.57C547.64 359.18 544.549 357.501 541.833 355.532C539.117 353.563 537.095 351.71 535.766 349.973L526.925 368.214C529.005 370.415 531.836 372.528 535.419 374.555C539.001 376.582 543.162 378.232 547.9 379.506C552.696 380.78 557.781 381.417 563.155 381.417C565.91 381.417 568.533 381.243 571.024 380.896C586.37 424.801 617.077 461.472 656.686 484.434L657.187 483.569C617.836 460.756 587.318 424.344 572.031 380.745C576.04 380.1 579.698 378.992 583.003 377.421C588.608 374.7 592.913 370.791 595.918 365.695C598.923 360.599 600.425 354.548 600.425 347.541C600.425 340.939 599.096 335.38 596.438 330.863C593.838 326.289 590.602 322.525 586.73 319.571C582.859 316.618 577.254 312.97 569.915 308.627C566.65 306.663 563.911 304.907 561.7 303.359C562.381 293.605 563.786 284.053 565.864 274.754C566 274.752 566.137 274.751 566.275 274.751C569.338 274.751 572.256 275.359 575.029 276.575C577.803 277.733 580.172 279.152 582.137 280.831C584.101 282.452 585.575 283.958 586.557 285.348L596.265 267.628C589.256 261.242 580.791 257.565 570.872 256.596ZM564.829 274.799C561.068 275.056 558.083 276.343 555.874 278.659C553.447 281.207 552.234 284.421 552.234 288.301C552.234 291.254 552.956 293.889 554.401 296.206C555.903 298.464 557.839 300.491 560.208 302.286C560.383 302.415 560.563 302.547 560.746 302.68C561.439 293.179 562.816 283.869 564.829 274.799ZM561.612 329.239C562.319 340.482 563.989 351.463 566.541 362.099C568.99 361.509 571.154 360.45 573.036 358.92C576.156 356.372 577.716 352.811 577.716 348.236C577.716 345.283 576.994 342.735 575.549 340.592C574.163 338.391 572.285 336.452 569.915 334.772C568.011 333.341 565.243 331.496 561.612 329.239ZM794.189 258.421V379.506H792.456L734.557 315.749L729.183 308.801L730.05 325.652V379.506H708.728V258.421H710.635L767.667 323.046L773.734 330.95L772.867 314.36V258.421H794.189ZM837.549 379.506C842.346 380.78 847.43 381.417 852.804 381.417C860.432 381.417 867.048 380.085 872.653 377.421C878.258 374.7 882.563 370.791 885.567 365.695C888.572 360.599 890.074 354.548 890.074 347.541C890.074 340.939 888.745 335.38 886.087 330.863C883.487 326.289 880.251 322.525 876.38 319.571C872.508 316.618 866.903 312.97 859.565 308.627C855.52 306.195 852.284 304.081 849.857 302.286C847.488 300.491 845.552 298.464 844.05 296.206C842.606 293.889 841.883 291.254 841.883 288.301C841.883 284.421 843.097 281.207 845.524 278.659C848.008 276.054 851.475 274.751 855.925 274.751C858.987 274.751 861.905 275.359 864.679 276.575C867.452 277.733 869.821 279.152 871.786 280.831C873.751 282.452 875.224 283.958 876.206 285.348L885.914 267.628C877.651 260.1 867.366 256.336 855.058 256.336C847.488 256.336 841.016 257.726 835.643 260.505C830.269 263.285 826.195 267.165 823.422 272.145C820.706 277.067 819.348 282.742 819.348 289.17C819.348 295.771 820.706 301.417 823.422 306.108C826.195 310.74 829.46 314.504 833.216 317.4C836.972 320.237 842.172 323.683 848.817 327.736C853.671 330.69 857.254 333.035 859.565 334.772C861.934 336.452 863.812 338.391 865.199 340.592C866.643 342.735 867.366 345.283 867.366 348.236C867.366 352.811 865.805 356.372 862.685 358.92C859.623 361.41 855.809 362.655 851.244 362.655C847.777 362.655 844.281 361.96 840.756 360.57C837.289 359.18 834.198 357.501 831.482 355.532C828.766 353.563 826.744 351.71 825.415 349.973L816.574 368.214C818.654 370.415 821.486 372.528 825.068 374.555C828.651 376.582 832.811 378.232 837.549 379.506ZM692.473 256.162H617.933V282.221H692.473V256.162ZM617.933 303.068H669.938V329.126H617.933V303.068ZM617.933 353.448H692.473V379.506H617.933V353.448ZM985.434 353.448H910.894V379.506H985.434V353.448ZM748.812 222.286H734.944V225.76H748.812V222.286ZM780.015 222.286H767.88V225.761H780.015V222.286ZM776.548 230.104H767.88V233.578H776.548V230.104ZM767.88 237.921H780.015V241.396H767.88V237.921ZM740.144 241.396V227.498H743.611V241.396H740.144ZM750.545 222.286V241.396H754.012V222.286H750.545ZM760.946 241.396V222.286H764.413V241.396H760.946ZM759.213 229.235H755.746V232.709H759.213V229.235ZM947.297 336.075C947.297 337.035 946.521 337.812 945.563 337.812C944.606 337.812 943.83 337.035 943.83 336.075C943.83 335.116 944.606 334.338 945.563 334.338C946.521 334.338 947.297 335.116 947.297 336.075ZM943.83 349.973C944.787 349.973 945.564 349.195 945.564 348.236C945.564 347.276 944.787 346.499 943.83 346.499C942.873 346.499 942.097 347.276 942.097 348.236C942.097 349.195 942.873 349.973 943.83 349.973ZM933.429 384.718C933.429 385.677 932.653 386.455 931.695 386.455C930.738 386.455 929.962 385.677 929.962 384.718C929.962 383.758 930.738 382.981 931.695 382.981C932.653 382.981 933.429 383.758 933.429 384.718ZM926.495 398.616C927.452 398.616 928.229 397.838 928.229 396.878C928.229 395.919 927.452 395.141 926.495 395.141C925.538 395.141 924.762 395.919 924.762 396.878C924.762 397.838 925.538 398.616 926.495 398.616ZM907.427 431.623C908.384 431.623 909.16 430.845 909.16 429.886C909.16 428.927 908.384 428.149 907.427 428.149C906.469 428.149 905.693 428.927 905.693 429.886C905.693 430.845 906.469 431.623 907.427 431.623ZM825.952 495.901C826.91 495.901 827.686 495.123 827.686 494.164C827.686 493.204 826.91 492.427 825.952 492.427C824.995 492.427 824.219 493.204 824.219 494.164C824.219 495.123 824.995 495.901 825.952 495.901ZM891.825 450.733C891.825 451.692 891.049 452.47 890.092 452.47C889.134 452.47 888.358 451.692 888.358 450.733C888.358 449.773 889.134 448.996 890.092 448.996C891.049 448.996 891.825 449.773 891.825 450.733ZM923.028 409.039C923.028 409.999 922.252 410.776 921.295 410.776C920.337 410.776 919.561 409.999 919.561 409.039C919.561 408.08 920.337 407.302 921.295 407.302C922.252 407.302 923.028 408.08 923.028 409.039ZM881.424 461.156C882.382 461.156 883.158 460.378 883.158 459.419C883.158 458.46 882.382 457.682 881.424 457.682C880.467 457.682 879.691 458.46 879.691 459.419C879.691 460.378 880.467 461.156 881.424 461.156ZM872.757 468.105C872.757 469.065 871.981 469.842 871.023 469.842C870.066 469.842 869.29 469.065 869.29 468.105C869.29 467.146 870.066 466.368 871.023 466.368C871.981 466.368 872.757 467.146 872.757 468.105ZM850.221 483.74C851.179 483.74 851.955 482.963 851.955 482.003C851.955 481.044 851.179 480.266 850.221 480.266C849.264 480.266 848.488 481.044 848.488 482.003C848.488 482.963 849.264 483.74 850.221 483.74ZM798.216 504.587C799.174 504.587 799.95 503.809 799.95 502.85C799.95 501.891 799.174 501.113 798.216 501.113C797.259 501.113 796.483 501.891 796.483 502.85C796.483 503.809 797.259 504.587 798.216 504.587ZM786.082 506.324C786.082 507.284 785.306 508.062 784.348 508.062C783.391 508.062 782.615 507.284 782.615 506.324C782.615 505.365 783.391 504.587 784.348 504.587C785.306 504.587 786.082 505.365 786.082 506.324ZM770.48 509.799C771.438 509.799 772.214 509.021 772.214 508.062C772.214 507.102 771.438 506.324 770.48 506.324C769.523 506.324 768.747 507.102 768.747 508.062C768.747 509.021 769.523 509.799 770.48 509.799ZM758.346 509.799C758.346 510.758 757.57 511.536 756.612 511.536C755.655 511.536 754.879 510.758 754.879 509.799C754.879 508.84 755.655 508.062 756.612 508.062C757.57 508.062 758.346 508.84 758.346 509.799ZM742.745 511.536C743.702 511.536 744.478 510.758 744.478 509.799C744.478 508.84 743.702 508.062 742.745 508.062C741.787 508.062 741.011 508.84 741.011 509.799C741.011 510.758 741.787 511.536 742.745 511.536ZM730.61 508.062C730.61 509.021 729.834 509.799 728.877 509.799C727.919 509.799 727.143 509.021 727.143 508.062C727.143 507.102 727.919 506.324 728.877 506.324C729.834 506.324 730.61 507.102 730.61 508.062ZM715.009 506.324C715.966 506.324 716.742 505.547 716.742 504.587C716.742 503.628 715.966 502.85 715.009 502.85C714.051 502.85 713.275 503.628 713.275 504.587C713.275 505.547 714.051 506.324 715.009 506.324ZM701.141 501.113C701.141 502.072 700.365 502.85 699.407 502.85C698.45 502.85 697.674 502.072 697.674 501.113C697.674 500.153 698.45 499.376 699.407 499.376C700.365 499.376 701.141 500.153 701.141 501.113ZM685.539 497.638C686.497 497.638 687.273 496.86 687.273 495.901C687.273 494.942 686.497 494.164 685.539 494.164C684.582 494.164 683.806 494.942 683.806 495.901C683.806 496.86 684.582 497.638 685.539 497.638ZM675.138 490.689C675.138 491.649 674.362 492.427 673.405 492.427C672.447 492.427 671.671 491.649 671.671 490.689C671.671 489.73 672.447 488.952 673.405 488.952C674.362 488.952 675.138 489.73 675.138 490.689ZM661.27 487.215C662.228 487.215 663.004 486.437 663.004 485.478C663.004 484.518 662.228 483.74 661.27 483.74C660.313 483.74 659.537 484.518 659.537 485.478C659.537 486.437 660.313 487.215 661.27 487.215ZM813.818 499.376C813.818 500.335 813.042 501.113 812.084 501.113C811.127 501.113 810.351 500.335 810.351 499.376C810.351 498.416 811.127 497.638 812.084 497.638C813.042 497.638 813.818 498.416 813.818 499.376ZM914.361 421.2C915.318 421.2 916.094 420.422 916.094 419.463C916.094 418.503 915.318 417.725 914.361 417.725C913.403 417.725 912.627 418.503 912.627 419.463C912.627 420.422 913.403 421.2 914.361 421.2ZM839.82 488.952C839.82 489.912 839.044 490.689 838.087 490.689C837.129 490.689 836.353 489.912 836.353 488.952C836.353 487.993 837.129 487.215 838.087 487.215C839.044 487.215 839.82 487.993 839.82 488.952ZM860.622 476.791C861.58 476.791 862.356 476.014 862.356 475.054C862.356 474.095 861.58 473.317 860.622 473.317C859.665 473.317 858.889 474.095 858.889 475.054C858.889 476.014 859.665 476.791 860.622 476.791ZM900.493 440.309C900.493 441.269 899.717 442.047 898.759 442.047C897.802 442.047 897.026 441.269 897.026 440.309C897.026 439.35 897.802 438.572 898.759 438.572C899.717 438.572 900.493 439.35 900.493 440.309Z" fill="black"/>
<path fill-rule="evenodd" clip-rule="evenodd" d="M1612.76 1254.89C1616.58 1257.02 1621.45 1255.79 1623.78 1252.02C1626.18 1248.14 1624.98 1243.05 1621.11 1240.65C1617.24 1238.24 1612.16 1239.44 1609.76 1243.32C1607.65 1246.72 1608.32 1251.07 1611.14 1253.71L1521.42 1377.16L1442.03 1414.52L1363.77 1451.34L1307.74 1217.16C1309.39 1216.54 1310.86 1215.39 1311.86 1213.78C1314.26 1209.9 1313.06 1204.8 1309.19 1202.4C1305.32 1200 1300.24 1201.19 1297.84 1205.07C1296.38 1207.44 1296.25 1210.26 1297.26 1212.64L1044.29 1459.73C1040.98 1458.11 1037 1458.92 1034.57 1461.63L731.541 1295.82C733.541 1292.02 732.29 1287.25 728.587 1284.95C724.717 1282.55 719.636 1283.75 717.237 1287.62C714.964 1291.3 715.916 1296.06 719.316 1298.6L675.05 1359.9L612.156 1297.45C612.373 1297.18 612.575 1296.9 612.762 1296.59C615.16 1292.72 613.968 1287.62 610.098 1285.22C606.228 1282.82 601.147 1284.01 598.748 1287.89C596.35 1291.77 597.542 1296.86 601.412 1299.26C601.77 1299.49 602.139 1299.68 602.515 1299.84L570.509 1468.71L504.525 1501.12L482.306 1501.89C482.257 1499.17 480.878 1496.54 478.406 1495C474.536 1492.6 469.454 1493.8 467.056 1497.67C466.383 1498.76 465.992 1499.95 465.865 1501.14L272.778 1477.96C273.186 1474.84 271.788 1471.63 268.946 1469.86C265.076 1467.46 259.995 1468.65 257.596 1472.53C255.63 1475.71 256.077 1479.71 258.435 1482.37L185.233 1547L113.123 1467.15C113.688 1466.64 114.192 1466.04 114.613 1465.36C117.012 1461.48 115.819 1456.39 111.95 1453.99C108.08 1451.58 102.998 1452.78 100.6 1456.65C98.3962 1460.22 99.2236 1464.8 102.373 1467.39L79.1192 1515.03L-33.9164 1444.82C-32.6851 1441.25 -34.0312 1437.17 -37.3685 1435.1C-41.2382 1432.7 -46.3196 1433.89 -48.7182 1437.77C-51.1168 1441.65 -49.9243 1446.74 -46.0546 1449.14C-45.354 1449.58 -44.6137 1449.9 -43.8568 1450.1L-29.2282 1729.49L-84.0652 1571.39L-85.9528 1572.04L-31.1693 1730C-33.0024 1730.56 -34.6469 1731.77 -35.7371 1733.53C-36.4407 1734.67 -36.8353 1735.91 -36.944 1737.16L-102.618 1749.44L-102.25 1751.41L-36.8718 1739.19C-36.5077 1741.47 -35.1916 1743.59 -33.0735 1744.91C-29.2039 1747.31 -24.1224 1746.12 -21.7238 1742.24C-20.3013 1739.94 -20.1418 1737.21 -21.0548 1734.87L247.44 1628.92C247.98 1630.83 249.208 1632.56 251.029 1633.69C254.898 1636.09 259.98 1634.9 262.378 1631.02C263.892 1628.57 263.975 1625.64 262.859 1623.21L556.264 1521.03C556.734 1523.11 558.006 1525.01 559.961 1526.23C563.831 1528.63 568.912 1527.43 571.311 1523.56C571.591 1523.1 571.823 1522.63 572.006 1522.15L664.276 1552.28C663.935 1552.66 663.624 1553.07 663.347 1553.51C660.949 1557.39 662.141 1562.48 666.011 1564.89C669.881 1567.29 674.962 1566.1 677.361 1562.22C678.819 1559.86 678.95 1557.05 677.96 1554.68L688.802 1552.04L862.087 1597.35C861.669 1600.48 863.067 1603.71 865.916 1605.48C869.786 1607.88 874.867 1606.68 877.266 1602.81C878.951 1600.08 878.864 1596.76 877.321 1594.19L924.37 1557.3L1072.68 1638.32C1071.18 1641.99 1072.49 1646.32 1075.97 1648.48C1079.84 1650.88 1084.92 1649.69 1087.32 1645.81C1088.24 1644.31 1088.63 1642.63 1088.54 1640.99L1142.5 1637.64L1230.03 1782.52C1229.52 1783 1229.07 1783.55 1228.69 1784.17C1226.29 1788.05 1227.48 1793.14 1231.35 1795.54C1235.22 1797.95 1240.3 1796.75 1242.7 1792.87C1244.25 1790.36 1244.3 1787.35 1243.1 1784.88L1394.57 1718.33L1398.11 1724.56C1397.32 1725.16 1396.63 1725.91 1396.07 1726.8C1393.68 1730.68 1394.87 1735.77 1398.74 1738.17C1402.61 1740.58 1407.69 1739.38 1410.09 1735.5C1411.95 1732.5 1411.65 1728.77 1409.62 1726.12L1482.89 1680.87C1483.5 1681.71 1484.28 1682.45 1485.22 1683.03C1488.2 1684.88 1491.9 1684.6 1494.54 1682.6L1573.88 1781.87C1573.27 1782.4 1572.72 1783.04 1572.27 1783.76C1569.87 1787.64 1571.07 1792.73 1574.94 1795.14C1578.81 1797.54 1583.89 1796.35 1586.29 1792.47C1588.68 1788.59 1587.49 1783.5 1583.62 1781.09C1581.13 1779.54 1578.13 1779.49 1575.67 1780.69L1517.04 1698.68L1609.41 1774.11C1609.11 1774.45 1608.84 1774.82 1608.59 1775.22C1606.19 1779.1 1607.39 1784.19 1611.25 1786.6C1615.12 1789 1620.21 1787.81 1622.6 1783.93C1625 1780.05 1623.81 1774.96 1619.94 1772.55C1617.07 1770.77 1613.54 1770.97 1610.93 1772.77L1512.6 1692.48L1494.2 1666.74L1613.96 1340.35L1614.44 1339.53C1618.3 1341.83 1623.29 1340.62 1625.66 1336.78C1628.06 1332.9 1626.87 1327.81 1623 1325.41C1622.96 1325.38 1622.91 1325.35 1622.87 1325.33L1642.28 1292.63C1646.04 1294.49 1650.67 1293.22 1652.93 1289.57C1655.33 1285.69 1654.13 1280.6 1650.26 1278.19C1646.39 1275.79 1641.31 1276.98 1638.91 1280.86C1637.18 1283.66 1637.32 1287.1 1638.99 1289.69L1586.22 1346.67L1525.17 1375.39L1612.76 1254.89ZM604.443 1300.4L572.752 1467.6L595.676 1456.34C593.748 1453.71 593.495 1450.05 595.319 1447.11C597.718 1443.23 602.799 1442.03 606.669 1444.44C608.589 1445.63 609.85 1447.48 610.34 1449.52L673.865 1361.54L610.719 1298.84C608.928 1300.19 606.652 1300.76 604.443 1300.4ZM465.897 1503.16L272.272 1479.92C272.094 1480.37 271.873 1480.81 271.609 1481.24C270.195 1483.52 267.848 1484.88 265.367 1485.11L263.003 1518.34L446.489 1517.45L466.908 1506.13C466.383 1505.21 466.041 1504.2 465.897 1503.16ZM468.117 1507.75L450.653 1517.43L471.513 1517.33L492.196 1507.17L481.59 1505.4C481.441 1505.73 481.267 1506.06 481.069 1506.38C478.671 1510.26 473.589 1511.45 469.72 1509.05C469.12 1508.68 468.585 1508.24 468.117 1507.75ZM674.697 1550.84C675.395 1551.28 676.006 1551.8 676.525 1552.38L681.346 1550.09L594.282 1527.32L666.115 1550.78C668.677 1549.24 671.985 1549.16 674.697 1550.84ZM572.541 1519.57L684.15 1548.75L798.318 1494.39C798.162 1494.13 798.021 1493.87 797.895 1493.59L572.429 1517.81C572.528 1518.39 572.567 1518.98 572.541 1519.57ZM571.841 1515.86L778.753 1493.64L575.888 1500.65L567.871 1511.75C568.039 1511.84 568.205 1511.92 568.369 1512.02C568.462 1512.07 568.555 1512.12 568.647 1512.18C570.112 1513.09 571.193 1514.39 571.841 1515.86ZM565.293 1511L571.601 1500.8L566.426 1500.98L564.537 1510.94C564.789 1510.95 565.041 1510.97 565.293 1511ZM562.464 1511.15L564.378 1501.05L505.023 1503.1L498.66 1506.23L556.72 1515.96C556.881 1515.58 557.074 1515.21 557.297 1514.85C558.505 1512.9 560.393 1511.63 562.464 1511.15ZM556.064 1518.93L471.982 1519.33L269.621 1618.73L556.062 1518.98L556.064 1518.93ZM260.26 1483.91C260.154 1483.84 260.049 1483.77 259.947 1483.7L186.574 1548.49L193.07 1555.68L232.573 1523.58C231.338 1521.11 231.376 1518.06 232.939 1515.53C235.338 1511.66 240.419 1510.46 244.289 1512.86C246.351 1514.15 247.653 1516.19 248.057 1518.41L260.998 1518.35L263.367 1485.06C262.296 1484.89 261.239 1484.52 260.26 1483.91ZM260.769 1620.42L442.847 1519.47L262.86 1520.34L255.881 1618.42C257.198 1618.5 258.515 1618.9 259.715 1619.64C260.092 1619.88 260.444 1620.14 260.769 1620.42ZM252.509 1618.92L239.482 1528.14C238.15 1528.06 236.817 1527.66 235.603 1526.91C234.863 1526.45 234.22 1525.89 233.682 1525.26L194.413 1557.17L250.901 1619.72C251.409 1619.39 251.949 1619.12 252.509 1618.92ZM248.275 1622.46L172.208 1575.21L-22.047 1733.05L-22.0109 1733.1L247.13 1626.89C247.088 1625.38 247.456 1623.85 248.275 1622.46ZM104.071 1468.47L80.8267 1516.09L162.664 1566.93L183.734 1548.32L111.474 1468.3C109.225 1469.5 106.478 1469.62 104.071 1468.47ZM-34.7981 1446.62C-36.3947 1449.09 -39.0943 1450.42 -41.841 1450.38L-27.2132 1729.76C-26.7623 1729.85 -26.315 1729.97 -25.876 1730.13L78.2374 1516.84L-34.7981 1446.62ZM-23.6206 1731.4L161.099 1568.31L79.9448 1517.9L-24.0989 1731.05C-23.9342 1731.16 -23.7747 1731.28 -23.6206 1731.4ZM876.09 1592.61L922.458 1556.26L845.097 1513.99L823.943 1519.14L866.905 1590.91C869.314 1589.83 872.193 1589.93 874.602 1591.43C875.153 1591.77 875.65 1592.17 876.09 1592.61ZM865.192 1591.93L821.91 1519.64L692.899 1551.04L862.592 1595.41C862.77 1594.97 862.99 1594.53 863.252 1594.1C863.782 1593.24 864.443 1592.52 865.192 1591.93ZM1073.66 1636.58C1074.41 1635.54 1075.37 1634.73 1076.45 1634.16L1040.9 1475.42C1039.35 1475.46 1037.77 1475.07 1036.35 1474.19C1035.25 1473.5 1034.36 1472.6 1033.72 1471.57L926.083 1555.96L1073.66 1636.58ZM1084.65 1634.43C1084.71 1634.47 1084.76 1634.5 1084.82 1634.54C1084.85 1634.56 1084.89 1634.59 1084.93 1634.61C1084.97 1634.64 1085.01 1634.67 1085.05 1634.7L1123.3 1605.86L1044.06 1474.7C1043.68 1474.87 1043.29 1475.02 1042.88 1475.13L1078.33 1633.44C1080.41 1632.92 1082.69 1633.21 1084.65 1634.43ZM1086.56 1636.07C1086.91 1636.47 1087.21 1636.9 1087.47 1637.36L1134.97 1625.17L1124.34 1607.58L1086.56 1636.07ZM1033.42 1463.28L730.397 1297.47C729.74 1298.22 728.968 1298.82 728.126 1299.26L803.458 1482.07C805.519 1481.58 807.769 1481.88 809.713 1483.09C812.152 1484.6 813.528 1487.19 813.61 1489.86L1032.64 1465.38C1032.8 1464.66 1033.06 1463.95 1033.42 1463.28ZM726.261 1299.99L801.584 1482.77C800.992 1483.07 800.433 1483.45 799.923 1483.9L676.487 1361.33L721.061 1299.6C722.744 1300.31 724.569 1300.41 726.261 1299.99ZM675.302 1362.97L798.595 1485.4C798.543 1485.48 798.493 1485.55 798.444 1485.63C798.417 1485.67 798.39 1485.71 798.363 1485.76C797.729 1486.78 797.345 1487.89 797.197 1489.02L609.677 1455.2C610.075 1454.41 610.336 1453.59 610.468 1452.76L675.302 1362.97ZM796.946 1491L608.435 1457.01C607.761 1457.75 606.97 1458.35 606.108 1458.8L577.372 1498.6L796.946 1491ZM602.997 1459.69C601.879 1459.78 600.735 1459.65 599.64 1459.27L577.77 1494.63L602.997 1459.69ZM597.835 1458.39C597.585 1458.22 597.347 1458.05 597.12 1457.86L572.286 1470.06L566.808 1498.96L572.867 1498.75L597.835 1458.39ZM687.156 1549.54L799.591 1496C800.018 1496.42 800.497 1496.8 801.027 1497.13C803.443 1498.63 806.331 1498.73 808.744 1497.65L820.833 1517.84L688.818 1549.97L687.156 1549.54ZM822.866 1517.35L810.454 1496.61C810.825 1496.32 811.174 1496 811.495 1495.64L842.488 1512.57L822.866 1517.35ZM845.374 1511.87L812.648 1493.99C813.006 1493.32 813.262 1492.61 813.42 1491.9L1024.24 1468.33L845.374 1511.87ZM1032.54 1468.37L847.983 1513.29L924.172 1554.91L1032.85 1469.71C1032.71 1469.27 1032.6 1468.82 1032.54 1468.37ZM1045.77 1473.67L1124.9 1604.65L1155.44 1581.63L1046.15 1473.36C1046.11 1473.39 1046.08 1473.42 1046.04 1473.45C1046 1473.49 1045.96 1473.52 1045.91 1473.56C1045.87 1473.6 1045.82 1473.63 1045.77 1473.67ZM1047.47 1471.86L1157.05 1580.41L1236.59 1520.44L1048.71 1469.08C1048.51 1469.92 1048.18 1470.74 1047.7 1471.52C1047.68 1471.54 1047.67 1471.57 1047.65 1471.59C1047.63 1471.62 1047.61 1471.65 1047.59 1471.68C1047.57 1471.72 1047.54 1471.75 1047.52 1471.79C1047.51 1471.81 1047.49 1471.84 1047.47 1471.86ZM1048.82 1465.81L1262.56 1494.72C1262.76 1494.05 1263.05 1493.4 1263.43 1492.78C1264.85 1490.5 1267.19 1489.14 1269.66 1488.91L1302.11 1217.22C1301.56 1217.02 1301.02 1216.76 1300.51 1216.44C1299.63 1215.9 1298.89 1215.21 1298.29 1214.43L1046.01 1460.85C1047.54 1462.14 1048.51 1463.92 1048.82 1465.81ZM1305.8 1217.63C1305.23 1217.7 1304.65 1217.7 1304.07 1217.65L1271.67 1488.96C1272.74 1489.12 1273.8 1489.5 1274.78 1490.11C1275.68 1490.67 1276.43 1491.37 1277.03 1492.16L1361.92 1452.21L1305.8 1217.63ZM1388.29 1553.81L1378.63 1513.47L1418.18 1519.19L1392.03 1555.17C1391.94 1555.11 1391.86 1555.06 1391.77 1555C1390.67 1554.32 1389.48 1553.93 1388.29 1553.81ZM1394.29 1557.46C1394.25 1557.4 1394.21 1557.34 1394.17 1557.28L1430.37 1520.96L1458.05 1524.96C1458 1525.78 1458.07 1526.59 1458.26 1527.38L1394.29 1557.46ZM1473.29 1529.83C1472.05 1531.83 1470.1 1533.11 1467.98 1533.56L1473.42 1567.04L1565.47 1385.43L1432.14 1519.19L1458.42 1522.99C1458.62 1522.35 1458.9 1521.72 1459.27 1521.12C1461.67 1517.25 1466.75 1516.05 1470.62 1518.45C1474.49 1520.86 1475.69 1525.95 1473.29 1529.83ZM1465.98 1533.73C1465.75 1533.73 1465.51 1533.71 1465.28 1533.68L1454.96 1601.5C1455.28 1601.5 1455.6 1601.52 1455.92 1601.56L1471.88 1570.07L1465.98 1533.73ZM1461.94 1532.5C1460.62 1531.68 1459.61 1530.55 1458.95 1529.26L1395.19 1559.25C1395.8 1560.96 1395.84 1562.85 1395.25 1564.63L1447.9 1605.38C1449.08 1603.49 1450.9 1602.24 1452.9 1601.74L1463.33 1533.19C1462.85 1533.01 1462.39 1532.78 1461.94 1532.5ZM1461.89 1614.11C1461.08 1615.42 1459.97 1616.42 1458.7 1617.09L1485.65 1654.78L1473.12 1577.69L1458.5 1602.34C1458.56 1602.37 1458.63 1602.4 1458.69 1602.43C1458.87 1602.53 1459.05 1602.63 1459.23 1602.74C1463.1 1605.14 1464.29 1610.24 1461.89 1614.11ZM1456.76 1617.81C1454.82 1618.26 1452.72 1618.01 1450.87 1616.98L1447.27 1625.47L1485.56 1668.78C1486.26 1668.4 1487.01 1668.11 1487.78 1667.94L1486.37 1659.22L1456.76 1617.81ZM1449.22 1615.76C1448.95 1615.51 1448.7 1615.24 1448.47 1614.95L1442.36 1619.92L1445.81 1623.81L1449.22 1615.76ZM1447.41 1613.24C1447.37 1613.16 1447.34 1613.09 1447.31 1613.02L1438.67 1615.74L1440.24 1617.52L1441.03 1618.41L1447.41 1613.24ZM1446.75 1611.09C1446.54 1609.83 1446.63 1608.5 1447.03 1607.24L1396.76 1568.33L1437.22 1614.1L1446.75 1611.09ZM1390.66 1569.62C1391.71 1569.17 1392.67 1568.51 1393.48 1567.64L1435.13 1614.76L1424.49 1618.11L1421.29 1618.31L1392.64 1595.08L1390.66 1569.62ZM1384.32 1569.68C1385.74 1570.26 1387.25 1570.41 1388.7 1570.19L1390.5 1593.34L1376.12 1581.68L1384.32 1569.68ZM1381.88 1568.14C1382.1 1568.34 1382.32 1568.52 1382.56 1568.7L1374.56 1580.42L1370.68 1577.26L1381.88 1568.14ZM1379.56 1564.51C1379.8 1565.25 1380.13 1565.97 1380.57 1566.62L1369.09 1575.98L1360.86 1569.3L1379.56 1564.51ZM1379.57 1559.52C1379.25 1560.5 1379.13 1561.53 1379.2 1562.53L1358.93 1567.73L1333.15 1546.83L1379.57 1559.52ZM1380.47 1557.59C1380.45 1557.62 1380.43 1557.64 1380.42 1557.67L1380.42 1557.67L1329.29 1543.7L1278.68 1502.66L1380.47 1557.59ZM1381.76 1556.02C1383.01 1554.83 1384.59 1554.09 1386.24 1553.85L1376.51 1513.16L1278.48 1498.97C1278.39 1499.35 1278.28 1499.72 1278.14 1500.09L1381.76 1556.02ZM1376.01 1511.07L1278.68 1496.98C1278.66 1495.92 1278.44 1494.88 1278.03 1493.9L1362.4 1454.2L1376.01 1511.07ZM1054.55 1468.61L1262.21 1496.69C1262.14 1498.02 1262.39 1499.36 1262.94 1500.57L1238.61 1518.91L1054.55 1468.61ZM1241.05 1519.58L1263.99 1502.28C1264.57 1503 1265.27 1503.64 1266.1 1504.15C1266.65 1504.5 1267.23 1504.77 1267.82 1504.97L1265.48 1526.26L1241.05 1519.58ZM1267.43 1526.79L1269.79 1505.37C1270.97 1505.46 1272.15 1505.3 1273.25 1504.9L1289.06 1532.7L1267.43 1526.79ZM1291.78 1533.45L1275.04 1503.99C1275.41 1503.74 1275.77 1503.46 1276.1 1503.14L1324.5 1542.39L1291.78 1533.45ZM1328.36 1545.52L1356.51 1568.35L1317.33 1578.4L1293.17 1535.9L1328.36 1545.52ZM1358.45 1569.92L1318.36 1580.21L1332.77 1605.56L1367.51 1577.27L1358.45 1569.92ZM1290.45 1535.16L1315.33 1578.92L1260.14 1593.07L1267.21 1528.81L1290.45 1535.16ZM1316.35 1580.72L1259.9 1595.2L1256.23 1628.57L1308.52 1625.32L1331.2 1606.84L1316.35 1580.72ZM1265.26 1528.27L1258.07 1593.6L1188.41 1611.47L1158.49 1581.83L1239.03 1521.1L1265.26 1528.27ZM1257.83 1595.73L1190.06 1613.11L1208.65 1631.52L1254.21 1628.69L1257.83 1595.73ZM1156.88 1583.05L1186.15 1612.05L1136.99 1624.66L1125.94 1606.37L1156.88 1583.05ZM1187.81 1613.69L1138.07 1626.45L1143.58 1635.56L1205.98 1631.69L1187.81 1613.69ZM1231.64 1781.33C1232.47 1780.86 1233.37 1780.54 1234.3 1780.38L1248.41 1679.78C1245.26 1677.72 1243.97 1673.85 1245.05 1670.39L1207.88 1633.57L1144.75 1637.5L1231.64 1781.33ZM1250.2 1665.06C1248.5 1665.66 1246.98 1666.81 1245.94 1668.46L1210.56 1633.41L1253.98 1630.71L1250.2 1665.06ZM1258.01 1666.37C1257.96 1666.33 1257.92 1666.3 1257.87 1666.26C1257.83 1666.23 1257.79 1666.2 1257.75 1666.17C1257.69 1666.13 1257.63 1666.08 1257.56 1666.04C1257.46 1665.97 1257.36 1665.91 1257.26 1665.84C1255.71 1664.88 1253.95 1664.49 1252.26 1664.63L1256.01 1630.58L1305.85 1627.49L1258.07 1666.41L1258.01 1666.37ZM1260.57 1669.79C1260.29 1669.1 1259.93 1668.45 1259.47 1667.85L1309.28 1627.27L1341.67 1625.26L1342.7 1627.08L1328.08 1648.5L1260.57 1669.79ZM1261.16 1673.15C1261.17 1672.67 1261.15 1672.2 1261.08 1671.72L1326.25 1651.18L1311.08 1673.41L1261.16 1673.15ZM1250.3 1680.7C1253.84 1681.89 1257.87 1680.54 1259.92 1677.22C1260.33 1676.56 1260.64 1675.86 1260.84 1675.15L1309.72 1675.4L1237.92 1780.56C1237.4 1780.42 1236.87 1780.32 1236.34 1780.28L1250.3 1680.7ZM1240.04 1781.5C1240.06 1781.51 1240.09 1781.53 1240.11 1781.55L1240.17 1781.58L1370.39 1675.8L1370.34 1675.71L1312.13 1675.41L1239.8 1781.36C1239.88 1781.4 1239.96 1781.45 1240.04 1781.5ZM1241.73 1782.9C1241.78 1782.95 1241.83 1783 1241.88 1783.05C1241.91 1783.09 1241.95 1783.14 1241.99 1783.18L1393.57 1716.58L1371.4 1677.56L1241.73 1782.9ZM1408.18 1724.66L1477.26 1682L1411.02 1711.1L1405.83 1723.36C1406.38 1723.56 1406.91 1723.81 1407.42 1724.13C1407.69 1724.29 1407.94 1724.47 1408.18 1724.66ZM1403.85 1722.92L1408.36 1712.27L1401.99 1715.07L1402.6 1722.9C1403.01 1722.88 1403.43 1722.89 1403.85 1722.92ZM1400.62 1723.27L1400.05 1715.92L1396.41 1717.52L1399.84 1723.56C1400.09 1723.45 1400.36 1723.35 1400.62 1723.27ZM1621.03 1324.51L1640.6 1291.53C1640.49 1291.44 1640.39 1291.34 1640.28 1291.24L1591.05 1344.39L1610.85 1335.08C1610.09 1332.82 1610.3 1330.26 1611.65 1328.08C1613.66 1324.83 1617.55 1323.46 1621.03 1324.51ZM1612.65 1338.09L1586.24 1364.59C1586.1 1365.74 1585.71 1366.88 1585.06 1367.93C1583.69 1370.14 1581.46 1371.48 1579.07 1371.78L1574.27 1376.6L1560.23 1426.97L1612.15 1339.48L1612.66 1338.1L1612.65 1338.09ZM1481.54 1677.93C1481.41 1677.38 1481.34 1676.83 1481.32 1676.27L1425.89 1675.99L1412.16 1708.41L1481.54 1677.93ZM1482.55 1671.66C1482.7 1671.41 1482.87 1671.18 1483.04 1670.96L1442.08 1637.74L1426.73 1673.99L1481.5 1674.26C1481.69 1673.37 1482.04 1672.48 1482.55 1671.66ZM1489.78 1667.75C1490.19 1667.76 1490.61 1667.8 1491.03 1667.88L1491.46 1666.34L1488.99 1662.89L1489.78 1667.75ZM1497.76 1675.15C1497.92 1676.67 1497.66 1678.25 1496.94 1679.69L1506.7 1687.66L1497.76 1675.15ZM570.043 1471.17L564.76 1499.03L509.41 1500.95L570.043 1471.17ZM484.297 1503.82L500.139 1503.27L495.276 1505.66L484.297 1503.82ZM447.011 1519.45L467.397 1519.35L290.148 1606.42L447.011 1519.45ZM254.07 1615.72L241.482 1528C243.671 1527.59 245.686 1526.29 246.953 1524.24C247.694 1523.04 248.093 1521.72 248.175 1520.41L260.856 1520.35L254.07 1615.72ZM185.075 1549.81L164.439 1568.03L172.051 1572.76L191.517 1556.94L185.075 1549.81ZM162.873 1569.41L170.409 1574.09L9.40944 1704.91L162.873 1569.41ZM248.916 1620.51L173.85 1573.88L192.86 1558.43L248.916 1620.51ZM476.098 1517.31L550.517 1516.95L495.58 1507.74L476.098 1517.31ZM1136.05 1626.96L1089.39 1638.93L1141.33 1635.7L1136.05 1626.96ZM684.352 1550.87L684.722 1550.97L683.55 1551.26L684.352 1550.87ZM1343.96 1625.25L1343.89 1625.12L1344.05 1625.11L1343.96 1625.25ZM1342.79 1623.19L1345.48 1623.02L1373.43 1582.07L1369.09 1578.55L1333.77 1607.33L1342.79 1623.19ZM1345.06 1627.18L1346.58 1624.96L1392.74 1622.09L1393.2 1627.98L1352.76 1640.72L1345.06 1627.18ZM1348.01 1622.86L1392.59 1620.09L1390.72 1596.09L1374.99 1583.34L1348.01 1622.86ZM1395.16 1627.36L1394.74 1621.97L1416.57 1620.61L1395.16 1627.36ZM1395.32 1629.41L1421.59 1621.12L1429.65 1627.66L1397.23 1654L1395.32 1629.41ZM1397.42 1656.42L1431.24 1628.95L1440.46 1636.43L1424.57 1673.98L1398.78 1673.85L1397.42 1656.42ZM1432.82 1627.66L1441.28 1634.51L1444.94 1625.85L1440.81 1621.18L1432.82 1627.66ZM1423.72 1675.98L1409.49 1709.58L1401.82 1712.95L1398.93 1675.85L1423.72 1675.98ZM1396.93 1675.84L1399.88 1713.81L1395.41 1715.77L1372.97 1676.28L1373.66 1675.72L1396.93 1675.84ZM1492.14 1663.87L1488.26 1658.44L1474.71 1575.02L1554.26 1440.95L1492.14 1663.87ZM1556.32 1433.56L1474.21 1571.94L1473.96 1570.39L1570.03 1380.85L1571.39 1379.49L1556.32 1433.56ZM1472.62 1574.62L1472.43 1573.42L1467.11 1583.91L1472.62 1574.62ZM1568.39 1379.66L1429.67 1518.83L1429.49 1518.81L1565.58 1371.89L1572.27 1369.47C1572.54 1369.74 1572.85 1370 1573.17 1370.23L1568.39 1379.66ZM1575.37 1372.66L1575.69 1371.5C1575.91 1371.56 1576.14 1371.62 1576.36 1371.67L1575.37 1372.66ZM1582.4 1356.56C1584.39 1357.8 1585.67 1359.75 1586.12 1361.88L1610.43 1337.48L1587.42 1348.31L1580.57 1355.71C1581.2 1355.91 1581.81 1356.19 1582.4 1356.56ZM1570.97 1367.81C1570.75 1367.44 1570.57 1367.06 1570.41 1366.68L1568.55 1368.68L1570.97 1367.81ZM1571.05 1359.23C1572.63 1356.66 1575.4 1355.27 1578.2 1355.32L1582.58 1350.59L1522.73 1378.75L1516.29 1387.61L1564.45 1370.17L1569.84 1364.34C1569.68 1362.61 1570.06 1360.82 1571.05 1359.23ZM1427.91 1520.6L1427.84 1520.59L1426.84 1521.67L1427.91 1520.6ZM1561.48 1373.37L1427.09 1518.46L1421.75 1517.69L1514.19 1390.5L1561.48 1373.37ZM1425.43 1520.24L1420.42 1519.52L1399.7 1548.02L1425.43 1520.24ZM1510.83 1391.72L1419.51 1517.36L1378.13 1511.37L1364.25 1453.33L1442.84 1416.35L1510.83 1391.72ZM1512.94 1388.83L1462.49 1407.1L1518.97 1380.52L1512.94 1388.83ZM1558.17 1434.36L1608.38 1349.75L1497.67 1651.49L1558.17 1434.36ZM1496.64 1682.03L1511.13 1693.86L1553.86 1753.62L1496.64 1682.03ZM1394.58 1619.97L1392.86 1597.82L1418.34 1618.49L1394.58 1619.97ZM1431.24 1626.37L1423.88 1620.4L1424.86 1620.09L1439.07 1619.21L1439.48 1619.68L1431.24 1626.37ZM1437.39 1617.31L1432.79 1617.6L1436.58 1616.4L1437.39 1617.31ZM1442.89 1635.83L1446.41 1627.52L1481.26 1666.94L1442.89 1635.83ZM1369.2 1673.7L1313.49 1673.42L1329.34 1650.21L1351.82 1643.12L1369.2 1673.7ZM1350.81 1641.34L1331.17 1647.53L1343.8 1629.02L1350.81 1641.34ZM1371.51 1673.71L1353.77 1642.5L1393.36 1630.02L1395.35 1655.53L1372.96 1673.72L1371.51 1673.71ZM1376.11 1673.73L1395.54 1657.95L1396.77 1673.84L1376.11 1673.73ZM1340.57 1623.33L1332.2 1608.61L1311.95 1625.1L1340.57 1623.33Z" fill="url(#paint0_linear_1841_768)" fill-opacity="0.5"/>
<path fill-rule="evenodd" clip-rule="evenodd" d="M262.396 4344.77C260.147 4348.54 261.231 4353.44 264.918 4355.89C268.713 4358.42 273.828 4357.38 276.344 4353.57C278.859 4349.77 277.822 4344.64 274.027 4342.12C270.691 4339.91 266.333 4340.44 263.619 4343.19L143.226 4249.55L108.387 4168.89L74.0429 4089.37L309.321 4040.39C309.887 4042.06 310.99 4043.56 312.572 4044.61C316.367 4047.13 321.482 4046.09 323.997 4042.29C326.513 4038.49 325.476 4033.36 321.681 4030.84C319.363 4029.3 316.553 4029.09 314.144 4030.02L75.4169 3769.1C77.1315 3765.83 76.4495 3761.82 73.8207 3759.3L248.434 3460.81C252.167 3462.93 256.955 3461.82 259.362 3458.18C261.877 3454.38 260.84 3449.25 257.045 3446.73C253.449 3444.34 248.666 3445.15 246.035 3448.48L186.24 3402.27L250.449 3341.17C250.71 3341.4 250.988 3341.61 251.282 3341.81C255.077 3344.33 260.193 3343.29 262.708 3339.49C265.224 3335.68 264.187 3330.56 260.392 3328.04C256.597 3325.51 251.482 3326.55 248.966 3330.36C248.733 3330.71 248.531 3331.07 248.358 3331.44L80.9094 3294.24L50.5953 3227.15L50.5062 3204.87C53.2134 3204.91 55.8816 3203.6 57.4887 3201.17C60.0041 3197.37 58.967 3192.25 55.1723 3189.72C54.1073 3189.02 52.9384 3188.59 51.7521 3188.43L80.7533 2995.72C83.8523 2996.22 87.1018 2994.92 88.9491 2992.13C91.4646 2988.32 90.4275 2983.2 86.6327 2980.68C83.5213 2978.61 79.522 2978.94 76.796 2981.22L14.5653 2905.92L96.4078 2836.12C96.8995 2836.71 97.4804 2837.23 98.1462 2837.67C101.941 2840.19 107.056 2839.15 109.572 2835.35C112.087 2831.55 111.05 2826.42 107.255 2823.9C103.769 2821.58 99.1677 2822.27 96.4923 2825.35L49.687 2800.6L123.165 2689.52C126.687 2690.86 130.79 2689.63 132.959 2686.35C135.475 2682.55 134.437 2677.42 130.643 2674.9C126.848 2672.38 121.733 2673.42 119.217 2677.22C118.762 2677.91 118.423 2678.65 118.195 2679.4L-160.912 2685.53L-1.54314 2635.42L-2.14278 2633.51L-161.352 2683.57C-161.863 2681.72 -163.018 2680.04 -164.743 2678.89C-165.856 2678.15 -167.083 2677.72 -168.324 2677.57L-178.565 2611.41L-180.54 2611.72L-170.344 2677.58C-172.636 2677.88 -174.792 2679.13 -176.168 2681.21C-178.684 2685.01 -177.647 2690.14 -173.852 2692.66C-171.602 2694.16 -168.886 2694.4 -166.525 2693.56L-69.0312 2965.74C-70.9571 2966.22 -72.7158 2967.4 -73.8991 2969.18C-76.4146 2972.99 -75.3774 2978.11 -71.5827 2980.64C-69.1884 2982.23 -66.2683 2982.4 -63.8073 2981.36L29.1613 3278.37C27.0685 3278.78 25.1337 3280 23.8627 3281.92C21.3472 3285.72 22.3843 3290.85 26.1791 3293.37C26.6226 3293.66 27.0842 3293.91 27.5575 3294.11L-5.30616 3385.61C-5.66844 3385.26 -6.06842 3384.94 -6.50483 3384.65C-10.2996 3382.13 -15.415 3383.16 -17.9305 3386.97C-20.4459 3390.77 -19.4089 3395.9 -15.6141 3398.42C-13.3077 3399.95 -10.5135 3400.17 -8.11157 3399.25L-5.81018 3410.19L-56.288 3582.39C-59.394 3581.87 -62.6551 3583.17 -64.507 3585.97C-67.0225 3589.78 -65.9854 3594.9 -62.1907 3597.42C-59.5248 3599.2 -56.2071 3599.21 -53.5969 3597.74L-18.2418 3645.99L-103.573 3792.09C-107.186 3790.47 -111.542 3791.65 -113.801 3795.07C-116.316 3798.87 -115.279 3804 -111.484 3806.52C-110.017 3807.49 -108.352 3807.94 -106.716 3807.89L-105.018 3862.04L-252.189 3945.3C-252.651 3944.78 -253.186 3944.32 -253.792 3943.91C-257.587 3941.39 -262.702 3942.43 -265.218 3946.23C-267.733 3950.04 -266.696 3955.16 -262.901 3957.69C-260.446 3959.32 -257.437 3959.46 -254.938 3958.32L-193.18 4112.08L-199.503 4115.44C-200.075 4114.63 -200.802 4113.91 -201.676 4113.33C-205.471 4110.81 -210.586 4111.85 -213.102 4115.65C-215.617 4119.46 -214.58 4124.58 -210.785 4127.1C-207.845 4129.06 -204.113 4128.87 -201.41 4126.92L-158.515 4201.69C-159.372 4202.28 -160.133 4203.04 -160.741 4203.96C-162.68 4206.89 -162.509 4210.61 -160.592 4213.31L-262.025 4289.76C-262.538 4289.13 -263.152 4288.56 -263.864 4288.09C-267.659 4285.57 -272.774 4286.61 -275.29 4290.41C-277.805 4294.22 -276.768 4299.34 -272.973 4301.86C-269.178 4304.38 -264.063 4303.34 -261.547 4299.54C-259.925 4297.09 -259.781 4294.09 -260.9 4291.59L-177.324 4235.36L-255.369 4325.59C-255.7 4325.28 -256.061 4324.99 -256.451 4324.73C-260.246 4322.21 -265.361 4323.25 -267.877 4327.05C-270.392 4330.86 -269.355 4335.98 -265.56 4338.5C-261.766 4341.02 -256.65 4339.99 -254.135 4336.18C-252.271 4333.36 -252.357 4329.82 -254.072 4327.15L-170.997 4231.1L-144.767 4213.45L177.122 4343.37L177.922 4343.88C175.513 4347.67 176.569 4352.71 180.321 4355.2C184.116 4357.72 189.231 4356.68 191.747 4352.88L191.789 4352.82L191.83 4352.75L223.855 4373.19C221.882 4376.9 223.011 4381.58 226.581 4383.95C230.376 4386.47 235.491 4385.43 238.007 4381.63C240.522 4377.82 239.485 4372.7 235.69 4370.18C232.95 4368.36 229.52 4368.39 226.879 4369.99L171.664 4315.39L144.873 4253.36L262.396 4344.77ZM247.74 3333.36L81.9393 3296.52L92.4719 3319.82C95.1612 3317.97 98.8114 3317.83 101.698 3319.75C105.492 3322.27 106.53 3327.39 104.014 3331.2C102.766 3333.08 100.878 3334.29 98.828 3334.72L184.638 3401.03L249.104 3339.69C247.81 3337.86 247.318 3335.56 247.74 3333.36ZM49.7357 3188.4L78.8177 2995.15C78.3738 2994.96 77.9407 2994.73 77.5235 2994.45C75.2857 2992.96 74.0069 2990.57 73.8501 2988.08L40.7847 2984.7L36.0711 3168.52L46.7388 3189.32C47.6726 3188.82 48.6917 3188.51 49.7357 3188.4ZM45.0886 3190.48L35.9641 3172.69L35.4282 3193.59L44.9297 3214.62L47.0266 3204.05C46.6979 3203.89 46.376 3203.7 46.063 3203.5C42.2682 3200.98 41.2312 3195.85 43.7466 3192.05C44.1364 3191.46 44.5886 3190.93 45.0886 3190.48ZM-4.18842 3396.1C-4.64235 3396.78 -5.18093 3397.38 -5.78114 3397.88L-3.63857 3402.78L21.7156 3316.29L-3.86075 3387.5C-2.40749 3390.12 -2.42552 3393.43 -4.18842 3396.1ZM30.1204 3294.72L-2.39146 3405.63L48.3474 3521.65C48.6097 3521.5 48.8793 3521.37 49.1547 3521.25L31.8792 3294.66C31.2988 3294.74 30.709 3294.76 30.1204 3294.72ZM33.8427 3294.13L49.696 3502.07L48.8829 3298.65L38.0544 3290.28C37.9197 3290.54 37.7699 3290.8 37.6048 3291.05C36.6525 3292.49 35.3276 3293.53 33.8427 3294.13ZM38.8856 3287.72L48.8657 3294.35L48.8449 3289.16L38.9644 3286.97C38.9574 3287.09 38.9478 3287.21 38.9356 3287.33C38.9221 3287.46 38.9055 3287.59 38.8856 3287.72ZM38.8217 3284.88L48.8367 3287.11L48.5988 3227.59L45.6766 3221.12L34.1966 3278.98C34.5698 3279.16 34.9348 3279.36 35.2884 3279.6C37.1993 3280.86 38.4108 3282.79 38.8217 3284.88ZM31.2589 3278.24L33.419 3194L-59.5533 2988.26L31.2114 3278.23L31.2589 3278.24ZM75.2071 2983C75.2763 2982.89 75.3474 2982.79 75.4205 2982.69L13.0442 2907.22L5.66981 2913.51L36.4776 2954.05C38.9876 2952.89 42.0221 2953.02 44.4956 2954.67C48.2904 2957.19 49.3274 2962.31 46.812 2966.12C45.4715 2968.14 43.3926 2969.39 41.1687 2969.72L40.8362 2982.69L73.967 2986.08C74.1614 2985.01 74.5705 2983.96 75.2071 2983ZM-60.9637 2979.35L34.1674 3164.81L38.7911 2984.49L-58.8181 2974.51C-58.9385 2975.83 -59.3769 2977.13 -60.1571 2978.31C-60.4024 2978.68 -60.6725 2979.03 -60.9637 2979.35ZM-59.2134 2971.12L31.7269 2960.84C31.8413 2959.5 32.2808 2958.18 33.0699 2956.99C33.5513 2956.26 34.128 2955.63 34.7724 2955.11L4.14654 2914.81L-59.9662 2969.48C-59.6549 2970 -59.4032 2970.55 -59.2134 2971.12ZM-62.6204 2966.77L-13.1731 2892.01L-164.674 2692.62L-164.726 2692.65L-66.9986 2965.49C-65.4961 2965.49 -63.9784 2965.91 -62.6204 2966.77ZM95.3647 2827.01L48.578 2802.28L-4.62072 2882.71L13.2903 2904.38L95.3044 2834.43C94.1822 2832.15 94.1453 2829.39 95.3647 2827.01ZM121.389 2688.58C118.978 2686.9 117.728 2684.16 117.852 2681.41L-161.243 2687.54C-161.341 2687.99 -161.477 2688.44 -161.653 2688.87L47.9103 2799.66L121.389 2688.58ZM-162.987 2691.09L-5.95266 2881.1L46.8014 2801.34L-162.622 2690.62L-162.659 2690.67L-162.7 2690.73L-162.718 2690.75C-162.805 2690.87 -162.895 2690.98 -162.987 2691.09ZM-51.987 3596.56L-17.1427 3644.11L27.3684 3567.91L22.8782 3546.56L-50.0058 3587.41C-49.0098 3589.85 -49.199 3592.74 -50.765 3595.1C-51.1234 3595.64 -51.5345 3596.13 -51.987 3596.56ZM-50.9799 3585.66L22.4464 3544.51L-4.93991 3414.32L-54.3706 3582.95C-53.9285 3583.14 -53.497 3583.38 -53.0814 3583.65C-52.2437 3584.21 -51.5403 3584.89 -50.9799 3585.66ZM-101.86 3793.12C-100.849 3793.91 -100.067 3794.89 -99.5321 3795.99L59.8699 3765.22C59.8761 3763.66 60.3208 3762.09 61.2432 3760.7C61.9587 3759.62 62.8845 3758.76 63.9304 3758.14L-16.9532 3647.75L-101.86 3793.12ZM-100.059 3804.2C-100.148 3804.33 -100.24 3804.46 -100.336 3804.59L-72.7396 3843.78L60.491 3768.41C60.332 3768.02 60.2029 3767.62 60.1043 3767.21L-98.8705 3797.9C-98.4203 3800 -98.7816 3802.27 -100.059 3804.2ZM-101.746 3806.06C-102.159 3806.39 -102.599 3806.68 -103.06 3806.93L-92.3571 3854.88L-74.4876 3844.77L-101.746 3806.06ZM72.2095 3758.09L246.818 3459.61C246.099 3458.93 245.524 3458.14 245.102 3457.29L60.4773 3527.17C60.9056 3529.25 60.5384 3531.5 59.275 3533.41C57.6891 3535.8 55.0699 3537.1 52.3997 3537.1L70.143 3757.25C70.8526 3757.43 71.5479 3757.71 72.2095 3758.09ZM244.44 3455.4L59.8399 3525.27C59.553 3524.67 59.1916 3524.1 58.7587 3523.58L184.775 3403.67L244.986 3450.2C244.228 3451.86 244.065 3453.69 244.44 3455.4ZM183.173 3402.43L57.3042 3522.2C57.1916 3522.12 57.0764 3522.03 56.9586 3521.96C55.955 3521.29 54.8591 3520.87 53.7433 3520.69L93.1895 3333.88C93.9587 3334.3 94.7708 3334.59 95.5964 3334.75L183.173 3402.43ZM51.7673 3520.37L91.4214 3332.58C90.6973 3331.88 90.1218 3331.07 89.7044 3330.2L50.8872 3300.2L51.7673 3520.37ZM88.9097 3327.05C88.8515 3325.93 89.0211 3324.79 89.4333 3323.7L54.8119 3300.7L88.9097 3327.05ZM90.3696 3321.92C90.5396 3321.68 90.7207 3321.44 90.9118 3321.22L79.5018 3295.97L50.8449 3289.61L50.8692 3295.68L90.3696 3321.92ZM-3.26669 3408.62L46.7021 3522.87C46.2704 3523.29 45.8773 3523.76 45.5329 3524.28C43.9625 3526.65 43.7768 3529.54 44.7821 3531.99L24.2728 3543.49L-3.75117 3410.27L-3.26669 3408.62ZM24.7046 3545.54L45.761 3533.74C46.0395 3534.12 46.353 3534.48 46.7006 3534.81L28.8695 3565.34L24.7046 3545.54ZM29.4827 3568.25L48.3125 3536.01C48.9729 3536.39 49.6667 3536.67 50.3748 3536.85L67.4532 3748.75L29.4827 3568.25ZM67.1586 3757.06L27.9816 3570.82L-15.8541 3645.87L65.8128 3757.33C66.2531 3757.2 66.7033 3757.11 67.1586 3757.06ZM61.469 3770.15L-71.5815 3845.43L-49.5483 3876.72L61.7672 3770.54C61.7428 3770.51 61.7186 3770.48 61.6947 3770.45C61.6171 3770.35 61.5418 3770.25 61.469 3770.15ZM63.2238 3771.91L-48.3835 3878.37L9.00648 3959.87L65.9529 3773.24C65.1234 3773.01 64.3153 3772.65 63.5596 3772.15C63.4451 3772.07 63.3332 3771.99 63.2238 3771.91ZM69.2151 3773.45L33.8706 3986.66C34.5281 3986.89 35.1679 3987.2 35.7741 3987.6C38.008 3989.09 39.2862 3991.47 39.4466 3993.96L309.437 4034.74C309.648 4034.2 309.92 4033.67 310.255 4033.16C310.828 4032.3 311.535 4031.57 312.331 4031L74.2494 3770.78C72.9118 3772.28 71.1119 3773.19 69.2151 3773.45ZM308.912 4038.43C308.863 4037.85 308.874 4037.27 308.946 4036.69L39.3317 3995.97C39.1377 3997.04 38.7284 3998.09 38.0905 3999.05C37.5086 3999.93 36.7875 4000.66 35.9759 4001.24L73.2326 4087.49L308.912 4038.43ZM-28.8986 4110.8L11.6269 4102.37L4.71231 4141.81L-30.3772 4114.51C-30.3592 4114.49 -30.3413 4114.46 -30.3236 4114.44L-30.306 4114.41C-30.2693 4114.36 -30.2332 4114.31 -30.1976 4114.25C-29.4872 4113.18 -29.0602 4112 -28.8986 4110.8ZM-32.7225 4116.71C-32.6606 4116.67 -32.5993 4116.63 -32.5383 4116.59L2.58117 4153.96L-2.25805 4181.57C-3.06835 4181.49 -3.88253 4181.54 -4.67313 4181.7L-32.7225 4116.71ZM-7.57515 4196.68C-9.53016 4195.38 -10.7532 4193.39 -11.1357 4191.25L-44.6974 4195.67L133.64 4293.42L4.29126 4155.78L-0.30361 4181.99C0.330811 4182.22 0.948202 4182.52 1.53408 4182.91C5.32885 4185.43 6.36593 4190.56 3.85049 4194.36C1.33506 4198.16 -3.78037 4199.2 -7.57515 4196.68ZM-11.247 4189.24C-11.2315 4189.01 -11.206 4188.77 -11.1703 4188.54L-78.4994 4176.14C-78.5073 4176.34 -78.5226 4176.54 -78.5454 4176.75L-78.5546 4176.82L-78.5627 4176.89C-78.5718 4176.96 -78.5818 4177.03 -78.5927 4177.1L-47.6668 4194.05L-11.247 4189.24ZM-9.89154 4185.23C-9.03539 4183.94 -7.87804 4182.96 -6.57413 4182.34L-34.5362 4117.55C-36.2592 4118.11 -38.1524 4118.09 -39.907 4117.45L-82.1532 4168.94C-80.3023 4170.18 -79.1129 4172.05 -78.6785 4174.07L-10.6261 4186.6C-10.4285 4186.13 -10.184 4185.67 -9.89154 4185.23ZM-91.2921 4182.7C-92.5717 4181.85 -93.5377 4180.7 -94.1597 4179.41L-132.571 4205.25L-55.3088 4195.06L-79.4418 4179.66C-79.57 4179.9 -79.7115 4180.14 -79.8665 4180.37C-82.3819 4184.18 -87.4973 4185.22 -91.2921 4182.7ZM-94.8191 4177.44C-95.211 4175.49 -94.903 4173.39 -93.8121 4171.57L-102.176 4167.71L-146.541 4204.74C-146.176 4205.45 -145.917 4206.21 -145.77 4206.99L-137.031 4205.84L-94.8191 4177.44ZM-92.5492 4169.95C-92.2867 4169.69 -92.0091 4169.44 -91.7188 4169.22L-96.4822 4162.95L-100.476 4166.29L-92.5492 4169.95ZM-89.9776 4168.21C-89.9037 4168.18 -89.8292 4168.15 -89.7544 4168.12L-92.2069 4159.39L-94.0268 4160.9L-94.9461 4161.67L-89.9776 4168.21ZM-87.8197 4167.62C-86.5473 4167.45 -85.2319 4167.58 -83.9837 4168.02L-43.646 4118.85L-90.5256 4157.98L-87.8197 4167.62ZM-44.7453 4112.7C-44.3308 4113.77 -43.6938 4114.75 -42.8501 4115.58L-91.1184 4155.87L-94.1384 4145.11L-94.2391 4141.9L-70.193 4113.91L-44.7453 4112.7ZM-44.6072 4106.34C-45.2294 4107.75 -45.4317 4109.26 -45.2477 4110.72L-68.398 4111.82L-56.3272 4097.77L-44.6072 4106.34ZM-43.3012 4104.28C-43.3958 4104.39 -43.4879 4104.5 -43.5774 4104.62L-55.02 4096.25L-51.7575 4092.45L-42.999 4103.95C-43.1023 4104.06 -43.2031 4104.17 -43.3012 4104.28ZM-39.3059 4101.74C-40.0563 4101.95 -40.7784 4102.27 -41.4475 4102.69L-50.4257 4090.9L-43.5191 4082.86L-39.3059 4101.74ZM-34.3283 4101.9C-35.3046 4101.55 -36.3218 4101.4 -37.3271 4101.43L-41.8941 4080.97L-20.2594 4055.79L-34.3283 4101.9ZM-32.4354 4102.86C-32.4615 4102.84 -32.4877 4102.82 -32.514 4102.8L-17.0184 4052.01L25.4542 4002.57L-32.4354 4102.86ZM-30.9034 4104.2C-29.7595 4105.49 -29.0679 4107.09 -28.8778 4108.75L11.999 4100.24L29.1378 4002.48C28.7644 4002.39 28.395 4002.26 28.0327 4002.11L-30.9034 4104.2ZM14.105 4099.81L31.1203 4002.75C32.1763 4002.76 33.2263 4002.57 34.2094 4002.19L71.2356 4087.91L14.105 4099.81ZM66.2511 3779.11L31.9127 3986.25C30.583 3986.14 29.245 3986.36 28.0199 3986.87L10.4646 3961.94L66.2511 3779.11ZM9.72564 3964.36L26.2787 3987.87C25.5421 3988.42 24.8859 3989.11 24.3484 3989.92C23.9879 3990.47 23.7003 3991.04 23.4834 3991.63L2.32099 3988.63L9.72564 3964.36ZM1.72971 3990.57L23.0236 3993.58C22.8954 3994.76 23.0225 3995.95 23.3877 3997.07L-4.82429 4012.05L1.72971 3990.57ZM-5.64956 4014.75L24.2369 3998.88C24.4761 3999.26 24.7483 3999.63 25.0525 3999.97L-15.5657 4047.25L-5.64956 4014.75ZM-18.8067 4051.03L-42.438 4078.53L-51.2663 4038.98L-8.14356 4016.08L-18.8067 4051.03ZM-44.063 4080.42L-53.0965 4039.95L-78.8266 4053.62L-51.6652 4089.27L-44.063 4080.42ZM-7.31828 4013.37L-51.7185 4036.95L-64.1536 3981.24L-0.273643 3990.29L-7.31828 4013.37ZM-53.5488 4037.93L-66.2676 3980.94L-99.4359 3976.25L-97.7897 4028.72L-80.0558 4052L-53.5488 4037.93ZM0.317606 3988.35L-64.6195 3979.15L-80.3157 3908.83L-49.8458 3879.77L8.26751 3962.29L0.317606 3988.35ZM-66.7335 3978.85L-82.0036 3910.44L-100.934 3928.5L-99.4996 3974.21L-66.7335 3978.85ZM-51.0106 3878.11L-80.8246 3906.55L-91.9014 3856.92L-73.3296 3846.42L-51.0106 3878.11ZM-82.5125 3908.16L-93.719 3857.95L-102.982 3863.19L-101.018 3925.81L-82.5125 3908.16ZM-251.047 3946.96C-250.605 3947.8 -250.314 3948.72 -250.182 3949.66L-150.278 3966.85C-148.128 3963.76 -144.225 3962.58 -140.813 3963.77L-102.959 3927.66L-104.947 3864.3L-251.047 3946.96ZM-135.654 3969.1C-136.195 3967.37 -137.302 3965.81 -138.914 3964.72L-102.875 3930.35L-101.508 3973.93L-135.654 3969.1ZM-137.24 3976.93C-137.029 3976.68 -136.831 3976.42 -136.647 3976.14C-135.636 3974.61 -135.198 3972.87 -135.284 3971.17L-101.444 3975.96L-99.8747 4025.99L-137.24 3976.93ZM-140.681 3979.33C-139.988 3979.08 -139.326 3978.73 -138.715 3978.29L-99.7668 4029.43L-98.7471 4061.93L-100.595 4062.91L-121.513 4047.61L-140.681 3979.33ZM-144.058 3979.82C-143.58 3979.85 -143.102 3979.84 -142.629 3979.79L-124.124 4045.7L-145.831 4029.82L-144.058 3979.82ZM-151.252 3968.71C-152.551 3972.23 -151.325 3976.3 -148.072 3978.46C-147.428 3978.89 -146.745 3979.22 -146.044 3979.44L-147.78 4028.4L-250.479 3953.27C-250.316 3952.75 -250.207 3952.22 -250.15 3951.69L-151.252 3968.71ZM-251.476 3955.36C-251.505 3955.41 -251.535 3955.45 -251.566 3955.5L-150.027 4089.16L-149.933 4089.11L-147.866 4030.81L-251.327 3955.13C-251.375 3955.21 -251.424 3955.29 -251.476 3955.36ZM-253.054 3957.14L-253.099 3957.17L-253.141 3957.21C-253.164 3957.23 -253.187 3957.24 -253.21 3957.26L-191.405 4111.14L-151.816 4090.11L-252.919 3957.02C-252.964 3957.06 -253.009 3957.1 -253.054 3957.14ZM-199.91 4125.52L-159.464 4196.02L-186.471 4128.78L-198.545 4123.21C-198.755 4123.75 -199.026 4124.28 -199.36 4124.78C-199.392 4124.83 -199.426 4124.88 -199.459 4124.93L-199.515 4125.01C-199.641 4125.19 -199.773 4125.36 -199.91 4125.52ZM-198.048 4121.23L-187.557 4126.08L-190.155 4119.61L-197.99 4119.98C-197.978 4120.4 -197.997 4120.82 -198.048 4121.23ZM-198.291 4117.99L-190.945 4117.64L-192.43 4113.95L-198.555 4117.2C-198.543 4117.23 -198.532 4117.26 -198.521 4117.29C-198.507 4117.33 -198.493 4117.37 -198.479 4117.4C-198.409 4117.6 -198.346 4117.79 -198.291 4117.99ZM192.697 4350.93L225 4371.54C225.096 4371.44 225.194 4371.33 225.294 4371.23L173.784 4320.29L182.473 4340.41C184.745 4339.72 187.297 4340.01 189.43 4341.43C192.607 4343.54 193.851 4347.48 192.697 4350.93ZM179.412 4342.13L153.787 4314.86C152.643 4314.68 151.518 4314.26 150.49 4313.58C148.329 4312.14 147.062 4309.86 146.836 4307.46L142.177 4302.51L92.3567 4286.91L178.039 4341.58L179.406 4342.13L179.412 4342.13ZM-155.54 4200.43C-154.993 4200.32 -154.434 4200.26 -153.874 4200.26L-151.905 4144.74L-183.827 4130L-155.54 4200.43ZM-148.814 4202C-148.752 4202.05 -148.691 4202.09 -148.63 4202.14L-114.254 4162.13L-149.938 4145.65L-151.883 4200.5C-150.993 4200.72 -150.124 4201.1 -149.316 4201.64C-149.143 4201.75 -148.975 4201.87 -148.814 4202ZM-145.639 4208.99C-145.662 4209.41 -145.717 4209.83 -145.805 4210.24L-144.283 4210.72L-140.765 4208.35L-145.639 4208.99ZM-153.267 4216.76C-154.787 4216.87 -156.347 4216.57 -157.765 4215.8L-166.006 4225.33L-153.267 4216.76ZM78.472 3293.69L50.8367 3287.55L50.6148 3232.05L78.472 3293.69ZM48.5157 3206.81L48.5792 3222.69L46.3456 3217.75L48.5157 3206.81ZM34.0604 3168.98L33.5367 3189.41L-47.9033 3009.19L34.0604 3168.98ZM-56.0789 2972.78L31.7986 2962.84C32.1474 2965.05 33.3823 2967.11 35.3863 2968.44C36.5594 2969.22 37.8587 2969.66 39.1683 2969.78L38.8426 2982.48L-56.0789 2972.78ZM11.7693 2905.68L-5.77353 2884.45L-10.7229 2891.93L4.45727 2911.91L11.7693 2905.68ZM-7.10547 2882.84L-12.0048 2890.25L-137.591 2724.96L-7.10547 2882.84ZM-60.6844 2967.47L-11.8912 2893.7L2.93406 2913.21L-60.6844 2967.47ZM35.3105 3198.18L33.3988 3272.73L44.2607 3217.99L35.3105 3198.18ZM-4.51376 3405.77L-4.87026 3404.95L-4.62152 3406.13L-4.51376 3405.77ZM-94.1748 3855.91L-104.689 3808.8L-103.053 3860.93L-94.1748 3855.91ZM-98.8001 4064.22L-98.6772 4064.16L-98.6722 4064.32L-98.8001 4064.22ZM-96.7107 4063.11L-96.6261 4065.81L-56.6396 4095.06L-52.9969 4090.82L-80.6155 4054.57L-96.7107 4063.11ZM-100.763 4065.27L-98.5926 4066.85L-97.1391 4113.19L-103.023 4113.47L-114.506 4072.57L-100.763 4065.27ZM-96.5465 4068.35L-95.143 4113.09L-71.1475 4111.95L-57.9467 4096.59L-96.5465 4068.35ZM-102.468 4115.44L-97.0763 4115.19L-96.389 4137.1L-102.468 4115.44ZM-104.516 4115.54L-97.0567 4142.11L-103.823 4149.99L-129.101 4116.71L-104.516 4115.54ZM-131.524 4116.82L-105.155 4151.54L-112.899 4160.55L-149.861 4143.48L-148.945 4117.65L-131.524 4116.82ZM-103.917 4153.17L-111.011 4161.42L-102.487 4165.36L-97.6939 4161.36L-103.917 4153.17ZM-151.829 4142.58L-184.914 4127.3L-188.042 4119.51L-150.948 4117.75L-151.829 4142.58ZM-150.877 4115.74L-188.832 4117.54L-190.655 4113.01L-150.589 4091.73L-150.051 4092.44L-150.877 4115.74ZM-141.836 4211.48L-136.305 4207.76L-52.6864 4196.73L78.604 4280.5L-141.836 4211.48ZM85.9046 4282.79L-49.6052 4196.32L-48.0518 4196.12L138.06 4298.12L139.385 4299.53L85.9046 4282.79ZM-52.2277 4194.65L-51.0211 4194.49L-61.3448 4188.83L-52.2277 4194.65ZM139.297 4296.52L4.72253 4153.32L4.75371 4153.15L147.14 4293.95L149.351 4300.72C149.068 4300.99 148.802 4301.28 148.555 4301.6L139.297 4296.52ZM146.064 4303.72L147.22 4304.08C147.147 4304.3 147.083 4304.53 147.03 4304.75L146.064 4303.72ZM161.915 4311.26C160.62 4313.21 158.636 4314.44 156.497 4314.82L180.086 4339.92L169.984 4316.54L162.817 4309.45C162.596 4310.07 162.297 4310.68 161.915 4311.26ZM151.045 4299.47C151.414 4299.26 151.797 4299.09 152.19 4298.94L150.245 4297.02L151.045 4299.47ZM159.599 4299.81C162.11 4301.47 163.413 4304.28 163.279 4307.09L167.864 4311.63L141.596 4250.81L132.957 4244.09L148.888 4292.86L154.533 4298.45C156.264 4298.34 158.042 4298.77 159.599 4299.81ZM3.01251 4151.5L3.02447 4151.44L1.94794 4150.37L3.01251 4151.5ZM145.783 4289.79L5.17378 4150.75L6.10701 4145.43L130.139 4241.9L145.783 4289.79ZM3.44454 4149.04L4.32145 4144.04L-23.4876 4122.41L3.44454 4149.04ZM129.03 4238.5L6.49785 4143.2L13.7329 4101.93L72.046 4089.79L106.535 4169.64L129.03 4238.5ZM131.848 4240.7L115.159 4189.6L139.948 4247L131.848 4240.7ZM85.0561 4284.62L167.921 4337.5L-129.676 4217.39L85.0561 4284.62ZM-160.096 4215.44L-172.333 4229.59L-233.22 4270.55L-160.096 4215.44ZM-95.0801 4115.09L-72.9425 4114.04L-94.3321 4138.94L-95.0801 4115.09ZM-102.585 4151.62L-96.4071 4144.42L-96.128 4145.42L-95.6807 4159.68L-96.1578 4160.08L-102.585 4151.62ZM-93.7325 4158.05L-93.8773 4153.44L-92.7998 4157.27L-93.7325 4158.05ZM-112.366 4163L-104.187 4166.78L-144.565 4200.48L-112.366 4163ZM-147.895 4088.03L-145.917 4032.24L-123.249 4048.82L-116.866 4071.55L-147.895 4088.03ZM-115.06 4070.59L-120.637 4050.73L-102.558 4063.95L-115.06 4070.59ZM-147.977 4090.34L-116.312 4073.52L-105.071 4113.56L-130.571 4114.78L-148.028 4091.79L-147.977 4090.34ZM-148.14 4094.95L-132.993 4114.89L-148.874 4115.64L-148.14 4094.95ZM-96.7807 4060.89L-81.8447 4052.95L-97.6818 4032.16L-96.7807 4060.89Z" fill="url(#paint1_linear_1841_768)" fill-opacity="0.6"/>
<path d="M1244.73 7062.33L1429.47 7998.55M1244.73 7062.33L825.872 7719.85M1244.73 7062.33L456.258 7322.15L959.066 7031.76L1302.35 7895.97M1514.74 8430.65L1452.47 7589.01L686.528 7311.16M1514.74 8430.65L1429.47 7998.55M1514.74 8430.65L833.833 6975.72L825.872 7719.85M1514.74 8430.65L1302.35 7895.97M686.528 7311.16L1546.29 7853.15L1429.47 7998.55M686.528 7311.16L855.386 7514.42M686.528 7311.16L496.264 7005.85L1302.35 7895.97M1429.47 7998.55L855.386 7514.42M855.386 7514.42L85.6547 7351.79L959.823 6791.61L825.872 7719.85M855.386 7514.42L1791.42 7722.26L592.683 7616.47L1030.35 7392.85L1534.92 7914.11L1061.72 7114.6L780.947 7790.37L825.872 7719.85" stroke="url(#paint2_linear_1841_768)" stroke-opacity="0.7" stroke-width="3"/>
<defs>
<filter id="filter0_d_1841_768" x="-528.184" y="436.517" width="1144.41" height="471.672" filterUnits="userSpaceOnUse" color-interpolation-filters="sRGB">
<feFlood flood-opacity="0" result="BackgroundImageFix"/>
<feColorMatrix in="SourceAlpha" type="matrix" values="0 0 0 0 0 0 0 0 0 0 0 0 0 0 0 0 0 0 127 0" result="hardAlpha"/>
<feOffset/>
<feGaussianBlur stdDeviation="5"/>
<feColorMatrix type="matrix" values="0 0 0 0 0.131632 0 0 0 0 0.929167 0 0 0 0 0.881315 0 0 0 1 0"/>
<feBlend mode="normal" in2="BackgroundImageFix" result="effect1_dropShadow_1841_768"/>
<feBlend mode="normal" in="SourceGraphic" in2="effect1_dropShadow_1841_768" result="shape"/>
</filter>
<filter id="filter1_d_1841_768" x="-531.444" y="437.035" width="1153.6" height="402.349" filterUnits="userSpaceOnUse" color-interpolation-filters="sRGB">
<feFlood flood-opacity="0" result="BackgroundImageFix"/>
<feColorMatrix in="SourceAlpha" type="matrix" values="0 0 0 0 0 0 0 0 0 0 0 0 0 0 0 0 0 0 127 0" result="hardAlpha"/>
<feOffset/>
<feGaussianBlur stdDeviation="5"/>
<feColorMatrix type="matrix" values="0 0 0 0 0 0 0 0 0 0 0 0 0 0 0 0 0 0 1 0"/>
<feBlend mode="normal" in2="BackgroundImageFix" result="effect1_dropShadow_1841_768"/>
<feBlend mode="normal" in="SourceGraphic" in2="effect1_dropShadow_1841_768" result="shape"/>
</filter>
<filter id="filter2_d_1841_768" x="-523.587" y="440.75" width="1143.51" height="519.706" filterUnits="userSpaceOnUse" color-interpolation-filters="sRGB">
<feFlood flood-opacity="0" result="BackgroundImageFix"/>
<feColorMatrix in="SourceAlpha" type="matrix" values="0 0 0 0 0 0 0 0 0 0 0 0 0 0 0 0 0 0 127 0" result="hardAlpha"/>
<feOffset/>
<feGaussianBlur stdDeviation="5"/>
<feColorMatrix type="matrix" values="0 0 0 0 0 0 0 0 0 0 0 0 0 0 0 0 0 0 1 0"/>
<feBlend mode="normal" in2="BackgroundImageFix" result="effect1_dropShadow_1841_768"/>
<feBlend mode="normal" in="SourceGraphic" in2="effect1_dropShadow_1841_768" result="shape"/>
</filter>
<filter id="filter3_d_1841_768" x="-518.571" y="443.393" width="1140.43" height="1181.2" filterUnits="userSpaceOnUse" color-interpolation-filters="sRGB">
<feFlood flood-opacity="0" result="BackgroundImageFix"/>
<feColorMatrix in="SourceAlpha" type="matrix" values="0 0 0 0 0 0 0 0 0 0 0 0 0 0 0 0 0 0 127 0" result="hardAlpha"/>
<feOffset/>
<feGaussianBlur stdDeviation="5"/>
<feColorMatrix type="matrix" values="0 0 0 0 0.131632 0 0 0 0 0.929167 0 0 0 0 0.881315 0 0 0 1 0"/>
<feBlend mode="normal" in2="BackgroundImageFix" result="effect1_dropShadow_1841_768"/>
<feBlend mode="normal" in="SourceGraphic" in2="effect1_dropShadow_1841_768" result="shape"/>
</filter>
<filter id="filter4_d_1841_768" x="-524.949" y="441.805" width="1143.83" height="593.405" filterUnits="userSpaceOnUse" color-interpolation-filters="sRGB">
<feFlood flood-opacity="0" result="BackgroundImageFix"/>
<feColorMatrix in="SourceAlpha" type="matrix" values="0 0 0 0 0 0 0 0 0 0 0 0 0 0 0 0 0 0 127 0" result="hardAlpha"/>
<feOffset/>
<feGaussianBlur stdDeviation="5"/>
<feColorMatrix type="matrix" values="0 0 0 0 0.131632 0 0 0 0 0.929167 0 0 0 0 0.881315 0 0 0 1 0"/>
<feBlend mode="normal" in2="BackgroundImageFix" result="effect1_dropShadow_1841_768"/>
<feBlend mode="normal" in="SourceGraphic" in2="effect1_dropShadow_1841_768" result="shape"/>
</filter>
<filter id="filter5_d_1841_768" x="-523.809" y="444.675" width="1146.94" height="936.476" filterUnits="userSpaceOnUse" color-interpolation-filters="sRGB">
<feFlood flood-opacity="0" result="BackgroundImageFix"/>
<feColorMatrix in="SourceAlpha" type="matrix" values="0 0 0 0 0 0 0 0 0 0 0 0 0 0 0 0 0 0 127 0" result="hardAlpha"/>
<feOffset/>
<feGaussianBlur stdDeviation="5"/>
<feColorMatrix type="matrix" values="0 0 0 0 0 0 0 0 0 0 0 0 0 0 0 0 0 0 1 0"/>
<feBlend mode="normal" in2="BackgroundImageFix" result="effect1_dropShadow_1841_768"/>
<feBlend mode="normal" in="SourceGraphic" in2="effect1_dropShadow_1841_768" result="shape"/>
</filter>
<filter id="filter6_d_1841_768" x="-531.795" y="451.331" width="1162.9" height="1313.49" filterUnits="userSpaceOnUse" color-interpolation-filters="sRGB">
<feFlood flood-opacity="0" result="BackgroundImageFix"/>
<feColorMatrix in="SourceAlpha" type="matrix" values="0 0 0 0 0 0 0 0 0 0 0 0 0 0 0 0 0 0 127 0" result="hardAlpha"/>
<feOffset/>
<feGaussianBlur stdDeviation="5"/>
<feColorMatrix type="matrix" values="0 0 0 0 0.131632 0 0 0 0 0.929167 0 0 0 0 0.881315 0 0 0 1 0"/>
<feBlend mode="normal" in2="BackgroundImageFix" result="effect1_dropShadow_1841_768"/>
<feBlend mode="normal" in="SourceGraphic" in2="effect1_dropShadow_1841_768" result="shape"/>
</filter>
<filter id="filter7_d_1841_768" x="233.567" y="454.109" width="398.946" height="873.56" filterUnits="userSpaceOnUse" color-interpolation-filters="sRGB">
<feFlood flood-opacity="0" result="BackgroundImageFix"/>
<feColorMatrix in="SourceAlpha" type="matrix" values="0 0 0 0 0 0 0 0 0 0 0 0 0 0 0 0 0 0 127 0" result="hardAlpha"/>
<feOffset/>
<feGaussianBlur stdDeviation="5"/>
<feColorMatrix type="matrix" values="0 0 0 0 0 0 0 0 0 0 0 0 0 0 0 0 0 0 1 0"/>
<feBlend mode="normal" in2="BackgroundImageFix" result="effect1_dropShadow_1841_768"/>
<feBlend mode="normal" in="SourceGraphic" in2="effect1_dropShadow_1841_768" result="shape"/>
</filter>
<filter id="filter8_d_1841_768" x="-251.903" y="455.385" width="885.71" height="1382.17" filterUnits="userSpaceOnUse" color-interpolation-filters="sRGB">
<feFlood flood-opacity="0" result="BackgroundImageFix"/>
<feColorMatrix in="SourceAlpha" type="matrix" values="0 0 0 0 0 0 0 0 0 0 0 0 0 0 0 0 0 0 127 0" result="hardAlpha"/>
<feOffset/>
<feGaussianBlur stdDeviation="5"/>
<feColorMatrix type="matrix" values="0 0 0 0 0 0 0 0 0 0 0 0 0 0 0 0 0 0 1 0"/>
<feBlend mode="normal" in2="BackgroundImageFix" result="effect1_dropShadow_1841_768"/>
<feBlend mode="normal" in="SourceGraphic" in2="effect1_dropShadow_1841_768" result="shape"/>
</filter>
<filter id="filter9_d_1841_768" x="177.71" y="457.074" width="459.022" height="803.641" filterUnits="userSpaceOnUse" color-interpolation-filters="sRGB">
<feFlood flood-opacity="0" result="BackgroundImageFix"/>
<feColorMatrix in="SourceAlpha" type="matrix" values="0 0 0 0 0 0 0 0 0 0 0 0 0 0 0 0 0 0 127 0" result="hardAlpha"/>
<feOffset/>
<feGaussianBlur stdDeviation="5"/>
<feColorMatrix type="matrix" values="0 0 0 0 0 0 0 0 0 0 0 0 0 0 0 0 0 0 1 0"/>
<feBlend mode="normal" in2="BackgroundImageFix" result="effect1_dropShadow_1841_768"/>
<feBlend mode="normal" in="SourceGraphic" in2="effect1_dropShadow_1841_768" result="shape"/>
</filter>
<filter id="filter10_d_1841_768" x="274.866" y="465.986" width="381.397" height="945.297" filterUnits="userSpaceOnUse" color-interpolation-filters="sRGB">
<feFlood flood-opacity="0" result="BackgroundImageFix"/>
<feColorMatrix in="SourceAlpha" type="matrix" values="0 0 0 0 0 0 0 0 0 0 0 0 0 0 0 0 0 0 127 0" result="hardAlpha"/>
<feOffset/>
<feGaussianBlur stdDeviation="5"/>
<feColorMatrix type="matrix" values="0 0 0 0 0.131632 0 0 0 0 0.929167 0 0 0 0 0.881315 0 0 0 1 0"/>
<feBlend mode="normal" in2="BackgroundImageFix" result="effect1_dropShadow_1841_768"/>
<feBlend mode="normal" in="SourceGraphic" in2="effect1_dropShadow_1841_768" result="shape"/>
</filter>
<filter id="filter11_d_1841_768" x="406.066" y="468.578" width="250.161" height="942.737" filterUnits="userSpaceOnUse" color-interpolation-filters="sRGB">
<feFlood flood-opacity="0" result="BackgroundImageFix"/>
<feColorMatrix in="SourceAlpha" type="matrix" values="0 0 0 0 0 0 0 0 0 0 0 0 0 0 0 0 0 0 127 0" result="hardAlpha"/>
<feOffset/>
<feGaussianBlur stdDeviation="5"/>
<feColorMatrix type="matrix" values="0 0 0 0 0 0 0 0 0 0 0 0 0 0 0 0 0 0 1 0"/>
<feBlend mode="normal" in2="BackgroundImageFix" result="effect1_dropShadow_1841_768"/>
<feBlend mode="normal" in="SourceGraphic" in2="effect1_dropShadow_1841_768" result="shape"/>
</filter>
<filter id="filter12_d_1841_768" x="554.586" y="-83.5114" width="1150.8" height="953.812" filterUnits="userSpaceOnUse" color-interpolation-filters="sRGB">
<feFlood flood-opacity="0" result="BackgroundImageFix"/>
<feColorMatrix in="SourceAlpha" type="matrix" values="0 0 0 0 0 0 0 0 0 0 0 0 0 0 0 0 0 0 127 0" result="hardAlpha"/>
<feOffset/>
<feGaussianBlur stdDeviation="5"/>
<feColorMatrix type="matrix" values="0 0 0 0 0 0 0 0 0 0 0 0 0 0 0 0 0 0 1 0"/>
<feBlend mode="normal" in2="BackgroundImageFix" result="effect1_dropShadow_1841_768"/>
<feBlend mode="normal" in="SourceGraphic" in2="effect1_dropShadow_1841_768" result="shape"/>
</filter>
<filter id="filter13_d_1841_768" x="579.792" y="-92.6282" width="1183.95" height="959.433" filterUnits="userSpaceOnUse" color-interpolation-filters="sRGB">
<feFlood flood-opacity="0" result="BackgroundImageFix"/>
<feColorMatrix in="SourceAlpha" type="matrix" values="0 0 0 0 0 0 0 0 0 0 0 0 0 0 0 0 0 0 127 0" result="hardAlpha"/>
<feOffset/>
<feGaussianBlur stdDeviation="5"/>
<feColorMatrix type="matrix" values="0 0 0 0 0.131632 0 0 0 0 0.929167 0 0 0 0 0.881315 0 0 0 1 0"/>
<feBlend mode="normal" in2="BackgroundImageFix" result="effect1_dropShadow_1841_768"/>
<feBlend mode="normal" in="SourceGraphic" in2="effect1_dropShadow_1841_768" result="shape"/>
</filter>
<filter id="filter14_d_1841_768" x="620.921" y="86.5745" width="779.313" height="691.404" filterUnits="userSpaceOnUse" color-interpolation-filters="sRGB">
<feFlood flood-opacity="0" result="BackgroundImageFix"/>
<feColorMatrix in="SourceAlpha" type="matrix" values="0 0 0 0 0 0 0 0 0 0 0 0 0 0 0 0 0 0 127 0" result="hardAlpha"/>
<feOffset/>
<feGaussianBlur stdDeviation="5"/>
<feColorMatrix type="matrix" values="0 0 0 0 0.131632 0 0 0 0 0.929167 0 0 0 0 0.881315 0 0 0 1 0"/>
<feBlend mode="normal" in2="BackgroundImageFix" result="effect1_dropShadow_1841_768"/>
<feBlend mode="normal" in="SourceGraphic" in2="effect1_dropShadow_1841_768" result="shape"/>
</filter>
<filter id="filter15_d_1841_768" x="624.958" y="84.7359" width="799.867" height="691.791" filterUnits="userSpaceOnUse" color-interpolation-filters="sRGB">
<feFlood flood-opacity="0" result="BackgroundImageFix"/>
<feColorMatrix in="SourceAlpha" type="matrix" values="0 0 0 0 0 0 0 0 0 0 0 0 0 0 0 0 0 0 127 0" result="hardAlpha"/>
<feOffset/>
<feGaussianBlur stdDeviation="5"/>
<feColorMatrix type="matrix" values="0 0 0 0 0 0 0 0 0 0 0 0 0 0 0 0 0 0 1 0"/>
<feBlend mode="normal" in2="BackgroundImageFix" result="effect1_dropShadow_1841_768"/>
<feBlend mode="normal" in="SourceGraphic" in2="effect1_dropShadow_1841_768" result="shape"/>
</filter>
<filter id="filter16_d_1841_768" x="568.806" y="59.1816" width="1683.33" height="1379.57" filterUnits="userSpaceOnUse" color-interpolation-filters="sRGB">
<feFlood flood-opacity="0" result="BackgroundImageFix"/>
<feColorMatrix in="SourceAlpha" type="matrix" values="0 0 0 0 0 0 0 0 0 0 0 0 0 0 0 0 0 0 127 0" result="hardAlpha"/>
<feOffset/>
<feGaussianBlur stdDeviation="5"/>
<feColorMatrix type="matrix" values="0 0 0 0 0 0 0 0 0 0 0 0 0 0 0 0 0 0 1 0"/>
<feBlend mode="normal" in2="BackgroundImageFix" result="effect1_dropShadow_1841_768"/>
<feBlend mode="normal" in="SourceGraphic" in2="effect1_dropShadow_1841_768" result="shape"/>
</filter>
<filter id="filter17_d_1841_768" x="585.918" y="136.582" width="877.834" height="928.879" filterUnits="userSpaceOnUse" color-interpolation-filters="sRGB">
<feFlood flood-opacity="0" result="BackgroundImageFix"/>
<feColorMatrix in="SourceAlpha" type="matrix" values="0 0 0 0 0 0 0 0 0 0 0 0 0 0 0 0 0 0 127 0" result="hardAlpha"/>
<feOffset/>
<feGaussianBlur stdDeviation="5"/>
<feColorMatrix type="matrix" values="0 0 0 0 0 0 0 0 0 0 0 0 0 0 0 0 0 0 1 0"/>
<feBlend mode="normal" in2="BackgroundImageFix" result="effect1_dropShadow_1841_768"/>
<feBlend mode="normal" in="SourceGraphic" in2="effect1_dropShadow_1841_768" result="shape"/>
</filter>
<filter id="filter18_d_1841_768" x="589.292" y="127.007" width="889.889" height="946.52" filterUnits="userSpaceOnUse" color-interpolation-filters="sRGB">
<feFlood flood-opacity="0" result="BackgroundImageFix"/>
<feColorMatrix in="SourceAlpha" type="matrix" values="0 0 0 0 0 0 0 0 0 0 0 0 0 0 0 0 0 0 127 0" result="hardAlpha"/>
<feOffset/>
<feGaussianBlur stdDeviation="5"/>
<feColorMatrix type="matrix" values="0 0 0 0 0.131632 0 0 0 0 0.929167 0 0 0 0 0.881315 0 0 0 1 0"/>
<feBlend mode="normal" in2="BackgroundImageFix" result="effect1_dropShadow_1841_768"/>
<feBlend mode="normal" in="SourceGraphic" in2="effect1_dropShadow_1841_768" result="shape"/>
</filter>
<filter id="filter19_d_1841_768" x="358.178" y="-437.078" width="584.906" height="1009.06" filterUnits="userSpaceOnUse" color-interpolation-filters="sRGB">
<feFlood flood-opacity="0" result="BackgroundImageFix"/>
<feColorMatrix in="SourceAlpha" type="matrix" values="0 0 0 0 0 0 0 0 0 0 0 0 0 0 0 0 0 0 127 0" result="hardAlpha"/>
<feOffset/>
<feGaussianBlur stdDeviation="5"/>
<feColorMatrix type="matrix" values="0 0 0 0 0 0 0 0 0 0 0 0 0 0 0 0 0 0 1 0"/>
<feBlend mode="normal" in2="BackgroundImageFix" result="effect1_dropShadow_1841_768"/>
<feBlend mode="normal" in="SourceGraphic" in2="effect1_dropShadow_1841_768" result="shape"/>
</filter>
<filter id="filter20_d_1841_768" x="313.618" y="-398.515" width="609.302" height="977.21" filterUnits="userSpaceOnUse" color-interpolation-filters="sRGB">
<feFlood flood-opacity="0" result="BackgroundImageFix"/>
<feColorMatrix in="SourceAlpha" type="matrix" values="0 0 0 0 0 0 0 0 0 0 0 0 0 0 0 0 0 0 127 0" result="hardAlpha"/>
<feOffset/>
<feGaussianBlur stdDeviation="5"/>
<feColorMatrix type="matrix" values="0 0 0 0 0.131632 0 0 0 0 0.929167 0 0 0 0 0.881315 0 0 0 1 0"/>
<feBlend mode="normal" in2="BackgroundImageFix" result="effect1_dropShadow_1841_768"/>
<feBlend mode="normal" in="SourceGraphic" in2="effect1_dropShadow_1841_768" result="shape"/>
</filter>
<filter id="filter21_d_1841_768" x="-611.141" y="-797.992" width="1555.18" height="1356.77" filterUnits="userSpaceOnUse" color-interpolation-filters="sRGB">
<feFlood flood-opacity="0" result="BackgroundImageFix"/>
<feColorMatrix in="SourceAlpha" type="matrix" values="0 0 0 0 0 0 0 0 0 0 0 0 0 0 0 0 0 0 127 0" result="hardAlpha"/>
<feOffset/>
<feGaussianBlur stdDeviation="5"/>
<feColorMatrix type="matrix" values="0 0 0 0 0.131632 0 0 0 0 0.929167 0 0 0 0 0.881315 0 0 0 1 0"/>
<feBlend mode="normal" in2="BackgroundImageFix" result="effect1_dropShadow_1841_768"/>
<feBlend mode="normal" in="SourceGraphic" in2="effect1_dropShadow_1841_768" result="shape"/>
</filter>
<filter id="filter22_d_1841_768" x="-568.141" y="-861.5" width="1458.31" height="1411.27" filterUnits="userSpaceOnUse" color-interpolation-filters="sRGB">
<feFlood flood-opacity="0" result="BackgroundImageFix"/>
<feColorMatrix in="SourceAlpha" type="matrix" values="0 0 0 0 0 0 0 0 0 0 0 0 0 0 0 0 0 0 127 0" result="hardAlpha"/>
<feOffset/>
<feGaussianBlur stdDeviation="5"/>
<feColorMatrix type="matrix" values="0 0 0 0 0 0 0 0 0 0 0 0 0 0 0 0 0 0 1 0"/>
<feBlend mode="normal" in2="BackgroundImageFix" result="effect1_dropShadow_1841_768"/>
<feBlend mode="normal" in="SourceGraphic" in2="effect1_dropShadow_1841_768" result="shape"/>
</filter>
<filter id="filter23_d_1841_768" x="-144.426" y="-402.186" width="986.132" height="923.797" filterUnits="userSpaceOnUse" color-interpolation-filters="sRGB">
<feFlood flood-opacity="0" result="BackgroundImageFix"/>
<feColorMatrix in="SourceAlpha" type="matrix" values="0 0 0 0 0 0 0 0 0 0 0 0 0 0 0 0 0 0 127 0" result="hardAlpha"/>
<feOffset/>
<feGaussianBlur stdDeviation="5"/>
<feColorMatrix type="matrix" values="0 0 0 0 0.131632 0 0 0 0 0.929167 0 0 0 0 0.881315 0 0 0 1 0"/>
<feBlend mode="normal" in2="BackgroundImageFix" result="effect1_dropShadow_1841_768"/>
<feBlend mode="normal" in="SourceGraphic" in2="effect1_dropShadow_1841_768" result="shape"/>
</filter>
<filter id="filter24_d_1841_768" x="-136.901" y="-374.691" width="979.871" height="883.06" filterUnits="userSpaceOnUse" color-interpolation-filters="sRGB">
<feFlood flood-opacity="0" result="BackgroundImageFix"/>
<feColorMatrix in="SourceAlpha" type="matrix" values="0 0 0 0 0 0 0 0 0 0 0 0 0 0 0 0 0 0 127 0" result="hardAlpha"/>
<feOffset/>
<feGaussianBlur stdDeviation="5"/>
<feColorMatrix type="matrix" values="0 0 0 0 0 0 0 0 0 0 0 0 0 0 0 0 0 0 1 0"/>
<feBlend mode="normal" in2="BackgroundImageFix" result="effect1_dropShadow_1841_768"/>
<feBlend mode="normal" in="SourceGraphic" in2="effect1_dropShadow_1841_768" result="shape"/>
</filter>
<filter id="filter25_d_1841_768" x="251.937" y="-348.573" width="614.01" height="803.484" filterUnits="userSpaceOnUse" color-interpolation-filters="sRGB">
<feFlood flood-opacity="0" result="BackgroundImageFix"/>
<feColorMatrix in="SourceAlpha" type="matrix" values="0 0 0 0 0 0 0 0 0 0 0 0 0 0 0 0 0 0 127 0" result="hardAlpha"/>
<feOffset/>
<feGaussianBlur stdDeviation="5"/>
<feColorMatrix type="matrix" values="0 0 0 0 0 0 0 0 0 0 0 0 0 0 0 0 0 0 1 0"/>
<feBlend mode="normal" in2="BackgroundImageFix" result="effect1_dropShadow_1841_768"/>
<feBlend mode="normal" in="SourceGraphic" in2="effect1_dropShadow_1841_768" result="shape"/>
</filter>
<filter id="filter26_d_1841_768" x="203.929" y="-380.07" width="664.978" height="843.985" filterUnits="userSpaceOnUse" color-interpolation-filters="sRGB">
<feFlood flood-opacity="0" result="BackgroundImageFix"/>
<feColorMatrix in="SourceAlpha" type="matrix" values="0 0 0 0 0 0 0 0 0 0 0 0 0 0 0 0 0 0 127 0" result="hardAlpha"/>
<feOffset/>
<feGaussianBlur stdDeviation="5"/>
<feColorMatrix type="matrix" values="0 0 0 0 0.131632 0 0 0 0 0.929167 0 0 0 0 0.881315 0 0 0 1 0"/>
<feBlend mode="normal" in2="BackgroundImageFix" result="effect1_dropShadow_1841_768"/>
<feBlend mode="normal" in="SourceGraphic" in2="effect1_dropShadow_1841_768" result="shape"/>
</filter>
<filter id="filter27_d_1841_768" x="839.793" y="-303.552" width="229.043" height="459.12" filterUnits="userSpaceOnUse" color-interpolation-filters="sRGB">
<feFlood flood-opacity="0" result="BackgroundImageFix"/>
<feColorMatrix in="SourceAlpha" type="matrix" values="0 0 0 0 0 0 0 0 0 0 0 0 0 0 0 0 0 0 127 0" result="hardAlpha"/>
<feOffset/>
<feGaussianBlur stdDeviation="5"/>
<feColorMatrix type="matrix" values="0 0 0 0 0.131632 0 0 0 0 0.929167 0 0 0 0 0.881315 0 0 0 1 0"/>
<feBlend mode="normal" in2="BackgroundImageFix" result="effect1_dropShadow_1841_768"/>
<feBlend mode="normal" in="SourceGraphic" in2="effect1_dropShadow_1841_768" result="shape"/>
</filter>
<filter id="filter28_d_1841_768" x="843.464" y="-304.107" width="241.617" height="461.254" filterUnits="userSpaceOnUse" color-interpolation-filters="sRGB">
<feFlood flood-opacity="0" result="BackgroundImageFix"/>
<feColorMatrix in="SourceAlpha" type="matrix" values="0 0 0 0 0 0 0 0 0 0 0 0 0 0 0 0 0 0 127 0" result="hardAlpha"/>
<feOffset/>
<feGaussianBlur stdDeviation="5"/>
<feColorMatrix type="matrix" values="0 0 0 0 0 0 0 0 0 0 0 0 0 0 0 0 0 0 1 0"/>
<feBlend mode="normal" in2="BackgroundImageFix" result="effect1_dropShadow_1841_768"/>
<feBlend mode="normal" in="SourceGraphic" in2="effect1_dropShadow_1841_768" result="shape"/>
</filter>
<filter id="filter29_d_1841_768" x="846.098" y="-304.699" width="294.009" height="463.963" filterUnits="userSpaceOnUse" color-interpolation-filters="sRGB">
<feFlood flood-opacity="0" result="BackgroundImageFix"/>
<feColorMatrix in="SourceAlpha" type="matrix" values="0 0 0 0 0 0 0 0 0 0 0 0 0 0 0 0 0 0 127 0" result="hardAlpha"/>
<feOffset/>
<feGaussianBlur stdDeviation="5"/>
<feColorMatrix type="matrix" values="0 0 0 0 0.131632 0 0 0 0 0.929167 0 0 0 0 0.881315 0 0 0 1 0"/>
<feBlend mode="normal" in2="BackgroundImageFix" result="effect1_dropShadow_1841_768"/>
<feBlend mode="normal" in="SourceGraphic" in2="effect1_dropShadow_1841_768" result="shape"/>
</filter>
<filter id="filter30_d_1841_768" x="860.796" y="-303.214" width="383.066" height="473.008" filterUnits="userSpaceOnUse" color-interpolation-filters="sRGB">
<feFlood flood-opacity="0" result="BackgroundImageFix"/>
<feColorMatrix in="SourceAlpha" type="matrix" values="0 0 0 0 0 0 0 0 0 0 0 0 0 0 0 0 0 0 127 0" result="hardAlpha"/>
<feOffset/>
<feGaussianBlur stdDeviation="5"/>
<feColorMatrix type="matrix" values="0 0 0 0 0 0 0 0 0 0 0 0 0 0 0 0 0 0 1 0"/>
<feBlend mode="normal" in2="BackgroundImageFix" result="effect1_dropShadow_1841_768"/>
<feBlend mode="normal" in="SourceGraphic" in2="effect1_dropShadow_1841_768" result="shape"/>
</filter>
<filter id="filter31_d_1841_768" x="881.783" y="-301.253" width="589.456" height="489.454" filterUnits="userSpaceOnUse" color-interpolation-filters="sRGB">
<feFlood flood-opacity="0" result="BackgroundImageFix"/>
<feColorMatrix in="SourceAlpha" type="matrix" values="0 0 0 0 0 0 0 0 0 0 0 0 0 0 0 0 0 0 127 0" result="hardAlpha"/>
<feOffset/>
<feGaussianBlur stdDeviation="5"/>
<feColorMatrix type="matrix" values="0 0 0 0 0 0 0 0 0 0 0 0 0 0 0 0 0 0 1 0"/>
<feBlend mode="normal" in2="BackgroundImageFix" result="effect1_dropShadow_1841_768"/>
<feBlend mode="normal" in="SourceGraphic" in2="effect1_dropShadow_1841_768" result="shape"/>
</filter>
<filter id="filter32_d_1841_768" x="864.459" y="-305.855" width="394.596" height="480.901" filterUnits="userSpaceOnUse" color-interpolation-filters="sRGB">
<feFlood flood-opacity="0" result="BackgroundImageFix"/>
<feColorMatrix in="SourceAlpha" type="matrix" values="0 0 0 0 0 0 0 0 0 0 0 0 0 0 0 0 0 0 127 0" result="hardAlpha"/>
<feOffset/>
<feGaussianBlur stdDeviation="5"/>
<feColorMatrix type="matrix" values="0 0 0 0 0 0 0 0 0 0 0 0 0 0 0 0 0 0 1 0"/>
<feBlend mode="normal" in2="BackgroundImageFix" result="effect1_dropShadow_1841_768"/>
<feBlend mode="normal" in="SourceGraphic" in2="effect1_dropShadow_1841_768" result="shape"/>
</filter>
<filter id="filter33_d_1841_768" x="865.518" y="-304.816" width="415.025" height="478.297" filterUnits="userSpaceOnUse" color-interpolation-filters="sRGB">
<feFlood flood-opacity="0" result="BackgroundImageFix"/>
<feColorMatrix in="SourceAlpha" type="matrix" values="0 0 0 0 0 0 0 0 0 0 0 0 0 0 0 0 0 0 127 0" result="hardAlpha"/>
<feOffset/>
<feGaussianBlur stdDeviation="5"/>
<feColorMatrix type="matrix" values="0 0 0 0 0.131632 0 0 0 0 0.929167 0 0 0 0 0.881315 0 0 0 1 0"/>
<feBlend mode="normal" in2="BackgroundImageFix" result="effect1_dropShadow_1841_768"/>
<feBlend mode="normal" in="SourceGraphic" in2="effect1_dropShadow_1841_768" result="shape"/>
</filter>
<linearGradient id="paint0_linear_1841_768" x1="1864.95" y1="1392.11" x2="-204.02" y2="1688.22" gradientUnits="userSpaceOnUse">
<stop offset="0.445135" stop-color="#61E1C2"/>
<stop offset="1"/>
</linearGradient>
<linearGradient id="paint1_linear_1841_768" x1="117.843" y1="4593.2" x2="-116.668" y2="2511.96" gradientUnits="userSpaceOnUse">
<stop offset="0.445135" stop-color="#61E1C2"/>
<stop offset="1"/>
</linearGradient>
<linearGradient id="paint2_linear_1841_768" x1="1459.67" y1="8497.31" x2="688.159" y2="6599.06" gradientUnits="userSpaceOnUse">
<stop offset="0.505326" stop-color="#61E1C2"/>
<stop offset="1" stop-color="#3B4040"/>
</linearGradient>
</defs>
</svg>
