<svg width="1090" height="171" viewBox="0 0 1090 171" fill="none" xmlns="http://www.w3.org/2000/svg">
<path fill-rule="evenodd" clip-rule="evenodd" d="M546.364 170.316H500.55V165.316H542.694L484.38 17.0572L424.723 168.732L420.07 166.901L482.053 9.31209L484.38 3.39713L486.706 9.31209L548.69 166.901L550.034 170.316H546.364ZM433.176 165.533C434.664 165.533 435.871 166.555 435.871 167.816C435.871 169.078 434.664 170.1 433.176 170.1C431.688 170.1 430.481 169.078 430.481 167.816C430.481 166.555 431.688 165.533 433.176 165.533ZM446.65 167.816C446.65 166.555 445.444 165.533 443.955 165.533C442.467 165.533 441.26 166.555 441.26 167.816C441.26 169.078 442.467 170.1 443.955 170.1C445.444 170.1 446.65 169.078 446.65 167.816ZM454.737 165.533C456.225 165.533 457.432 166.555 457.432 167.816C457.432 169.078 456.225 170.1 454.737 170.1C453.249 170.1 452.042 169.078 452.042 167.816C452.042 166.555 453.249 165.533 454.737 165.533ZM468.212 167.816C468.212 166.555 467.006 165.533 465.517 165.533C464.029 165.533 462.822 166.555 462.822 167.816C462.822 169.078 464.029 170.1 465.517 170.1C467.006 170.1 468.212 169.078 468.212 167.816ZM476.297 165.533C477.785 165.533 478.992 166.555 478.992 167.816C478.992 169.078 477.785 170.1 476.297 170.1C474.808 170.1 473.602 169.078 473.602 167.816C473.602 166.555 474.808 165.533 476.297 165.533ZM489.772 167.816C489.772 166.555 488.565 165.533 487.077 165.533C485.588 165.533 484.382 166.555 484.382 167.816C484.382 169.078 485.588 170.1 487.077 170.1C488.565 170.1 489.772 169.078 489.772 167.816ZM497.854 165.533C499.343 165.533 500.549 166.555 500.549 167.816C500.549 169.078 499.343 170.1 497.854 170.1C496.366 170.1 495.16 169.078 495.16 167.816C495.16 166.555 496.366 165.533 497.854 165.533ZM461.89 25.8484L432.246 101.217L434.107 101.949L463.751 26.5804L461.89 25.8484ZM549.991 137.76L496.092 0.725449L494.231 1.45752L548.13 138.492L549.991 137.76Z" fill="url(#paint0_linear_497_2900)"/>
<path fill-rule="evenodd" clip-rule="evenodd" d="M21.9467 19.6017H0V170.485H68.5835V151.282H21.9467V19.6017ZM104.246 19.6017H85.043V170.485H104.246V19.6017ZM203.035 19.6017V39.1607H167.371C149.539 41.9548 139.938 53.1314 139.938 85.264C139.938 85.264 145.397 142.544 194.805 145.338V50.3372H214.008V170.485H194.805C194.805 170.485 119.363 146.735 120.734 79.6757C120.734 79.6757 117.991 29.3812 167.371 19.6017H203.035ZM230.44 19.6017H249.643V47.5431H293.537V19.6017H312.74V170.485H293.537V83.867H249.643V170.485H230.44V19.6017ZM249.642 61.5138V72.6904H293.536V61.5138H249.642ZM329.199 19.6017V41.9548H364.863V170.485H381.323V41.9548H416.986V19.6017H329.199Z" fill="black"/>
<path fill-rule="evenodd" clip-rule="evenodd" d="M598.049 170.485H578.845V19.6017H628.226C628.226 19.6017 661.146 25.3496 661.146 49.7784C661.146 74.2072 628.226 81.3921 628.226 81.3921L672.119 167.611V170.485H652.916L606.279 81.3921H598.049V170.485ZM595.304 61.2744V35.4086C595.304 35.4086 639.197 32.9564 639.197 48.3415C639.197 63.7267 595.304 61.2744 595.304 61.2744ZM750.303 163.985C788.379 163.985 819.245 133.119 819.245 95.0435C819.245 56.968 788.379 26.1017 750.303 26.1017C712.227 26.1017 681.361 56.968 681.361 95.0435C681.361 133.119 712.227 163.985 750.303 163.985ZM750.303 170.485C791.968 170.485 825.745 136.709 825.745 95.0435C825.745 53.3781 791.968 19.6017 750.303 19.6017C708.638 19.6017 674.861 53.3781 674.861 95.0435C674.861 136.709 708.638 170.485 750.303 170.485ZM749.5 145C777.391 145 800 122.39 800 94.5C800 66.6096 777.391 44 749.5 44C721.61 44 699 66.6096 699 94.5C699 122.39 721.61 145 749.5 145ZM749.5 148C779.048 148 803 124.047 803 94.5C803 64.9528 779.048 41 749.5 41C719.953 41 696 64.9528 696 94.5C696 124.047 719.953 148 749.5 148ZM978.36 95.0435C978.36 133.119 947.493 163.985 909.418 163.985C871.342 163.985 840.476 133.119 840.476 95.0435C840.476 56.968 871.342 26.1017 909.418 26.1017C947.493 26.1017 978.36 56.968 978.36 95.0435ZM984.86 95.0435C984.86 136.709 951.083 170.485 909.418 170.485C867.752 170.485 833.976 136.709 833.976 95.0435C833.976 53.3781 867.752 19.6017 909.418 19.6017C951.083 19.6017 984.86 53.3781 984.86 95.0435ZM960 94.5C960 122.39 937.391 145 909.5 145C881.61 145 859 122.39 859 94.5C859 66.6096 881.61 44 909.5 44C937.391 44 960 66.6096 960 94.5ZM963 94.5C963 124.047 939.047 148 909.5 148C879.953 148 856 124.047 856 94.5C856 64.9528 879.953 41 909.5 41C939.047 41 963 64.9528 963 94.5ZM1012.29 170.485H993.091V19.6017H1009.55L1042.47 61.0207L1075.39 19.6017H1089.11V170.485H1069.9V55.1037H1067.16L1042.47 87.6473L1015.04 55.1037H1012.29V170.485ZM1036.98 132.025V117.232H1050.7V132.025H1036.98ZM1036.98 170.485V155.693H1050.7V170.485H1036.98Z" fill="black"/>
<defs>
<linearGradient id="paint0_linear_497_2900" x1="485.052" y1="170.316" x2="485.052" y2="0.725449" gradientUnits="userSpaceOnUse">
<stop/>
<stop offset="1" stop-color="white"/>
</linearGradient>
</defs>
</svg>
