<svg width="1228" height="1036" viewBox="0 0 1228 1036" fill="none" xmlns="http://www.w3.org/2000/svg">
<path fill-rule="evenodd" clip-rule="evenodd" d="M116.797 354.838C184.487 149.65 377.763 1.55762 605.628 1.55762C833.094 1.55762 1026.09 149.132 1094.1 353.761H1027.95V423.373H1111.91C1115.24 441.619 1117.6 460.2 1118.94 479.062H1027.95V548.675H1167.17V479.062H1119.94C1118.6 460.201 1116.25 441.62 1112.93 423.373H1227.5V353.761H1095.16C1027.11 148.57 833.653 0.557617 605.628 0.557617C377.238 0.557617 183.529 149.046 115.774 354.749C111.619 354.399 107.37 354.224 103.026 354.224C82.7615 354.224 65.4357 357.937 51.0491 365.362C36.6626 372.788 25.7566 383.152 18.3313 396.456C11.0606 409.605 7.42533 424.765 7.42533 441.936C7.42533 459.571 11.0606 474.654 18.3313 487.184C25.7566 499.56 34.4968 509.615 44.552 517.35C54.6071 524.93 68.5296 534.134 86.3195 544.963C87.9137 545.931 89.4568 546.874 90.9486 547.793C92.7978 578.376 97.3127 608.24 104.264 637.156C100.667 637.881 96.8517 638.243 92.8166 638.243C83.535 638.243 74.1759 636.387 64.7396 632.674C55.4579 628.962 47.1818 624.476 39.9112 619.216C32.6405 613.956 27.2262 609.006 23.6682 604.365L0 653.094C5.569 658.972 13.149 664.619 22.7401 670.033C32.3311 675.447 43.4691 679.856 56.1541 683.259C68.9937 686.663 82.6068 688.364 96.9934 688.364C104.682 688.364 111.987 687.86 118.908 686.851C159.941 803.882 241.99 901.625 347.812 962.839L348.312 961.974C242.749 900.908 160.889 803.423 119.915 686.7C130.979 685 141.05 681.997 150.131 677.69C165.136 670.42 176.661 659.978 184.705 646.365C192.749 632.752 196.771 616.586 196.771 597.868C196.771 580.233 193.213 565.382 186.097 553.316C179.136 541.095 170.473 531.04 160.109 523.151C149.744 515.261 134.739 505.516 115.093 493.913C105.952 488.429 98.3538 483.551 92.2994 479.279C94.1314 453.428 97.8727 428.105 103.383 403.45C104.029 403.428 104.684 403.417 105.347 403.417C113.546 403.417 121.358 405.042 128.783 408.29C136.208 411.384 142.551 415.174 147.81 419.66C153.07 423.992 157.015 428.014 159.645 431.726L185.633 384.39C166.668 367.148 143.722 357.298 116.797 354.838ZM102.348 403.494C91.867 404.038 83.5848 407.493 77.5019 413.859C71.0047 420.666 67.7561 429.251 67.7561 439.616C67.7561 447.505 69.6898 454.544 73.5572 460.732C77.5792 466.765 82.7615 472.179 89.104 476.974C89.8244 477.506 90.5715 478.048 91.3452 478.601C93.1894 453.002 96.9024 427.921 102.348 403.494ZM91.9898 548.436C93.8624 578.724 98.3546 608.302 105.243 636.948C112.134 635.415 118.201 632.521 123.446 628.266C131.8 621.459 135.976 611.945 135.976 599.724C135.976 591.835 134.043 585.029 130.175 579.305C126.463 573.426 121.435 568.244 115.093 563.758C109.842 559.82 102.141 554.713 91.9898 548.436ZM715.507 359.793V683.259H710.867L555.863 512.941L541.476 494.378L543.797 539.394V683.259H486.714V359.793H491.819L644.503 532.432L660.746 553.548L658.425 509.228V359.793H715.507ZM831.59 683.259C844.429 686.663 858.042 688.364 872.429 688.364C892.849 688.364 910.561 684.806 925.567 677.69C940.572 670.42 952.097 659.978 960.141 646.365C968.185 632.752 972.207 616.586 972.207 597.868C972.207 580.233 968.649 565.382 961.533 553.316C954.572 541.095 945.909 531.04 935.544 523.151C925.18 515.261 910.175 505.516 890.528 493.913C879.7 487.416 871.037 481.77 864.54 476.974C858.197 472.179 853.015 466.765 848.993 460.732C845.126 454.544 843.192 447.505 843.192 439.616C843.192 429.251 846.44 420.666 852.938 413.859C859.589 406.898 868.871 403.417 880.783 403.417C888.981 403.417 896.793 405.042 904.219 408.29C911.644 411.384 917.987 415.174 923.246 419.66C928.506 423.992 932.451 428.014 935.08 431.726L961.069 384.39C938.948 364.28 911.412 354.224 878.462 354.224C858.197 354.224 840.871 357.937 826.485 365.362C812.098 372.788 801.192 383.152 793.767 396.456C786.496 409.605 782.861 424.765 782.861 441.936C782.861 459.571 786.496 474.654 793.767 487.184C801.192 499.56 809.933 509.615 819.988 517.35C830.043 524.93 843.965 534.134 861.755 544.963C874.75 552.852 884.341 559.117 890.528 563.758C896.871 568.244 901.898 573.426 905.611 579.305C909.478 585.029 911.412 591.835 911.412 599.724C911.412 611.945 907.235 621.459 898.882 628.266C890.683 634.917 880.473 638.243 868.252 638.243C858.971 638.243 849.612 636.387 840.175 632.674C830.894 628.962 822.618 624.476 815.347 619.216C808.076 613.956 802.662 609.006 799.104 604.365L775.436 653.094C781.005 658.972 788.585 664.619 798.176 670.033C807.767 675.447 818.905 679.856 831.59 683.259ZM443.198 353.761H243.642V423.373H443.198V353.761ZM243.641 479.062H382.866V548.675H243.641V479.062ZM243.641 613.647H443.197V683.259H243.641V613.647ZM1227.5 613.647H1027.95V683.259H1227.5V613.647ZM598.663 263.264V314.313H607.945V263.264H598.663ZM594.025 263.265H556.898V272.546H594.025V263.265ZM677.558 263.265H645.072V272.546H677.558V263.265ZM668.276 284.148H645.072V293.43H668.276V284.148ZM645.072 305.032H677.558V314.314H645.072V305.032ZM570.815 314.313V277.187H580.096V314.313H570.815ZM626.512 314.313V263.264H635.793V314.313H626.512ZM621.874 281.828H612.592V291.11H621.874V281.828ZM1125.4 567.239C1125.4 569.802 1123.33 571.88 1120.76 571.88C1118.2 571.88 1116.12 569.802 1116.12 567.239C1116.12 564.676 1118.2 562.598 1120.76 562.598C1123.33 562.598 1125.4 564.676 1125.4 567.239ZM1116.12 604.366C1118.68 604.366 1120.76 602.288 1120.76 599.725C1120.76 597.162 1118.68 595.084 1116.12 595.084C1113.56 595.084 1111.48 597.162 1111.48 599.725C1111.48 602.288 1113.56 604.366 1116.12 604.366ZM1088.28 697.182C1088.28 699.745 1086.2 701.823 1083.64 701.823C1081.08 701.823 1079 699.745 1079 697.182C1079 694.619 1081.08 692.542 1083.64 692.542C1086.2 692.542 1088.28 694.619 1088.28 697.182ZM1069.71 734.309C1072.28 734.309 1074.35 732.231 1074.35 729.668C1074.35 727.105 1072.28 725.027 1069.71 725.027C1067.15 725.027 1065.07 727.105 1065.07 729.668C1065.07 732.231 1067.15 734.309 1069.71 734.309ZM1018.66 822.484C1021.22 822.484 1023.3 820.406 1023.3 817.843C1023.3 815.28 1021.22 813.203 1018.66 813.203C1016.09 813.203 1014.02 815.28 1014.02 817.843C1014.02 820.406 1016.09 822.484 1018.66 822.484ZM800.543 994.195C803.106 994.195 805.184 992.117 805.184 989.554C805.184 986.991 803.106 984.914 800.543 984.914C797.98 984.914 795.902 986.991 795.902 989.554C795.902 992.117 797.98 994.195 800.543 994.195ZM976.902 873.534C976.902 876.097 974.824 878.175 972.261 878.175C969.698 878.175 967.62 876.097 967.62 873.534C967.62 870.971 969.698 868.893 972.261 868.893C974.824 868.893 976.902 870.971 976.902 873.534ZM1060.43 762.154C1060.43 764.717 1058.36 766.794 1055.79 766.794C1053.23 766.794 1051.15 764.717 1051.15 762.154C1051.15 759.591 1053.23 757.513 1055.79 757.513C1058.36 757.513 1060.43 759.591 1060.43 762.154ZM949.055 901.378C951.619 901.378 953.696 899.3 953.696 896.737C953.696 894.174 951.619 892.096 949.055 892.096C946.492 892.096 944.415 894.174 944.415 896.737C944.415 899.3 946.492 901.378 949.055 901.378ZM925.85 919.942C925.85 922.505 923.772 924.583 921.209 924.583C918.646 924.583 916.568 922.505 916.568 919.942C916.568 917.379 918.646 915.301 921.209 915.301C923.772 915.301 925.85 917.379 925.85 919.942ZM865.512 961.71C868.075 961.71 870.153 959.632 870.153 957.069C870.153 954.506 868.075 952.428 865.512 952.428C862.949 952.428 860.871 954.506 860.871 957.069C860.871 959.632 862.949 961.71 865.512 961.71ZM726.295 1017.4C728.858 1017.4 730.936 1015.32 730.936 1012.76C730.936 1010.2 728.858 1008.12 726.295 1008.12C723.732 1008.12 721.655 1010.2 721.655 1012.76C721.655 1015.32 723.732 1017.4 726.295 1017.4ZM693.804 1022.04C693.804 1024.6 691.726 1026.68 689.163 1026.68C686.6 1026.68 684.522 1024.6 684.522 1022.04C684.522 1019.48 686.6 1017.4 689.163 1017.4C691.726 1017.4 693.804 1019.48 693.804 1022.04ZM652.04 1031.32C654.603 1031.32 656.681 1029.24 656.681 1026.68C656.681 1024.12 654.603 1022.04 652.04 1022.04C649.477 1022.04 647.4 1024.12 647.4 1026.68C647.4 1029.24 649.477 1031.32 652.04 1031.32ZM619.559 1031.32C619.559 1033.88 617.481 1035.96 614.918 1035.96C612.355 1035.96 610.277 1033.88 610.277 1031.32C610.277 1028.76 612.355 1026.68 614.918 1026.68C617.481 1026.68 619.559 1028.76 619.559 1031.32ZM577.783 1035.96C580.346 1035.96 582.424 1033.88 582.424 1031.32C582.424 1028.76 580.346 1026.68 577.783 1026.68C575.22 1026.68 573.142 1028.76 573.142 1031.32C573.142 1033.88 575.22 1035.96 577.783 1035.96ZM545.301 1026.68C545.301 1029.24 543.223 1031.32 540.66 1031.32C538.097 1031.32 536.02 1029.24 536.02 1026.68C536.02 1024.12 538.097 1022.04 540.66 1022.04C543.223 1022.04 545.301 1024.12 545.301 1026.68ZM503.538 1022.04C506.101 1022.04 508.178 1019.96 508.178 1017.4C508.178 1014.84 506.101 1012.76 503.538 1012.76C500.975 1012.76 498.897 1014.84 498.897 1017.4C498.897 1019.96 500.975 1022.04 503.538 1022.04ZM466.401 1008.12C466.401 1010.68 464.323 1012.76 461.76 1012.76C459.197 1012.76 457.119 1010.68 457.119 1008.12C457.119 1005.55 459.197 1003.48 461.76 1003.48C464.323 1003.48 466.401 1005.55 466.401 1008.12ZM424.637 998.836C427.2 998.836 429.278 996.758 429.278 994.195C429.278 991.632 427.2 989.554 424.637 989.554C422.074 989.554 419.996 991.632 419.996 994.195C419.996 996.758 422.074 998.836 424.637 998.836ZM396.798 980.272C396.798 982.835 394.721 984.913 392.158 984.913C389.595 984.913 387.517 982.835 387.517 980.272C387.517 977.709 389.595 975.631 392.158 975.631C394.721 975.631 396.798 977.709 396.798 980.272ZM359.666 970.991C362.229 970.991 364.307 968.913 364.307 966.35C364.307 963.787 362.229 961.709 359.666 961.709C357.103 961.709 355.025 963.787 355.025 966.35C355.025 968.913 357.103 970.991 359.666 970.991ZM768.061 1003.48C768.061 1006.04 765.984 1008.12 763.42 1008.12C760.857 1008.12 758.78 1006.04 758.78 1003.48C758.78 1000.91 760.857 998.836 763.42 998.836C765.984 998.836 768.061 1000.91 768.061 1003.48ZM1037.23 794.639C1039.8 794.639 1041.87 792.561 1041.87 789.998C1041.87 787.435 1039.8 785.358 1037.23 785.358C1034.67 785.358 1032.59 787.435 1032.59 789.998C1032.59 792.561 1034.67 794.639 1037.23 794.639ZM837.673 975.632C837.673 978.195 835.595 980.273 833.032 980.273C830.469 980.273 828.392 978.195 828.392 975.632C828.392 973.069 830.469 970.991 833.032 970.991C835.595 970.991 837.673 973.069 837.673 975.632ZM893.361 943.146C895.924 943.146 898.001 941.068 898.001 938.505C898.001 935.942 895.924 933.864 893.361 933.864C890.798 933.864 888.72 935.942 888.72 938.505C888.72 941.068 890.798 943.146 893.361 943.146ZM1000.11 845.689C1000.11 848.252 998.03 850.33 995.467 850.33C992.904 850.33 990.826 848.252 990.826 845.689C990.826 843.126 992.904 841.049 995.467 841.049C998.03 841.049 1000.11 843.126 1000.11 845.689Z" fill="#939393" fill-opacity="0.2"/>
</svg>
