<svg width="788" height="102" viewBox="0 0 788 102" fill="none" xmlns="http://www.w3.org/2000/svg">
<path fill-rule="evenodd" clip-rule="evenodd" d="M483.463 0L485.791 5.53033L523.131 94.2596L518.522 96.199L483.509 13.0001L479.643 22.3731L509.822 94.2616L505.212 96.197L476.955 28.8884L449.197 96.1826L444.574 94.276L474.624 21.4282L481.175 5.54671L483.463 0ZM0.740571 4.72398C1.21451 4.25448 1.85644 3.99387 2.52353 4.00015L13.9844 4.10802L39.4841 4.34803L39.4941 4.34811L39.5045 4.34816L39.5653 4.34893C39.6146 4.34976 39.6814 4.35129 39.7644 4.35416C39.9303 4.35988 40.1616 4.37092 40.4492 4.39219C41.0234 4.43465 41.8268 4.51828 42.7839 4.68343C44.6868 5.01176 47.2602 5.673 49.8624 7.02003C52.4762 8.37306 55.1532 10.4372 57.1694 13.5682C59.1929 16.7107 60.4558 20.7812 60.4558 25.9857C60.4558 31.1889 59.1932 35.228 57.1541 38.3179C55.1217 41.3976 52.4233 43.3754 49.795 44.637C47.18 45.8922 44.5977 46.4578 42.6931 46.7147C41.7344 46.844 40.9301 46.8975 40.3555 46.9183C40.0677 46.9288 39.8362 46.9311 39.6703 46.9306C39.5873 46.9303 39.5205 46.9294 39.4712 46.9283L39.4366 46.9275H16.4609V53.0621H37.9917C38.9363 53.0621 39.8002 53.5945 40.2248 54.4382L60.1889 94.1054L55.7227 96.3532L36.4512 58.0621H16.4609V95.2293H11.4609V55.5621V44.4275V9.08449L5 9.02368V95.2293H0V6.50004C0 5.83292 0.266633 5.19347 0.740571 4.72398ZM16.4609 9.13155V41.9275H39.4705C39.4911 41.9275 39.5117 41.9277 39.5323 41.9282L39.5576 41.929L16.4609 9.13155ZM16.4609 9.13155L39.447 9.34789L39.4627 9.34798L39.4634 9.34799L39.4637 9.34799L39.4663 9.34799L39.4682 9.348L39.4818 9.34823C39.5024 9.34858 39.5395 9.34938 39.5919 9.35118C39.6968 9.3548 39.8625 9.36246 40.0804 9.37857C40.5171 9.41086 41.1579 9.47675 41.9338 9.61062C43.4969 9.88034 45.5448 10.4152 47.5639 11.4604C49.5714 12.4996 51.5157 14.0237 52.9656 16.2752C54.408 18.5152 55.4558 21.6213 55.4558 25.9857C55.4558 30.3513 54.4077 33.4019 52.9809 35.5639C51.5473 37.7363 49.6243 39.1728 47.6313 40.1294C45.625 41.0924 43.586 41.549 42.0246 41.7596C41.2503 41.8641 40.6104 41.9058 40.1741 41.9216C39.9564 41.9295 39.7908 41.9309 39.686 41.9306L39.6515 41.9304L39.6206 41.9301L39.5759 41.9294L39.5623 41.9291L16.4609 9.13155ZM301.681 4.72398C302.155 4.25448 302.797 3.99387 303.464 4.00015L314.925 4.10802L340.424 4.34803L340.434 4.34811L340.445 4.34816L340.506 4.34893C340.555 4.34976 340.622 4.35129 340.705 4.35416C340.871 4.35988 341.102 4.37092 341.39 4.39219C341.964 4.43465 342.767 4.51828 343.724 4.68343C345.627 5.01176 348.201 5.673 350.803 7.02003C353.417 8.37306 356.094 10.4372 358.11 13.5682C360.133 16.7107 361.396 20.7812 361.396 25.9857C361.396 31.1889 360.134 35.228 358.094 38.3179C356.062 41.3976 353.364 43.3754 350.735 44.637C348.12 45.8922 345.538 46.4578 343.633 46.7147C342.675 46.844 341.871 46.8975 341.296 46.9183C341.008 46.9288 340.777 46.9311 340.611 46.9306C340.528 46.9303 340.461 46.9294 340.412 46.9283L340.377 46.9275H317.401V53.0621H338.932C339.877 53.0621 340.741 53.5945 341.165 54.4382L361.129 94.1054L356.663 96.3532L337.392 58.0621H317.401V95.2293H312.401V55.5621V44.4275V9.08449L305.94 9.02368V95.2293H300.94V6.50004C300.94 5.83292 301.207 5.19347 301.681 4.72398ZM317.401 9.13155V41.9275H340.411L340.44 41.9276L340.473 41.9282L340.498 41.929L317.401 9.13155ZM317.401 9.13155L340.387 9.34789L340.403 9.34798L340.404 9.34799L340.404 9.34799L340.407 9.34799L340.409 9.348L340.422 9.34823C340.443 9.34858 340.48 9.34938 340.532 9.35118C340.637 9.3548 340.803 9.36246 341.021 9.37857C341.458 9.41086 342.098 9.47675 342.874 9.61062C344.437 9.88034 346.485 10.4152 348.504 11.4604C350.512 12.4996 352.456 14.0237 353.906 16.2752C355.348 18.5152 356.396 21.6213 356.396 25.9857C356.396 30.3513 355.348 33.4019 353.921 35.5639C352.488 37.7363 350.565 39.1728 348.572 40.1294C346.565 41.0924 344.526 41.549 342.965 41.7596C342.191 41.8641 341.551 41.9058 341.115 41.9216C340.897 41.9295 340.731 41.9309 340.626 41.9306L340.592 41.9304L340.561 41.9301L340.516 41.9294L340.503 41.9291L317.401 9.13155ZM72.7435 4.00004H70.2435V6.50004V45.7794V57.3528V95.2293V97.7293H72.7435H133.375V92.7293H75.2435V59.8528H121.249V54.8528H75.2435V48.2794H119.779V43.2794H75.2435V9.00004H133.375V4.00004H72.7435ZM225.521 4.00004H228.021H288.652V9.00004H230.521V43.2794H275.056V48.2794H230.521V54.8528H276.526V59.8528H230.521V92.7293H288.652V97.7293H228.021H225.521V95.2293V57.3528V45.7794V6.50004V4.00004ZM376 5.55904L403.314 72.7892L432.08 5.51713L436.677 7.48296L405.964 79.3104L409.768 88.6732L444.58 5.53447L449.192 7.46561L412.039 96.1949L409.698 101.785L407.417 96.1703L400.939 80.2268L371.368 7.44105L376 5.55904ZM520.827 4.36975H581.828V9.36975H520.827V4.36975ZM549.383 20.4178H521.567V15.4178H551.883H554.383H582.198V20.4178H554.383V95.2538H549.383V20.4178ZM594.487 95.2293V6.50004H599.487V95.2293H594.487ZM157.508 11.9405L157.487 11.9598L157.487 11.9599L157.486 11.9607L157.464 11.9813C157.446 11.998 157.422 12.0206 157.392 12.049C157.332 12.1058 157.249 12.1858 157.146 12.2878C156.939 12.4917 156.65 12.7846 156.304 13.1574C155.614 13.9013 154.686 14.973 153.72 16.3009C151.816 18.9184 149.629 22.7151 148.995 27.0759C148.341 31.5705 149.369 36.5135 153.642 41.0816C157.812 45.5394 164.933 49.4954 176.173 52.5855L176.31 52.6231L176.449 52.6449L176.45 52.645L176.45 52.645L176.454 52.6457L176.478 52.6494L176.58 52.6661C176.672 52.6813 176.812 52.705 176.996 52.7373C177.364 52.802 177.907 52.9014 178.594 53.0383C179.97 53.3121 181.916 53.7346 184.184 54.3264C188.745 55.5165 194.503 57.3645 199.525 60.0099C204.627 62.6975 208.524 65.9752 210.033 69.8032C211.428 73.3412 211.04 78.0716 205.901 84.4893L205.862 84.5232L205.805 84.5731C205.645 84.7113 205.394 84.921 205.057 85.1845C204.383 85.7119 203.364 86.4522 202.029 87.2647C199.356 88.8918 195.443 90.7918 190.509 91.8682C180.756 93.9954 166.631 92.9933 149.729 79.4114L146.597 83.309C164.623 97.7938 180.278 99.2172 191.574 96.7533C197.164 95.5341 201.592 93.3844 204.629 91.5356C206.15 90.6102 207.328 89.756 208.137 89.1234C208.542 88.8069 208.855 88.5453 209.073 88.3571C209.182 88.263 209.267 88.1872 209.328 88.1321L209.354 88.1083L209.402 88.065L209.425 88.0436L209.433 88.036L209.436 88.033C209.437 88.0318 209.439 88.0306 207.724 86.2112L209.439 88.0306L209.561 87.9149L209.667 87.7837C215.627 80.4173 216.968 73.7592 214.685 67.969C212.505 62.4414 207.278 58.4426 201.855 55.5861C196.352 52.6874 190.182 50.7239 185.447 49.4884C183.067 48.8675 181.024 48.4238 179.571 48.1345C178.844 47.9898 178.264 47.8835 177.862 47.8128C177.661 47.7775 177.504 47.751 177.396 47.7332L177.369 47.7287C166.633 44.7617 160.555 41.1529 157.293 37.666C154.122 34.2753 153.494 30.8805 153.943 27.7955C154.411 24.5765 156.084 21.5515 157.763 19.2421C158.589 18.1066 159.385 17.1887 159.969 16.5587C160.261 16.2446 160.498 16.0045 160.657 15.8472C160.737 15.7686 160.797 15.7109 160.835 15.6752L160.874 15.6382L160.879 15.6337L160.88 15.6329L160.88 15.6328L160.88 15.6324L160.88 15.6323L160.89 15.6236L160.897 15.6168L160.897 15.6166L160.919 15.5962C160.944 15.5741 160.987 15.5359 161.048 15.4831C161.171 15.3776 161.367 15.2145 161.633 15.0081C162.166 14.5948 162.98 14.01 164.057 13.3659C166.212 12.0766 169.402 10.5616 173.493 9.69806C181.579 7.99156 193.547 8.75189 208.452 19.6235L211.398 15.5839C195.425 3.93289 182.024 2.78746 172.461 4.80583C167.728 5.80477 164.023 7.55984 161.49 9.075C160.222 9.83318 159.243 10.5342 158.57 11.0562C158.233 11.3174 157.972 11.5343 157.788 11.6919C157.697 11.7707 157.625 11.8347 157.572 11.8821C157.546 11.9058 157.524 11.9254 157.508 11.9405ZM609.429 47.1428C611.409 22.5839 631.176 4.00004 656.14 4.00004C681.104 4.00004 700.871 22.5839 702.851 47.1428C704.998 73.773 684.399 97.7293 656.14 97.7293C627.88 97.7293 607.282 73.773 609.429 47.1428ZM656.14 9.00004C633.81 9.00004 616.186 25.5545 614.413 47.5446C612.492 71.368 630.903 92.7293 656.14 92.7293C681.376 92.7293 699.788 71.368 697.867 47.5446C696.094 25.5545 678.47 9.00004 656.14 9.00004ZM713.332 6.46416L782.467 93.8231L787.019 99.5748L786.927 92.2404L785.818 3.51115L780.818 3.57365L781.836 84.9685L717.253 3.36131L713.332 6.46416ZM718.39 20.8696L713.901 14.9771V22.3845V92.2717H718.901V29.792L767.65 93.7866L771.628 90.7567L718.39 20.8696Z" fill="url(#paint0_linear_1842_2662)"/>
<defs>
<linearGradient id="paint0_linear_1842_2662" x1="393.509" y1="0" x2="393.509" y2="101.785" gradientUnits="userSpaceOnUse">
<stop stop-color="#00E2BA"/>
<stop offset="0.828125" stop-color="white"/>
</linearGradient>
</defs>
</svg>
