<svg width="166" height="58" viewBox="0 0 166 58" fill="none" xmlns="http://www.w3.org/2000/svg">
<path d="M13.0924 57.315C11.1527 57.315 9.31732 57.0855 7.5862 56.6267C5.87593 56.1678 4.37423 55.5734 3.0811 54.8434C1.78797 54.1134 0.765985 53.3521 0.0151367 52.5596L3.20624 45.9896C3.68595 46.6153 4.41595 47.2828 5.39622 47.9919C6.3765 48.701 7.49234 49.3059 8.74375 49.8064C10.016 50.307 11.2779 50.5573 12.5293 50.5573C14.177 50.5573 15.5535 50.1089 16.659 49.212C17.7852 48.2943 18.3484 47.0116 18.3484 45.3639C18.3484 44.3002 18.0877 43.3825 17.5662 42.6108C17.0657 41.8182 16.3878 41.1195 15.5327 40.5147C14.6984 39.889 13.4053 39.0443 11.6533 37.9806C9.25475 36.5206 7.37763 35.2796 6.02193 34.2576C4.66623 33.2147 3.48781 31.859 2.48668 30.1905C1.50641 28.5011 1.01627 26.4675 1.01627 24.0898C1.01627 21.7747 1.50641 19.7307 2.48668 17.9579C3.48781 16.1642 4.95822 14.7668 6.89792 13.7656C8.83761 12.7645 11.1736 12.2639 13.9058 12.2639C18.3484 12.2639 22.0609 13.6196 25.0434 16.331L21.5395 22.7133C21.1849 22.2127 20.6531 21.6704 19.9439 21.0864C19.2348 20.4816 18.3796 19.9706 17.3785 19.5534C16.3774 19.1154 15.3241 18.8964 14.2187 18.8964C12.6127 18.8964 11.3613 19.3657 10.4644 20.3043C9.58846 21.222 9.15047 22.3795 9.15047 23.777C9.15047 24.8407 9.41118 25.7897 9.9326 26.6239C10.4749 27.4374 11.1736 28.1674 12.0287 28.8139C12.9047 29.4605 14.0727 30.2218 15.5327 31.0977C18.1815 32.662 20.2046 33.976 21.602 35.0397C22.9995 36.1034 24.1674 37.4591 25.106 39.1068C26.0654 40.7337 26.5451 42.7359 26.5451 45.1136C26.5451 47.6373 26.0028 49.8169 24.9183 51.6523C23.8337 53.4877 22.2799 54.8955 20.2568 55.8758C18.2337 56.8352 15.8455 57.315 13.0924 57.315Z" fill="#3B4040"/>
<path d="M96.4845 13.0148V56.6267H95.8588L74.9602 33.6632L73.0205 31.1603L73.3334 37.2297V56.6267H65.6372V13.0148H66.3254L86.9112 36.2911L89.1012 39.1381L88.7883 33.1626V13.0148H96.4845Z" fill="#3B4040"/>
<path d="M117.642 57.315C115.702 57.315 113.867 57.0855 112.136 56.6267C110.425 56.1678 108.924 55.5734 107.63 54.8434C106.337 54.1134 105.315 53.3521 104.564 52.5596L107.756 45.9896C108.235 46.6153 108.965 47.2828 109.946 47.9919C110.926 48.701 112.042 49.3059 113.293 49.8064C114.565 50.307 115.827 50.5573 117.079 50.5573C118.726 50.5573 120.103 50.1089 121.208 49.212C122.335 48.2943 122.898 47.0116 122.898 45.3639C122.898 44.3002 122.637 43.3825 122.116 42.6108C121.615 41.8182 120.937 41.1195 120.082 40.5147C119.248 39.889 117.955 39.0443 116.203 37.9806C113.804 36.5206 111.927 35.2796 110.571 34.2576C109.216 33.2147 108.037 31.859 107.036 30.1905C106.056 28.5011 105.566 26.4675 105.566 24.0898C105.566 21.7747 106.056 19.7307 107.036 17.9579C108.037 16.1642 109.508 14.7668 111.447 13.7656C113.387 12.7645 115.723 12.2639 118.455 12.2639C122.898 12.2639 126.61 13.6196 129.593 16.331L126.089 22.7133C125.734 22.2127 125.202 21.6704 124.493 21.0864C123.784 20.4816 122.929 19.9706 121.928 19.5534C120.927 19.1154 119.873 18.8964 118.768 18.8964C117.162 18.8964 115.911 19.3657 115.014 20.3043C114.138 21.222 113.7 22.3795 113.7 23.777C113.7 24.8407 113.961 25.7897 114.482 26.6239C115.024 27.4374 115.723 28.1674 116.578 28.8139C117.454 29.4605 118.622 30.2218 120.082 31.0977C122.731 32.662 124.754 33.976 126.151 35.0397C127.549 36.1034 128.717 37.4591 129.655 39.1068C130.615 40.7337 131.094 42.7359 131.094 45.1136C131.094 47.6373 130.552 49.8169 129.468 51.6523C128.383 53.4877 126.829 54.8955 124.806 55.8758C122.783 56.8352 120.395 57.315 117.642 57.315Z" fill="#3B4040"/>
<path fill-rule="evenodd" clip-rule="evenodd" d="M59.7702 12.2014H32.8648V21.587H59.7702V12.2014ZM32.8647 29.0956H51.636V38.4812H32.8647V29.0956ZM32.8647 47.241H59.7702V56.6267H32.8647V47.241Z" fill="#3B4040"/>
<path fill-rule="evenodd" clip-rule="evenodd" d="M138.609 12.2014H165.515V21.587H138.609V12.2014ZM138.609 47.241H165.515V56.6267H138.609V47.241ZM157.381 29.0956H138.609V38.4812H157.381V29.0956Z" fill="#3B4040"/>
<path fill-rule="evenodd" clip-rule="evenodd" d="M80.1058 0H75.1001V1.25142H80.1058V0ZM91.3685 0H86.9886V1.25142H91.3685V0ZM90.1171 2.81567H86.9886V4.06709H90.1171V2.81567ZM86.9886 5.63141H91.3685V6.88283H86.9886V5.63141ZM76.9772 6.88281V1.87714H78.2344V6.88281H76.9772ZM80.7314 1.52588e-05V6.88281H81.9886V1.52588e-05H80.7314ZM84.4857 6.88281V1.52588e-05H85.7429V6.88281H84.4857ZM83.8657 2.50287H82.6085V3.75429H83.8657V2.50287Z" fill="#3B4040"/>
</svg>
