<svg width="1520" height="2163" viewBox="0 0 1520 2163" fill="none" xmlns="http://www.w3.org/2000/svg">
<path opacity="0.2" d="M1519 2099.53H945.871M-1 2099.53H308.986M805.607 1677.87L662.5 1959.41M805.607 1677.87H519.752M805.607 1677.87L876.449 1538.74L733.522 1259.05L591.492 1537.32M559.523 2162L662.5 1959.41M1403.42 2162L1335.25 2029.96M1317.66 1995.89L1335.06 1961.66M1317.66 1995.89L1335.25 2029.96M1317.66 1995.89L1233.15 2162M1317.66 1995.89L1301.38 1957.56M1519 2039.9L1407.14 1819.84L1335.06 1961.66M1436.97 2162L1335.06 1961.66M1519 2029.96H1335.25M1296.53 2162L1123.78 1818.42M1123.78 1818.42H1372.34L1301.38 1957.56M1123.78 1818.42H1088.98M1197.1 2162L1301.38 1957.56M1301.38 1957.56H1016.89M1016.89 1957.56L1088.98 1818.42M1016.89 1957.56L1118.8 2162M1016.89 1957.56L945.871 2099.53M1088.98 1818.42L1261.73 2162M914.977 2161.29L945.871 2099.53M980.848 1957.56L1084 2162M980.848 1957.56L910.006 2099.53M980.848 1957.56H698.722M945.871 2099.53L978.362 2162M945.871 2099.53H910.006M910.006 2099.53L942.32 2162M910.006 2099.53L878.935 2162M910.006 2099.53H627.88M698.722 1957.56L799.393 2162M698.722 1957.56L565.1 1694.91M-1 1694.91H140.063M764.593 2162L662.5 1959.41M547.095 1730.4L565.1 1694.91M547.095 1730.4L661.568 1957.56M547.095 1730.4L423.658 1975.3M565.1 1694.91L422.81 1415.22H565.64M565.1 1694.91H281.747M565.1 1694.91H707.422M405.411 2011.51H547.644M405.411 2011.51H-1L25.1567 1959.69M405.411 2011.51L378.068 1957.56M405.411 2011.51L423.658 1975.3M830.427 2011.51L972.148 1730.4H688.779M830.427 2011.51L688.779 1730.4M830.427 2011.51H547.644M688.779 1730.4L565.738 1974.59M688.779 1730.4L707.422 1694.91M688.779 1730.4L591.492 1537.32M565.738 1974.59L282.369 1415.22L140.063 1694.91M565.738 1974.59L627.88 2099.53M658.951 2162L627.88 2099.53M140.063 1694.91L282.369 1973.18M140.063 1694.91H281.747M282.369 1973.18L406.345 1728.98M282.369 1973.18L187.291 2162M584.38 1378.31H724.822M584.38 1378.31L565.64 1415.22M584.38 1378.31L724.822 1656.57L866.506 1378.31M584.38 1098.62L724.822 1378.31M584.38 1098.62H726.065M584.38 1098.62L601.78 1064.54M724.822 1378.31L743.464 1344.23M724.822 1378.31H866.506M622.908 2162L547.644 2011.51M406.345 1728.98L547.644 2011.51M406.345 1728.98L565.64 1415.22M662.5 1959.41L661.568 1957.56M661.568 1957.56H378.068M378.068 1957.56L264.969 1731.82L104.866 2046.68M46.2281 2162L104.866 2046.68M627.88 2099.53L595.566 2162M627.88 2099.53H308.986M547.644 2011.51L530.073 2045.58M470.038 2162L530.073 2045.58M530.073 2045.58L590.594 2162M-1 1677.87H167.406L96.4602 1818.42M423.658 1975.3L281.747 1694.91M134.397 1817.71L201.584 1677.87H485.393M134.397 1817.71H165.541M134.397 1817.71L132.692 1821.26M414.11 1817.71L272.426 1538.74L343.268 1398.89M414.11 1817.71L485.393 1677.87M414.11 1817.71H165.541M557.038 1537.32L414.11 1259.05L343.268 1398.89M557.038 1537.32L485.393 1677.87M557.038 1537.32L698.722 1259.05M343.268 1398.89L485.393 1677.87M485.393 1677.87H519.752M340.783 2162L308.986 2099.53M165.541 1817.71L308.986 2099.53M132.692 1821.26L305.983 2162M132.692 1821.26L61.7638 1957.56M308.986 2099.53L276.155 2162M239.491 2162L344.511 1957.56H61.7638M61.7638 1957.56L-1 2080.37M96.4602 1818.42H-1M96.4602 1818.42L25.1567 1959.69M199.098 2162L-1 1767.31M163.056 2162L104.866 2046.68M-1 1836.88L104.866 2046.68M104.866 2046.68H-1L58.6566 2162M21.3712 2162L-1 2118.7M125.149 2162L25.1567 1959.69M25.1567 1959.69H-1M519.752 1677.87L591.492 1537.32M707.422 1694.91H990.791L1132.48 1415.22H565.64M707.422 1694.91L565.64 1415.22M698.722 1259.05L743.464 1344.23M698.722 1259.05L601.78 1064.54M743.464 1344.23L1044.42 749.362M866.506 1378.31L726.065 1098.62M866.506 1378.31H1008.19M726.065 1098.62H1009.43L1151.12 1378.31H1008.19M601.78 1064.54L742.222 783.436M742.222 783.436L1026.21 1342.79M742.222 783.436H885.35M1519 783.436H1451.26M1008.19 1378.31L1026.21 1342.79M1469.29 469.674H1519M1469.29 469.674H1395.1M1469.29 469.674L1186.14 1027.63M1115.08 749.362L1256.76 469.674H1329.47M1115.08 749.362H1184.67M1115.08 749.362H1044.42M1519 749.362H1468.66M902.549 749.362L1044.23 1026.21L1167.39 783.436M902.549 749.362L885.35 783.436M902.549 749.362H1044.42M1184.67 749.362L1167.39 783.436M1184.67 749.362H1254.27M1250.55 4.00007L992.493 513.686M530.938 868.62L672.622 1145.47L832.725 829.246M530.938 868.62L672.622 587.512M530.938 868.62H388.011L532.181 587.512M530.938 868.62H673.96M672.622 587.512H532.181M672.622 587.512L955.991 1144.05L1013.16 1033.31M672.622 587.512H815.558M532.181 587.512L673.96 868.62M1382.29 868.62L1185.92 469.674L1044.42 749.362M1382.29 868.62L1519 594.611M1382.29 868.62H1239.67M1519 587.512H1097.77M1013.16 1033.31L1026.83 1064.54L883.906 1341.39L743.464 1064.54M1013.16 1033.31L1097.05 868.62M1013.16 1033.31L885.35 783.436M743.464 1064.54H1167.41M743.464 1064.54L885.35 783.436M1151.12 623.005L1257.83 832.417M1151.12 623.005L1008.09 904.113M1151.12 623.005L892.515 111.9M837.921 4.00007L892.515 111.9M1151.12 904.113L1008.19 627.265M1151.12 904.113L867.749 903.169M1151.12 904.113L1008.19 1185.22L867.749 903.169M1008.19 627.265L867.749 903.169M1008.19 627.265L831.706 272.33M867.749 903.169L724.822 902.693L866.506 1182.38L1008.09 904.113M1097.05 868.62L955.115 587.512M1097.05 868.62H1239.67M1097.05 868.62H955.321M955.115 587.512L832.725 829.246M955.115 587.512H1097.77M955.115 587.512H815.558M955.115 587.512L992.493 513.686M1167.41 1064.54L1026.21 1342.79M1167.41 1064.54H1309.65M1167.41 1064.54L1026.37 783.436M1167.41 1064.54L1186.14 1027.63M1519 931.088L1451.89 1064.54H1309.65M1393.47 4.00007L1293.42 201.43M673.96 868.62L814.307 1146.89L955.321 868.62M673.96 868.62H955.321M673.96 868.62L815.558 587.512M1109.48 4.00007L833.437 552.018M832.725 829.246L690.022 552.018L831.706 272.33M831.706 272.33H1115.08M831.706 272.33H690.644M1398.44 272.33L1275.4 513.686L1018.13 4.00007L963.498 113.32M1398.44 272.33H1257.49M1398.44 272.33L1416.47 236.837M1109.48 394.428H823.007L963.498 113.32M1109.48 394.428L963.498 113.32M1109.48 394.428L1179.73 253.874M963.498 113.32H1212.02M963.498 113.32L929.31 113.192M1212.02 113.32L1157.33 4.00007M1212.02 113.32L1395.1 469.674M1417.71 513.686L1519 314.922M1417.71 513.686L1395.1 469.674M1417.71 513.686L1398.48 552.018M1239.67 868.62L1097.77 587.512M1239.67 868.62L1257.83 832.417M1097.77 587.512L955.321 868.62M1097.77 587.512L1133.75 516.525M1167.39 783.436L1309.65 1064.54M1167.39 783.436H1451.26M1167.39 783.436H1026.37M1309.65 1064.54L1451.26 783.436M1468.66 749.362L1519 648.561M1468.66 749.362L1329.47 469.674M1468.66 749.362H1254.27M1329.47 469.674H1395.1M1395.1 469.674L1254.27 749.362M1257.83 832.417L1398.48 552.018M1113.21 834.546L1256.76 552.018L1115.08 272.33M1115.08 272.33H1257.49M1398.48 552.018H833.437M1398.48 552.018L1257.49 272.33M885.35 783.436H1026.37M1186.14 1027.63L1044.42 749.362M1008.09 904.113L833.437 552.018M833.437 552.018L815.558 587.512M833.437 552.018H549.581M833.437 552.018L690.644 272.33M955.321 868.62L815.558 587.512M815.558 587.512L672.622 307.824M672.622 307.824L690.644 272.33M672.622 307.824L549.581 552.018M690.644 272.33H407.896M549.581 552.018H407.896L267.455 272.33H407.896M549.581 552.018L469.029 393.008M407.896 272.33L469.029 393.008M469.029 393.008H186.048L256.283 253.874M469.029 393.008L539.624 253.874M382.418 4.00007L256.283 253.874M666.408 4.00007L611.661 111.9M786.964 394.428H504.217L647.144 111.9M786.964 394.428L929.31 113.192M786.964 394.428L707.422 236.837M984.576 4.00007L929.31 113.192M647.144 111.9H611.661M647.144 111.9H892.515M611.661 111.9L539.624 253.874M611.661 111.9L553.309 4.00007M826.735 4.00007L707.422 236.837M707.422 236.837L591.837 4.00007M707.422 236.837H567.602L451.396 4.00007M707.422 236.837H851.151M1519 236.837H1416.47M1519 253.874H1496.48M256.283 253.874H539.624M992.493 513.686L851.151 236.837M732.279 4.00007L851.151 236.837M851.151 236.837L966.555 4.00007M851.151 236.837H1416.47M873.963 4.00007L929.31 113.192M1133.75 516.525L929.31 113.192M1133.75 516.525L1257.49 272.33M1051.07 4.00007L1179.73 253.874M1179.73 253.874H1496.48M1179.73 253.874L1250 113.271M1179.73 253.874H539.624M1424.54 394.428H1141.8L1284.1 113.271M1424.54 394.428L1496.48 253.874M1424.54 394.428L1284.1 113.271M1519 209.862L1496.48 253.874M1496.48 253.874L1370.48 4.00007M1284.1 113.271L1339.41 4.00007L1434.49 198.504L1519 32.3949M1284.1 113.271H1519M1284.1 113.271H1250M1250 113.271L1304.61 4.00007L1416.47 236.837M1250 113.271L1293.42 201.43M1250 113.271L1193.37 4.00007M1293.42 201.43L1257.49 272.33M539.624 253.874L414.11 4.00007M149.384 393.008H-1M149.384 393.008L6.45715 114.74M149.384 393.008L220.063 253.874M346.997 4.00007L292.185 111.9M6.45715 114.74L63.0066 4.00007M6.45715 114.74L-1 133.196M220.063 253.874H-1M220.063 253.874L93.4563 4.00007M220.063 253.874L292.185 111.9M292.185 111.9L236.384 4.00007M292.185 111.9H573.195L518.509 4.00007M1519 157.332L1440.7 4.00007M1519 89.1843L1475.5 4.00007M1519 21.037L1510.3 4.00007M-1 60.7895L7.57568 43.7528M27.5854 4.00007L7.57568 43.7528M7.57568 43.7528H-1M7.57568 43.7528L-1 25.2962" stroke="#4DD9A6" stroke-width="3"/>
</svg>
