<svg width="1520" height="3212" viewBox="0 0 1520 3212" fill="none" xmlns="http://www.w3.org/2000/svg">
<path opacity="0.2" d="M1476 1V1209.47M1476 3206V2552.38M1179 1505.23L1377.3 1806.97M1179 1505.23L1179 2107.97M1179 1505.23L1081 1355.85L884 1657.22L1080 1956.7M1520 2024.11L1377.3 1806.97M1520 244.716L1427 388.446M1403 425.538L1378.89 388.85M1403 425.538L1427 388.446M1403 425.538L1520 603.739M1403 425.538L1376 459.866M1434 1L1279 236.854L1378.89 388.85M1520 173.96L1378.89 388.85M1427 1V388.446M1520 470.088L1278 834.352M1278 834.352V310.231L1376 459.866M1278 834.352V907.729M1520 679.737L1376 459.866M1376 459.866V1059.72M1376 1059.72L1278 907.729M1376 1059.72L1520 844.835M1376 1059.72L1476 1209.47M1278 907.729L1520 543.465M1519.5 1274.61L1476 1209.47M1376 1135.72L1520 918.212M1376 1135.72L1476 1285.1M1376 1135.72L1376 1730.6M1476 1209.47L1520 1140.96M1476 1209.47V1285.1M1476 1285.1L1520 1216.96M1476 1285.1L1520 1350.61M1476 1285.1L1476 1879.97M1376 1730.6L1520 1518.33M1376 1730.6L1191 2012.35M1191 3206V2908.56M1520 1591.71L1377.3 1806.97M1216 2050.31L1191 2012.35M1216 2050.31L1376 1808.94M1216 2050.31L1388.5 2310.59M1191 2012.35L994 2312.37L994 2011.21M1191 2012.35V2609.81M1191 2012.35L1191 1712.26M1414 2349.06V2049.16M1414 2349.06V3206L1377.5 3150.85M1414 2349.06L1376 2406.72M1414 2349.06L1388.5 2310.59M1414 1452.89L1216 1154.07V1751.56M1414 1452.89L1216 1751.56M1414 1452.89L1414 2049.16M1216 1751.56L1388 2011M1216 1751.56L1191 1712.26M1216 1751.56L1080 1956.7M1388 2011L994 2608.5L1191 2908.56M1388 2011L1476 1879.97M1520 1814.46L1476 1879.97M1191 2908.56L1387 2608.5M1191 2908.56V2609.81M1387 2608.5L1215 2347.09M1387 2608.5L1520 2808.98M968 1971.69V1675.57M968 1971.69L994 2011.21M968 1971.69L1164 1675.57L968 1376.82M771 1971.69L968 1675.57M771 1971.69V1672.95M771 1971.69L747 1935.01M968 1675.57L944 1636.26M968 1675.57V1376.82M1520 1890.46L1414 2049.16M1215 2347.09L1414 2049.16M1215 2347.09L994 2011.21M1377.3 1806.97L1376 1808.94M1376 1808.94V2406.72M1376 2406.72L1217 2645.19L1438.77 2982.78M1520 3106.42L1438.77 2982.78M1476 1879.97L1520 1948.11M1476 1879.97V2552.38M1414 2049.16L1438 2086.21M1520 2212.79L1438 2086.21M1438 2086.21L1520 1958.59M1179 3206V2850.91L1278 3000.5M1388.5 2310.59L1191 2609.81M1277.5 2920.51L1179 2778.84V2180.41M1277.5 2920.51V2854.84M1277.5 2920.51L1280 2924.1M1277.5 2330.72L1081 2629.47L982.5 2480.09M1277.5 2330.72L1179 2180.41M1277.5 2330.72V2854.84M1080 2029.35L884 2330.72L982.5 2480.09M1080 2029.35L1179 2180.41M1080 2029.35L884 1730.6M982.5 2480.09L1179 2180.41M1179 2180.41V2107.97M1520 2485.33L1476 2552.38M1277.5 2854.84L1476 2552.38M1280 2924.1L1520 2558.71M1280 2924.1L1376 3073.66M1476 2552.38L1520 2621.61M1520 2698.91L1376 2477.47V3073.66M1376 3073.66L1462.5 3206M1278 3000.5V3206M1278 3000.5L1377.5 3150.85M1520 2784.08L1242 3206M1520 2860.08L1438.77 2982.78M1291 3206L1438.77 2982.78M1438.77 2982.78V3206L1520 3080.21M1520 3158.83L1489.5 3206M1520 2940.01L1377.5 3150.85M1377.5 3150.85V3206M1179 2107.97L1080 1956.7M1191 1712.26V1114.76L994 816.008V2011.21M1191 1712.26L994 2011.21M884 1730.6L944 1636.26M884 1730.6L747 1935.01M944 1636.26L525 1001.68M968 1376.82L771 1672.95M968 1376.82V1078.07M771 1672.95V1075.45L968 776.699V1078.07M747 1935.01L549 1638.88M549 1638.88L942.987 1040.07M549 1638.88V1337.08M549 1V143.823M968 1078.07L942.987 1040.07M328 105.824V1M328 105.824V262.257M328 105.824L721 702.843M525 852.697L328 553.948V400.642M525 852.697L525 705.943M525 852.697V1001.68M525 1V107.135M525 1300.82L720 1002.07L549 742.389M525 1300.82L549 1337.08M525 1300.82V1001.68M525 705.943L549 742.389M525 705.943V559.189M6.16312e-05 567.051L359 1111.17M609 2084.38L804 1785.63L581.267 1448.05M609 2084.38L411 1785.63M609 2084.38L609 2385.75L411 2081.76M609 2084.38V1782.81M411 1785.63V2081.76M411 1785.63L803 1188.13L725 1067.59M411 1785.63V1484.24M411 2081.76L609 1782.81M609 289.267L328 703.322L525 1001.68M609 289.267L416 1M609 289.267V589.981M411 1V889.177M725 1067.59L747 1038.76L942 1340.13L747 1636.26M725 1067.59L609 890.695M725 1067.59L549 1337.08M747 1636.26V742.341M747 1636.26L549 1337.08M436 776.699L583.5 551.69M436 776.699L634 1078.28M436 776.699L76.0001 1321.98M6.16312e-05 1437.09L76.0001 1321.98M634 776.699L439 1078.07M634 776.699L633.335 1374.2M634 776.699L832 1078.07L633.335 1374.2M439 1078.07L633.335 1374.2M439 1078.07L189 1450.19M633.335 1374.2L633 1675.57L830 1376.82L634 1078.28M609 890.695L411 1189.98M609 890.695L609 589.981M609 890.695V1189.55M411 1189.98L581.267 1448.05M411 1189.98V889.177M411 1189.98L411 1484.24M411 1189.98L359 1111.17M747 742.341L942.987 1040.07M747 742.341L747 442.427M747 742.341L549 1039.74M747 742.341L721 702.843M653 1L747 142.513V442.427M6.16312e-05 265.681L139.061 476.64M609 1782.81L805 1486.88L609 1189.55M609 1782.81V1189.55M609 1782.81L411 1484.24M6.16312e-05 864.489L386 1446.55M581.267 1448.05L386 1748.94L189 1450.19M189 1450.19L189 852.697M189 1450.19V1747.63M189 255.199L359 514.639L6.16312e-05 1057.1L77.0001 1172.31M189 255.199V552.398M189 255.199L164 217.2M275 864.489L275 1468.54L77.0001 1172.31M275 864.489L77.0001 1172.31M275 864.489L176 716.373M77.0001 1172.31V648.289M77.0001 1172.31L76.9102 1244.39M77.0001 648.289L6.16312e-05 763.596M77.0001 648.289L328 262.257M359 214.579L219 1M359 214.579L328 262.257M359 214.579L386 255.123M609 589.981L411 889.177M609 589.981L583.5 551.69M411 889.177L609 1189.55M411 889.177L361 813.326M549 742.389L747 442.427M549 742.389L549 143.823M549 742.389V1039.74M747 442.427L549 143.823M525 107.135L454 1M525 107.135L328 400.642M525 107.135V559.189M328 400.642V262.257M328 262.257L525 559.189M583.5 551.69L386 255.123M585 856.628L386 553.948L189 852.697M189 852.697V552.398M386 255.123L386 1446.55M386 255.123L189 552.398M549 1337.08V1039.74M721 702.843L525 1001.68M634 1078.28L386 1446.55M386 1446.55L411 1484.24M386 1446.55V2045.07M386 1446.55L189 1747.63M609 1189.55L411 1484.24M411 1484.24L214 1785.63M214 1785.63L189 1747.63M214 1785.63L386 2045.07M189 1747.63V2343.82M386 2045.07V2343.82L189 2639.95V2343.82M386 2045.07L274 2214.92M189 2343.82L274 2214.92M274 2214.92V2811.6L176 2663.51M274 2214.92L176 2066.06M6.16312e-05 2397.54L176 2663.51M6.16312e-05 1798.74L76.0001 1914.17M275 1544.54V2140.72L76.0001 1839.35M275 1544.54L76.9102 1244.39M275 1544.54L164 1712.26M6.16312e-05 1127.86L76.9102 1244.39M76.0001 1839.35V1914.17M76.0001 1839.35L76.0001 1321.98M76.0001 1914.17L176 2066.06M76.0001 1914.17L6.16312e-05 2037.21M6.16312e-05 1460.68L164 1712.26M164 1712.26L6.16312e-05 1955.97M164 1712.26V2007.07L6.16312e-05 2252.1M164 1712.26L164 1409.2M164 1V217.2M176 1V48.4934M176 2663.51V2066.06M359 1111.17L164 1409.2M6.16312e-05 1659.84L164 1409.2M164 1409.2L6.16312e-05 1165.86M164 1409.2V217.2M6.16312e-05 1361.09L76.9102 1244.39M361 813.326L76.9102 1244.39M361 813.326L189 552.398M6.16312e-05 987.658L176 716.373M176 716.373V48.4934M176 716.373L76.9655 568.204M176 716.373L176 2066.06M275 200.166V796.354L76.9655 496.294M275 200.166L176 48.4934M275 200.166L76.9655 496.294M145 1L176 48.4934M176 48.4934L6.16312e-05 314.162M76.9655 496.294L6.16312e-05 379.677L137 179.201L20.0001 1M76.9655 496.294V1M76.9655 496.294V568.204M76.9655 568.204L6.16312e-05 453.054L164 217.2M76.9655 568.204L139.061 476.64M76.9655 568.204L6.16312e-05 687.599M139.061 476.64L189 552.398M176 2066.06L6.16312e-05 2330.72M274 2888.91V3206M274 2888.91L78 3190.28M274 2888.91L176 2739.88M6.16312e-05 2472.23L76.0001 2587.8M78 3190.28L6.16312e-05 3071.04M78 3190.28L91 3206M176 2739.88V3206M176 2739.88L6.16312e-05 3006.83M176 2739.88L76.0001 2587.8M76.0001 2587.8L6.16312e-05 2705.46M76.0001 2587.8V1995.28L6.16312e-05 2110.59M108 1L6.16312e-05 166.098M60.0001 1L6.16312e-05 92.7212M12.0001 1L6.16312e-05 19.3442M40 3206L28.0001 3187.92M6.16312e-05 3145.73L28.0001 3187.92M28.0001 3187.92V3206M28.0001 3187.92L15.0001 3206" stroke="#FF1AA9" stroke-width="3"/>
</svg>
