<svg width="1520" height="985" viewBox="0 0 1520 985" fill="none" xmlns="http://www.w3.org/2000/svg">
<path d="M0 0V415.837H27.771V383.314M27.771 0V383.314M27.771 383.314H49.9878V0V457.653H64.799M64.799 457.653L66.6504 0M64.799 457.653V499.469H85.1644V0M151.815 0V555.628L212.911 634.21M212.911 634.21V0M212.911 634.21V719.004M212.911 850.259V719.004M244.385 0V678.349L212.911 719.004M301.778 0V453.007H327.698V0M390.646 0V594.717L468.404 692.288M468.404 692.288V938.538M468.404 692.288V0M468.404 985V938.538M468.404 938.538L494.324 906.014V0M570.231 0V176.557L599.854 211.403M599.854 211.403V0M599.854 211.403V318.267L622.071 346.144M622.071 346.144V414.676L659.099 369.375M622.071 346.144V0M659.099 369.375V676.026L692.424 717.842M659.099 369.375V0M692.424 717.842V741.073M692.424 717.842V313.62M692.424 0V313.62M692.424 313.62L722.046 350.79V0M751.669 0V882.783H773.885V645.825M773.885 0V645.825M773.885 645.825H788.697V473.915M788.697 0V473.915M788.697 473.915H803.508V446.038M803.508 0V446.038M803.508 446.038L868.307 362.406V0M907.186 436.745V415.837M907.186 0V415.837M907.186 415.837L953.471 357.759M953.471 357.759V367.052L1020.12 450.684M953.471 357.759V0M1020.12 450.684V0M1020.12 450.684V666.733M1020.12 691.126V666.733M1020.12 666.733L1075.66 594.717V0M1160.83 0V466.946L1207.11 525.024M1207.11 525.024V782.889L1247.84 831.675M1207.11 525.024V0M1247.84 831.675V964.092M1247.84 831.675V796.828M1247.84 0V204.434M1247.84 204.434L1281.17 162.618V0M1247.84 204.434V796.828M1247.84 796.828L1345.97 671.38V434.422M1345.97 0V434.422M1345.97 434.422L1407.06 511.085V0M1455.2 0V383.314H1481.12M1481.12 383.314V0M1481.12 383.314V420.484M1481.12 473.915V420.484M1481.12 420.484L1501.49 394.929M1520 0V371.698L1501.49 394.929M1501.49 0V394.929" stroke="url(#paint0_linear_497_703)" stroke-opacity="0.8" stroke-width="2"/>
<defs>
<linearGradient id="paint0_linear_497_703" x1="760" y1="985" x2="760" y2="0" gradientUnits="userSpaceOnUse">
<stop offset="0.283474" stop-color="#6AFFF6"/>
<stop offset="1" stop-color="#646363"/>
</linearGradient>
</defs>
</svg>
