<svg width="1520" height="757" viewBox="0 0 1520 757" fill="none" xmlns="http://www.w3.org/2000/svg">
<path d="M1767 932.096L1085.73 315.54L173.2 580.594M1767 932.096L60.4586 226.645L604.667 811.395M1767 932.096L1174.77 649.057M173.2 580.594L1368.07 462.339L1651.5 482.5L1174.77 649.057M173.2 580.594L479.626 632.789M173.2 580.594L-228.622 462.339L1174.77 649.057M479.626 632.789L-351 990L40.2229 4L604.667 811.395M479.626 632.789L1497.19 206.256L312.923 877.454L550.933 428.086L1402.76 516.981L373.63 191.577L615.494 894.581L604.667 811.395M604.667 811.395L503.716 35.8065L-31.0837 733.917L217.526 191.577L1174.77 649.057" stroke="url(#paint0_linear_493_114)" stroke-opacity="0.3" stroke-width="3"/>
<defs>
<linearGradient id="paint0_linear_493_114" x1="708" y1="990" x2="845.602" y2="23.5925" gradientUnits="userSpaceOnUse">
<stop offset="0.0988495" stop-color="#0EE4BE"/>
<stop offset="1" stop-color="#3B4040"/>
</linearGradient>
</defs>
</svg>
