<svg width="1520" height="993" viewBox="0 0 1520 993" fill="none" xmlns="http://www.w3.org/2000/svg">
<path d="M-299 932.096L382.268 315.54L1294.8 580.594M-299 932.096L1407.54 226.645L863.333 811.394M-299 932.096L293.235 649.057M1294.8 580.594L99.9318 462.339L-183.5 482.5L293.235 649.057M1294.8 580.594L988.374 632.789M1294.8 580.594L1696.62 462.339L293.235 649.057M988.374 632.789L1819 990L1427.78 3.99988L863.333 811.394M988.374 632.789L-29.1911 206.256L1155.08 877.454L917.067 428.086L65.242 516.981L1094.37 191.576L852.506 894.581L863.333 811.394M863.333 811.394L964.284 35.8063L1499.08 733.917L1250.47 191.576L293.235 649.057" stroke="url(#paint0_linear_488_1052)" stroke-opacity="0.3" stroke-width="3"/>
<defs>
<linearGradient id="paint0_linear_488_1052" x1="760" y1="990" x2="622.398" y2="23.5923" gradientUnits="userSpaceOnUse">
<stop offset="0.0988495" stop-color="#0EE4BE"/>
<stop offset="1" stop-color="#3B4040"/>
</linearGradient>
</defs>
</svg>
