<svg width="1520" height="2164" viewBox="0 0 1520 2164" fill="none" xmlns="http://www.w3.org/2000/svg">
<path opacity="0.5" d="M0 2100.5H573.129M1520 2100.5H1210.01M713.393 1678.65L856.5 1960.32M713.393 1678.65H999.248M713.393 1678.65L642.551 1539.45L785.478 1259.63L927.508 1538.03M959.477 2163L856.5 1960.32M115.585 2163L183.75 2030.9M201.341 1996.81L183.941 1962.57M201.341 1996.81L183.75 2030.9M201.341 1996.81L285.854 2163M201.341 1996.81L217.621 1958.46M0 2040.85L111.856 1820.68L183.941 1962.57M82.0278 2163L183.941 1962.57M0 2030.9H183.75M222.469 2163L395.225 1819.26M395.225 1819.26H146.656L217.621 1958.46M395.225 1819.26H430.025M321.897 2163L217.621 1958.46M217.621 1958.46H502.11M502.11 1958.46L430.025 1819.26M502.11 1958.46L400.196 2163M502.11 1958.46L573.129 2100.5M430.025 1819.26L257.269 2163M604.023 2162.29L573.129 2100.5M538.152 1958.46L434.996 2163M538.152 1958.46L608.994 2100.5M538.152 1958.46H820.278M573.129 2100.5L540.638 2163M573.129 2100.5H608.994M608.994 2100.5L576.68 2163M608.994 2100.5L640.065 2163M608.994 2100.5H891.12M820.278 1958.46L719.607 2163M820.278 1958.46L953.9 1695.69M1520 1695.69H1378.94M754.407 2163L856.5 1960.32M971.905 1731.2L953.9 1695.69M971.905 1731.2L857.432 1958.46M971.905 1731.2L1095.34 1976.22M953.9 1695.69L1096.19 1415.87H953.36M953.9 1695.69H1237.25M953.9 1695.69H811.578M1113.59 2012.44H971.356M1113.59 2012.44H1520L1493.84 1960.59M1113.59 2012.44L1140.93 1958.46M1113.59 2012.44L1095.34 1976.22M688.573 2012.44L546.852 1731.2H830.221M688.573 2012.44L830.221 1731.2M688.573 2012.44H971.356M830.221 1731.2L953.262 1975.51M830.221 1731.2L811.578 1695.69M830.221 1731.2L927.508 1538.03M953.262 1975.51L1236.63 1415.87L1378.94 1695.69M953.262 1975.51L891.12 2100.5M860.049 2163L891.12 2100.5M1378.94 1695.69L1236.63 1974.09M1378.94 1695.69H1237.25M1236.63 1974.09L1112.66 1729.78M1236.63 1974.09L1331.71 2163M934.62 1378.94H794.178M934.62 1378.94L953.36 1415.87M934.62 1378.94L794.178 1657.34L652.494 1378.94M934.62 1099.12L794.178 1378.94M934.62 1099.12H792.935M934.62 1099.12L917.22 1065.03M794.178 1378.94L775.536 1344.85M794.178 1378.94H652.494M896.092 2163L971.356 2012.44M1112.66 1729.78L971.356 2012.44M1112.66 1729.78L953.36 1415.87M856.5 1960.32L857.432 1958.46M857.432 1958.46H1140.93M1140.93 1958.46L1254.03 1732.62L1414.13 2047.63M1472.77 2163L1414.13 2047.63M891.12 2100.5L923.434 2163M891.12 2100.5H1210.01M971.356 2012.44L988.927 2046.53M1048.96 2163L988.927 2046.53M988.927 2046.53L928.406 2163M1520 1678.65H1351.59L1422.54 1819.26M1095.34 1976.22L1237.25 1695.69M1384.6 1818.55L1317.42 1678.65H1033.61M1384.6 1818.55H1353.46M1384.6 1818.55L1386.31 1822.11M1104.89 1818.55L1246.57 1539.45L1175.73 1399.54M1104.89 1818.55L1033.61 1678.65M1104.89 1818.55H1353.46M961.962 1538.03L1104.89 1259.63L1175.73 1399.54M961.962 1538.03L1033.61 1678.65M961.962 1538.03L820.278 1259.63M1175.73 1399.54L1033.61 1678.65M1033.61 1678.65H999.248M1178.22 2163L1210.01 2100.5M1353.46 1818.55L1210.01 2100.5M1386.31 1822.11L1213.02 2163M1386.31 1822.11L1457.24 1958.46M1210.01 2100.5L1242.85 2163M1279.51 2163L1174.49 1958.46H1457.24M1457.24 1958.46L1520 2081.33M1422.54 1819.26H1520M1422.54 1819.26L1493.84 1960.59M1319.9 2163L1520 1768.13M1355.94 2163L1414.13 2047.63M1520 1837.73L1414.13 2047.63M1414.13 2047.63H1520L1460.34 2163M1497.63 2163L1520 2119.68M1393.85 2163L1493.84 1960.59M1493.84 1960.59H1520M999.248 1678.65L927.508 1538.03M811.578 1695.69H528.209L386.525 1415.87H953.36M811.578 1695.69L953.36 1415.87M820.278 1259.63L775.536 1344.85M820.278 1259.63L917.22 1065.03M775.536 1344.85L474.581 749.707M652.494 1378.94L792.935 1099.12M652.494 1378.94H510.809M792.935 1099.12H509.567L367.882 1378.94H510.809M917.22 1065.03L776.778 783.797M776.778 783.797L492.788 1343.41M776.778 783.797H633.65M0 783.797H67.7351M510.809 1378.94L492.788 1343.41M49.7138 469.889H0M49.7138 469.889H123.903M49.7138 469.889L332.855 1028.1M403.925 749.707L262.24 469.889H189.534M403.925 749.707H334.325M403.925 749.707H474.581M0 749.707H50.3352M616.451 749.707L474.767 1026.68L351.611 783.797M616.451 749.707L633.65 783.797M616.451 749.707H474.581M334.325 749.707L351.611 783.797M334.325 749.707H264.726M268.455 3.99994L526.507 513.922M988.062 869.02L846.378 1146L686.275 829.629M988.062 869.02L846.378 587.782M988.062 869.02H1130.99L986.819 587.782M988.062 869.02H845.04M846.378 587.782H986.819M846.378 587.782L563.009 1144.58L505.838 1033.79M846.378 587.782H703.442M986.819 587.782L845.04 869.02M136.713 869.02L333.083 469.889L474.581 749.707M136.713 869.02L0 594.884M136.713 869.02H279.33M0 587.782H421.226M505.838 1033.79L492.167 1065.03L635.094 1342.01L775.536 1065.03M505.838 1033.79L421.946 869.02M505.838 1033.79L633.65 783.797M775.536 1065.03H351.587M775.536 1065.03L633.65 783.797M367.882 623.292L261.17 832.8M367.882 623.292L510.91 904.53M367.882 623.292L626.485 111.95M681.079 3.99994L626.485 111.95M367.882 904.53L510.809 627.553M367.882 904.53L651.251 903.586M367.882 904.53L510.809 1185.77L651.251 903.586M510.809 627.553L651.251 903.586M510.809 627.553L687.294 272.455M651.251 903.586L794.178 903.11L652.494 1182.93L510.91 904.53M421.946 869.02L563.885 587.782M421.946 869.02H279.33M421.946 869.02H563.679M563.885 587.782L686.275 829.629M563.885 587.782H421.226M563.885 587.782H703.442M563.885 587.782L526.507 513.922M351.587 1065.03L492.788 1343.41M351.587 1065.03H209.351M351.587 1065.03L492.63 783.797M351.587 1065.03L332.855 1028.1M0 931.518L67.1137 1065.03H209.351M125.527 3.99994L225.576 201.522M845.04 869.02L704.693 1147.42L563.679 869.02M845.04 869.02H563.679M845.04 869.02L703.442 587.782M409.518 3.99994L685.563 552.272M686.275 829.629L828.978 552.272L687.294 272.455M687.294 272.455H403.925M687.294 272.455H828.356M120.556 272.455L243.598 513.922L500.867 3.99994L555.502 113.37M120.556 272.455H261.505M120.556 272.455L102.535 236.945M409.518 394.609H695.993L555.502 113.37M409.518 394.609L555.502 113.37M409.518 394.609L339.272 253.989M555.502 113.37H306.983M555.502 113.37L589.69 113.243M306.983 113.37L361.668 3.99994M306.983 113.37L123.903 469.889M101.292 513.922L0 315.066M101.292 513.922L123.903 469.889M101.292 513.922L120.52 552.272M279.33 869.02L421.226 587.782M279.33 869.02L261.17 832.8M421.226 587.782L563.679 869.02M421.226 587.782L385.253 516.762M351.611 783.797L209.351 1065.03M351.611 783.797H67.7351M351.611 783.797H492.63M209.351 1065.03L67.7351 783.797M50.3352 749.707L0 648.859M50.3352 749.707L189.534 469.889M50.3352 749.707H264.726M189.534 469.889H123.903M123.903 469.889L264.726 749.707M261.17 832.8L120.52 552.272M405.789 834.931L262.24 552.272L403.925 272.455M403.925 272.455H261.505M120.52 552.272H685.563M120.52 552.272L261.505 272.455M633.65 783.797H492.63M332.855 1028.1L474.581 749.707M510.91 904.53L685.563 552.272M685.563 552.272L703.442 587.782M685.563 552.272H969.419M685.563 552.272L828.356 272.455M563.679 869.02L703.442 587.782M703.442 587.782L846.378 307.964M846.378 307.964L828.356 272.455M846.378 307.964L969.419 552.272M828.356 272.455H1111.1M969.419 552.272H1111.1L1251.55 272.455H1111.1M969.419 552.272L1049.97 393.188M1111.1 272.455L1049.97 393.188M1049.97 393.188H1332.95L1262.72 253.989M1049.97 393.188L979.376 253.989M1136.58 3.99994L1262.72 253.989M852.592 3.99994L907.339 111.95M732.036 394.609H1014.78L871.856 111.95M732.036 394.609L589.69 113.243M732.036 394.609L811.578 236.945M534.424 3.99994L589.69 113.243M871.856 111.95H907.339M871.856 111.95H626.485M907.339 111.95L979.376 253.989M907.339 111.95L965.691 3.99994M692.265 3.99994L811.578 236.945M811.578 236.945L927.163 3.99994M811.578 236.945H951.398L1067.6 3.99994M811.578 236.945H667.849M0 236.945H102.535M0 253.989H22.5242M1262.72 253.989H979.376M526.507 513.922L667.849 236.945M786.721 3.99994L667.849 236.945M667.849 236.945L552.445 3.99994M667.849 236.945H102.535M645.037 3.99994L589.69 113.243M385.253 516.762L589.69 113.243M385.253 516.762L261.505 272.455M467.931 3.99994L339.272 253.989M339.272 253.989H22.5242M339.272 253.989L269.002 113.321M339.272 253.989H979.376M94.4563 394.609H377.204L234.898 113.321M94.4563 394.609L22.5242 253.989M94.4563 394.609L234.898 113.321M0 209.957L22.5242 253.989M22.5242 253.989L148.52 3.99994M234.898 113.321L179.591 3.99994L84.5135 198.594L0 32.4078M234.898 113.321H0M234.898 113.321H269.002M269.002 113.321L214.391 3.99994L102.535 236.945M269.002 113.321L225.576 201.522M269.002 113.321L325.625 3.99994M225.576 201.522L261.505 272.455M979.376 253.989L1104.89 3.99994M1369.62 393.188H1520M1369.62 393.188L1512.54 114.791M1369.62 393.188L1298.94 253.989M1172 3.99994L1226.82 111.95M1512.54 114.791L1455.99 3.99994M1512.54 114.791L1520 133.256M1298.94 253.989H1520M1298.94 253.989L1425.54 3.99994M1298.94 253.989L1226.82 111.95M1226.82 111.95L1282.62 3.99994M1226.82 111.95H945.805L1000.49 3.99994M0 157.403L78.2993 3.99994M0 89.2236L43.4996 3.99994M0 21.0447L8.69992 3.99994M1520 60.8157L1511.42 43.771M1491.41 3.99994L1511.42 43.771M1511.42 43.771H1520M1511.42 43.771L1520 25.3059" stroke="url(#paint0_linear_497_1132)" stroke-opacity="0.6" stroke-width="3"/>
<defs>
<linearGradient id="paint0_linear_497_1132" x1="760.502" y1="3.99988" x2="760.502" y2="2163" gradientUnits="userSpaceOnUse">
<stop offset="0.276127" stop-color="#DB0000"/>
<stop offset="1" stop-color="#ADADAD"/>
</linearGradient>
</defs>
</svg>
