<svg width="1520" height="2027" viewBox="0 0 1520 2027" fill="none" xmlns="http://www.w3.org/2000/svg">
<path opacity="0.2" d="M0 1967.47H573.129M1520 1967.47H1210.01M713.393 1572.38L856.5 1836.18M713.393 1572.38H999.248M713.393 1572.38L642.551 1442.01L785.478 1179.95L927.508 1440.68M959.477 2026L856.5 1836.18M115.585 2026L183.75 1902.29M201.341 1870.36L183.941 1838.29M201.341 1870.36L183.75 1902.29M201.341 1870.36L285.854 2026M201.341 1870.36L217.621 1834.44M0 1911.6L111.856 1705.41L183.941 1838.29M82.0278 2026L183.941 1838.29M0 1902.29H183.75M222.469 2026L395.225 1704.08M395.225 1704.08H146.656L217.621 1834.44M395.225 1704.08H430.025M321.897 2026L217.621 1834.44M217.621 1834.44H502.11M502.11 1834.44L430.025 1704.08M502.11 1834.44L400.196 2026M502.11 1834.44L573.129 1967.47M430.025 1704.08L257.269 2026M604.023 2025.33L573.129 1967.47M538.152 1834.44L434.996 2026M538.152 1834.44L608.994 1967.47M538.152 1834.44H820.278M573.129 1967.47L540.638 2026M573.129 1967.47H608.994M608.994 1967.47L576.68 2026M608.994 1967.47L640.065 2026M608.994 1967.47H891.12M820.278 1834.44L719.607 2026M820.278 1834.44L953.9 1588.34M1520 1588.34H1378.94M754.407 2026L856.5 1836.18M971.905 1621.6L953.9 1588.34M971.905 1621.6L857.432 1834.44M971.905 1621.6L1095.34 1851.07M953.9 1588.34L1096.19 1326.28H953.36M953.9 1588.34H1237.25M953.9 1588.34H811.578M1113.59 1884.99H971.356M1113.59 1884.99H1520L1493.84 1836.44M1113.59 1884.99L1140.93 1834.44M1113.59 1884.99L1095.34 1851.07M688.573 1884.99L546.852 1621.6H830.221M688.573 1884.99L830.221 1621.6M688.573 1884.99H971.356M830.221 1621.6L953.262 1850.41M830.221 1621.6L811.578 1588.34M830.221 1621.6L927.508 1440.68M953.262 1850.41L1236.63 1326.28L1378.94 1588.34M953.262 1850.41L891.12 1967.47M860.049 2026L891.12 1967.47M1378.94 1588.34L1236.63 1849.08M1378.94 1588.34H1237.25M1236.63 1849.08L1112.66 1620.27M1236.63 1849.08L1331.71 2026M934.62 1291.69H794.178M934.62 1291.69L953.36 1326.28M934.62 1291.69L794.178 1552.43L652.494 1291.69M934.62 1029.63L794.178 1291.69M934.62 1029.63H792.935M934.62 1029.63L917.22 997.707M794.178 1291.69L775.536 1259.77M794.178 1291.69H652.494M896.092 2026L971.356 1884.99M1112.66 1620.27L971.356 1884.99M1112.66 1620.27L953.36 1326.28M856.5 1836.18L857.432 1834.44M857.432 1834.44H1140.93M1140.93 1834.44L1254.03 1622.93L1414.13 1917.95M1472.77 2026L1414.13 1917.95M891.12 1967.47L923.434 2026M891.12 1967.47H1210.01M971.356 1884.99L988.927 1916.92M1048.96 2026L988.927 1916.92M988.927 1916.92L928.406 2026M1520 1572.38H1351.59L1422.54 1704.08M1095.34 1851.07L1237.25 1588.34M1384.6 1703.41L1317.42 1572.38H1033.61M1384.6 1703.41H1353.46M1384.6 1703.41L1386.31 1706.74M1104.89 1703.41L1246.57 1442.01L1175.73 1310.98M1104.89 1703.41L1033.61 1572.38M1104.89 1703.41H1353.46M961.962 1440.68L1104.89 1179.95L1175.73 1310.98M961.962 1440.68L1033.61 1572.38M961.962 1440.68L820.278 1179.95M1175.73 1310.98L1033.61 1572.38M1033.61 1572.38H999.248M1178.22 2026L1210.01 1967.47M1353.46 1703.41L1210.01 1967.47M1386.31 1706.74L1213.02 2026M1386.31 1706.74L1457.24 1834.44M1210.01 1967.47L1242.85 2026M1279.51 2026L1174.49 1834.44H1457.24M1457.24 1834.44L1520 1949.51M1422.54 1704.08H1520M1422.54 1704.08L1493.84 1836.44M1319.9 2026L1520 1656.19M1355.94 2026L1414.13 1917.95M1520 1721.37L1414.13 1917.95M1414.13 1917.95H1520L1460.34 2026M1497.63 2026L1520 1985.43M1393.85 2026L1493.84 1836.44M1493.84 1836.44H1520M999.248 1572.38L927.508 1440.68M811.578 1588.34H528.209L386.525 1326.28H953.36M811.578 1588.34L953.36 1326.28M820.278 1179.95L775.536 1259.77M820.278 1179.95L917.22 997.707M775.536 1259.77L474.581 702.388M652.494 1291.69L792.935 1029.63M652.494 1291.69H510.809M792.935 1029.63H509.567L367.882 1291.69H510.809M917.22 997.707L776.778 734.314M776.778 734.314L492.788 1258.42M776.778 734.314H633.65M0 734.314H67.7351M510.809 1291.69L492.788 1258.42M49.7138 440.326H0M49.7138 440.326H123.903M49.7138 440.326L332.855 963.12M403.925 702.388L262.24 440.326H189.534M403.925 702.388H334.325M403.925 702.388H474.581M0 702.388H50.3352M616.451 702.388L474.767 961.789L351.611 734.314M616.451 702.388L633.65 734.314M616.451 702.388H474.581M334.325 702.388L351.611 734.314M334.325 702.388H264.726M268.455 4.00003L526.507 481.564M988.062 814.13L846.378 1073.53L686.275 777.238M988.062 814.13L846.378 550.738M988.062 814.13H1130.99L986.819 550.738M988.062 814.13H845.04M846.378 550.738H986.819M846.378 550.738L563.009 1072.2L505.838 968.441M846.378 550.738H703.442M986.819 550.738L845.04 814.13M136.713 814.13L333.083 440.326L474.581 702.388M136.713 814.13L0 557.389M136.713 814.13H279.33M0 550.738H421.226M505.838 968.441L492.167 997.707L635.094 1257.11L775.536 997.707M505.838 968.441L421.946 814.13M505.838 968.441L633.65 734.314M775.536 997.707H351.587M775.536 997.707L633.65 734.314M367.882 583.995L261.17 780.209M367.882 583.995L510.91 847.387M367.882 583.995L626.485 105.1M681.079 4.00003L626.485 105.1M367.882 847.387L510.809 587.986M367.882 847.387L651.251 846.503M367.882 847.387L510.809 1110.78L651.251 846.503M510.809 587.986L651.251 846.503M510.809 587.986L687.294 255.42M651.251 846.503L794.178 846.057L652.494 1108.12L510.91 847.387M421.946 814.13L563.885 550.738M421.946 814.13H279.33M421.946 814.13H563.679M563.885 550.738L686.275 777.238M563.885 550.738H421.226M563.885 550.738H703.442M563.885 550.738L526.507 481.564M351.587 997.707L492.788 1258.42M351.587 997.707H209.351M351.587 997.707L492.63 734.314M351.587 997.707L332.855 963.12M0 872.662L67.1137 997.707H209.351M125.527 4.00003L225.576 188.988M845.04 814.13L704.693 1074.86L563.679 814.13M845.04 814.13H563.679M845.04 814.13L703.442 550.738M409.518 4.00003L685.563 517.482M686.275 777.238L828.978 517.482L687.294 255.42M687.294 255.42H403.925M687.294 255.42H828.356M120.556 255.42L243.598 481.564L500.867 4.00003L555.502 106.43M120.556 255.42H261.505M120.556 255.42L102.535 222.163M409.518 369.822H695.993L555.502 106.43M409.518 369.822L555.502 106.43M409.518 369.822L339.272 238.126M555.502 106.43H306.983M555.502 106.43L589.69 106.311M306.983 106.43L361.668 4.00003M306.983 106.43L123.903 440.326M101.292 481.564L0 295.328M101.292 481.564L123.903 440.326M101.292 481.564L120.52 517.482M279.33 814.13L421.226 550.738M279.33 814.13L261.17 780.209M421.226 550.738L563.679 814.13M421.226 550.738L385.253 484.225M351.611 734.314L209.351 997.707M351.611 734.314H67.7351M351.611 734.314H492.63M209.351 997.707L67.7351 734.314M50.3352 702.388L0 607.939M50.3352 702.388L189.534 440.326M50.3352 702.388H264.726M189.534 440.326H123.903M123.903 440.326L264.726 702.388M261.17 780.209L120.52 517.482M405.789 782.204L262.24 517.482L403.925 255.42M403.925 255.42H261.505M120.52 517.482H685.563M120.52 517.482L261.505 255.42M633.65 734.314H492.63M332.855 963.12L474.581 702.388M510.91 847.387L685.563 517.482M685.563 517.482L703.442 550.738M685.563 517.482H969.419M685.563 517.482L828.356 255.42M563.679 814.13L703.442 550.738M703.442 550.738L846.378 288.676M846.378 288.676L828.356 255.42M846.378 288.676L969.419 517.482M828.356 255.42H1111.1M969.419 517.482H1111.1L1251.55 255.42H1111.1M969.419 517.482L1049.97 368.492M1111.1 255.42L1049.97 368.492M1049.97 368.492H1332.95L1262.72 238.126M1049.97 368.492L979.376 238.126M1136.58 4.00003L1262.72 238.126M852.592 4.00003L907.339 105.1M732.036 369.822H1014.78L871.856 105.1M732.036 369.822L589.69 106.311M732.036 369.822L811.578 222.163M534.424 4.00003L589.69 106.311M871.856 105.1H907.339M871.856 105.1H626.485M907.339 105.1L979.376 238.126M907.339 105.1L965.691 4.00003M692.265 4.00003L811.578 222.163M811.578 222.163L927.163 4.00003M811.578 222.163H951.398L1067.6 4.00003M811.578 222.163H667.849M0 222.163H102.535M0 238.126H22.5242M1262.72 238.126H979.376M526.507 481.564L667.849 222.163M786.721 4.00003L667.849 222.163M667.849 222.163L552.445 4.00003M667.849 222.163H102.535M645.037 4.00003L589.69 106.311M385.253 484.225L589.69 106.311M385.253 484.225L261.505 255.42M467.931 4.00003L339.272 238.126M339.272 238.126H22.5242M339.272 238.126L269.002 106.384M339.272 238.126H979.376M94.4563 369.822H377.204L234.898 106.384M94.4563 369.822L22.5242 238.126M94.4563 369.822L234.898 106.384M0 196.888L22.5242 238.126M22.5242 238.126L148.52 4.00003M234.898 106.384L179.591 4.00003L84.5135 186.246L0 30.6053M234.898 106.384H0M234.898 106.384H269.002M269.002 106.384L214.391 4.00003L102.535 222.163M269.002 106.384L225.576 188.988M269.002 106.384L325.625 4.00003M225.576 188.988L261.505 255.42M979.376 238.126L1104.89 4.00003M1369.62 368.492H1520M1369.62 368.492L1512.54 107.761M1369.62 368.492L1298.94 238.126M1172 4.00003L1226.82 105.1M1512.54 107.761L1455.99 4.00003M1512.54 107.761L1520 125.054M1298.94 238.126H1520M1298.94 238.126L1425.54 4.00003M1298.94 238.126L1226.82 105.1M1226.82 105.1L1282.62 4.00003M1226.82 105.1H945.805L1000.49 4.00003M0 147.668L78.2993 4.00003M0 83.8158L43.4996 4.00003M0 19.9632L8.69992 4.00003M1520 57.2106L1511.42 41.2474M1491.41 4.00003L1511.42 41.2474M1511.42 41.2474H1520M1511.42 41.2474L1520 23.954" stroke="url(#paint0_linear_497_1925)" stroke-width="3"/>
<defs>
<linearGradient id="paint0_linear_497_1925" x1="760.502" y1="3.99988" x2="760.502" y2="2026" gradientUnits="userSpaceOnUse">
<stop offset="0.276127" stop-color="#FF5ED2"/>
<stop offset="1" stop-color="#141414"/>
</linearGradient>
</defs>
</svg>
