<svg width="1520" height="2384" viewBox="0 0 1520 2384" fill="none" xmlns="http://www.w3.org/2000/svg">
<path opacity="0.3" d="M0 2314.13H573.129M1520 2314.13H1210.01M713.393 1849.29L856.5 2159.66M713.393 1849.29H999.248M713.393 1849.29L642.551 1695.91L785.478 1387.58L927.508 1694.34M959.477 2383L856.5 2159.66M115.585 2383L183.75 2237.44M201.341 2199.88L183.941 2162.14M201.341 2199.88L183.75 2237.44M201.341 2199.88L285.854 2383M201.341 2199.88L217.621 2157.62M0 2248.4L111.856 2005.8L183.941 2162.14M82.0278 2383L183.941 2162.14M0 2237.44H183.75M222.469 2383L395.225 2004.24M395.225 2004.24H146.656L217.621 2157.62M395.225 2004.24H430.025M321.897 2383L217.621 2157.62M217.621 2157.62H502.11M502.11 2157.62L430.025 2004.24M502.11 2157.62L400.196 2383M502.11 2157.62L573.129 2314.13M430.025 2004.24L257.269 2383M604.023 2382.22L573.129 2314.13M538.152 2157.62L434.996 2383M538.152 2157.62L608.994 2314.13M538.152 2157.62H820.278M573.129 2314.13L540.638 2383M573.129 2314.13H608.994M608.994 2314.13L576.68 2383M608.994 2314.13L640.065 2383M608.994 2314.13H891.12M820.278 2157.62L719.607 2383M820.278 2157.62L953.9 1868.07M1520 1868.07H1378.94M754.407 2383L856.5 2159.66M971.905 1907.2L953.9 1868.07M971.905 1907.2L857.432 2157.62M971.905 1907.2L1095.34 2177.19M953.9 1868.07L1096.19 1559.74H953.36M953.9 1868.07H1237.25M953.9 1868.07H811.578M1113.59 2217.1H971.356M1113.59 2217.1H1520L1493.84 2159.97M1113.59 2217.1L1140.93 2157.62M1113.59 2217.1L1095.34 2177.19M688.573 2217.1L546.852 1907.2H830.221M688.573 2217.1L830.221 1907.2M688.573 2217.1H971.356M830.221 1907.2L953.262 2176.4M830.221 1907.2L811.578 1868.07M830.221 1907.2L927.508 1694.34M953.262 2176.4L1236.63 1559.74L1378.94 1868.07M953.262 2176.4L891.12 2314.13M860.049 2383L891.12 2314.13M1378.94 1868.07L1236.63 2174.84M1378.94 1868.07H1237.25M1236.63 2174.84L1112.66 1905.63M1236.63 2174.84L1331.71 2383M934.62 1519.05H794.178M934.62 1519.05L953.36 1559.74M934.62 1519.05L794.178 1825.81L652.494 1519.05M934.62 1210.72L794.178 1519.05M934.62 1210.72H792.935M934.62 1210.72L917.22 1173.15M794.178 1519.05L775.536 1481.48M794.178 1519.05H652.494M896.092 2383L971.356 2217.1M1112.66 1905.63L971.356 2217.1M1112.66 1905.63L953.36 1559.74M856.5 2159.66L857.432 2157.62M857.432 2157.62H1140.93M1140.93 2157.62L1254.03 1908.77L1414.13 2255.87M1472.77 2383L1414.13 2255.87M891.12 2314.13L923.434 2383M891.12 2314.13H1210.01M971.356 2217.1L988.927 2254.66M1048.96 2383L988.927 2254.66M988.927 2254.66L928.406 2383M1520 1849.29H1351.59L1422.54 2004.24M1095.34 2177.19L1237.25 1868.07M1384.6 2003.46L1317.42 1849.29H1033.61M1384.6 2003.46H1353.46M1384.6 2003.46L1386.31 2007.37M1104.89 2003.46L1246.57 1695.91L1175.73 1541.74M1104.89 2003.46L1033.61 1849.29M1104.89 2003.46H1353.46M961.962 1694.34L1104.89 1387.58L1175.73 1541.74M961.962 1694.34L1033.61 1849.29M961.962 1694.34L820.278 1387.58M1175.73 1541.74L1033.61 1849.29M1033.61 1849.29H999.248M1178.22 2383L1210.01 2314.13M1353.46 2003.46L1210.01 2314.13M1386.31 2007.37L1213.02 2383M1386.31 2007.37L1457.24 2157.62M1210.01 2314.13L1242.85 2383M1279.51 2383L1174.49 2157.62H1457.24M1457.24 2157.62L1520 2293M1422.54 2004.24H1520M1422.54 2004.24L1493.84 2159.97M1319.9 2383L1520 1947.89M1355.94 2383L1414.13 2255.87M1520 2024.58L1414.13 2255.87M1414.13 2255.87H1520L1460.34 2383M1497.63 2383L1520 2335.26M1393.85 2383L1493.84 2159.97M1493.84 2159.97H1520M999.248 1849.29L927.508 1694.34M811.578 1868.07H528.209L386.525 1559.74H953.36M811.578 1868.07L953.36 1559.74M820.278 1387.58L775.536 1481.48M820.278 1387.58L917.22 1173.15M775.536 1481.48L474.581 825.694M652.494 1519.05L792.935 1210.72M652.494 1519.05H510.809M792.935 1210.72H509.567L367.882 1519.05H510.809M917.22 1173.15L776.778 863.257M776.778 863.257L492.788 1479.9M776.778 863.257H633.65M0 863.257H67.7351M510.809 1519.05L492.788 1479.9M49.7138 517.363H0M49.7138 517.363H123.903M49.7138 517.363L332.855 1132.46M403.925 825.694L262.24 517.363H189.534M403.925 825.694H334.325M403.925 825.694H474.581M0 825.694H50.3352M616.451 825.694L474.767 1130.89L351.611 863.257M616.451 825.694L633.65 863.257M616.451 825.694H474.581M334.325 825.694L351.611 863.257M334.325 825.694H264.726M268.455 4.00005L526.507 565.882M988.062 957.165L846.378 1262.37L686.275 913.759M988.062 957.165L846.378 647.269M988.062 957.165H1130.99L986.819 647.269M988.062 957.165H845.04M846.378 647.269H986.819M846.378 647.269L563.009 1260.8L505.838 1138.72M846.378 647.269H703.442M986.819 647.269L845.04 957.165M136.713 957.165L333.083 517.363L474.581 825.694M136.713 957.165L0 655.095M136.713 957.165H279.33M0 647.269H421.226M505.838 1138.72L492.167 1173.15L635.094 1478.35L775.536 1173.15M505.838 1138.72L421.946 957.165M505.838 1138.72L633.65 863.257M775.536 1173.15H351.587M775.536 1173.15L633.65 863.257M367.882 686.397L261.17 917.254M367.882 686.397L510.91 996.293M367.882 686.397L626.485 122.95M681.079 4.00005L626.485 122.95M367.882 996.293L510.809 691.093M367.882 996.293L651.251 995.253M367.882 996.293L510.809 1306.19L651.251 995.253M510.809 691.093L651.251 995.253M510.809 691.093L687.294 299.81M651.251 995.253L794.178 994.728L652.494 1303.06L510.91 996.293M421.946 957.165L563.885 647.269M421.946 957.165H279.33M421.946 957.165H563.679M563.885 647.269L686.275 913.759M563.885 647.269H421.226M563.885 647.269H703.442M563.885 647.269L526.507 565.882M351.587 1173.15L492.788 1479.9M351.587 1173.15H209.351M351.587 1173.15L492.63 863.257M351.587 1173.15L332.855 1132.46M0 1026.03L67.1137 1173.15H209.351M125.527 4.00005L225.576 221.649M845.04 957.165L704.693 1263.93L563.679 957.165M845.04 957.165H563.679M845.04 957.165L703.442 647.269M409.518 4.00005L685.563 608.141M686.275 913.759L828.978 608.141L687.294 299.81M687.294 299.81H403.925M687.294 299.81H828.356M120.556 299.81L243.598 565.882L500.867 4.00005L555.502 124.515M120.556 299.81H261.505M120.556 299.81L102.535 260.682M409.518 434.411H695.993L555.502 124.515M409.518 434.411L555.502 124.515M409.518 434.411L339.272 279.463M555.502 124.515H306.983M555.502 124.515L589.69 124.375M306.983 124.515L361.668 4.00005M306.983 124.515L123.903 517.363M101.292 565.882L0 346.764M101.292 565.882L123.903 517.363M101.292 565.882L120.52 608.141M279.33 957.165L421.226 647.269M279.33 957.165L261.17 917.254M421.226 647.269L563.679 957.165M421.226 647.269L385.253 569.013M351.611 863.257L209.351 1173.15M351.611 863.257H67.7351M351.611 863.257H492.63M209.351 1173.15L67.7351 863.257M50.3352 825.694L0 714.57M50.3352 825.694L189.534 517.363M50.3352 825.694H264.726M189.534 517.363H123.903M123.903 517.363L264.726 825.694M261.17 917.254L120.52 608.141M405.789 919.602L262.24 608.141L403.925 299.81M403.925 299.81H261.505M120.52 608.141H685.563M120.52 608.141L261.505 299.81M633.65 863.257H492.63M332.855 1132.46L474.581 825.694M510.91 996.293L685.563 608.141M685.563 608.141L703.442 647.269M685.563 608.141H969.419M685.563 608.141L828.356 299.81M563.679 957.165L703.442 647.269M703.442 647.269L846.378 338.938M846.378 338.938L828.356 299.81M846.378 338.938L969.419 608.141M828.356 299.81H1111.1M969.419 608.141H1111.1L1251.55 299.81H1111.1M969.419 608.141L1049.97 432.846M1111.1 299.81L1049.97 432.846M1049.97 432.846H1332.95L1262.72 279.463M1049.97 432.846L979.376 279.463M1136.58 4.00005L1262.72 279.463M852.592 4.00005L907.339 122.95M732.036 434.411H1014.78L871.856 122.95M732.036 434.411L589.69 124.375M732.036 434.411L811.578 260.682M534.424 4.00005L589.69 124.375M871.856 122.95H907.339M871.856 122.95H626.485M907.339 122.95L979.376 279.463M907.339 122.95L965.691 4.00005M692.265 4.00005L811.578 260.682M811.578 260.682L927.163 4.00005M811.578 260.682H951.398L1067.6 4.00005M811.578 260.682H667.849M0 260.682H102.535M0 279.463H22.5242M1262.72 279.463H979.376M526.507 565.882L667.849 260.682M786.721 4.00005L667.849 260.682M667.849 260.682L552.445 4.00005M667.849 260.682H102.535M645.037 4.00005L589.69 124.375M385.253 569.013L589.69 124.375M385.253 569.013L261.505 299.81M467.931 4.00005L339.272 279.463M339.272 279.463H22.5242M339.272 279.463L269.002 124.461M339.272 279.463H979.376M94.4563 434.411H377.204L234.898 124.461M94.4563 434.411L22.5242 279.463M94.4563 434.411L234.898 124.461M0 230.944L22.5242 279.463M22.5242 279.463L148.52 4.00005M234.898 124.461L179.591 4.00005L84.5135 218.423L0 35.3027M234.898 124.461H0M234.898 124.461H269.002M269.002 124.461L214.391 4.00005L102.535 260.682M269.002 124.461L225.576 221.649M269.002 124.461L325.625 4.00005M225.576 221.649L261.505 299.81M979.376 279.463L1104.89 4.00005M1369.62 432.846H1520M1369.62 432.846L1512.54 126.08M1369.62 432.846L1298.94 279.463M1172 4.00005L1226.82 122.95M1512.54 126.08L1455.99 4.00005M1512.54 126.08L1520 146.427M1298.94 279.463H1520M1298.94 279.463L1425.54 4.00005M1298.94 279.463L1226.82 122.95M1226.82 122.95L1282.62 4.00005M1226.82 122.95H945.805L1000.49 4.00005M0 173.034L78.2993 4.00005M0 97.9079L43.4996 4.00005M0 22.7816L8.69992 4.00005M1520 66.6053L1511.42 47.8237M1491.41 4.00005L1511.42 47.8237M1511.42 47.8237H1520M1511.42 47.8237L1520 27.477" stroke="url(#paint0_linear_1849_5285)" stroke-width="3"/>
<defs>
<linearGradient id="paint0_linear_1849_5285" x1="760.502" y1="3.99986" x2="760.502" y2="2383" gradientUnits="userSpaceOnUse">
<stop offset="0.276127" stop-color="#FF5ED2"/>
<stop offset="1" stop-color="#141414"/>
</linearGradient>
</defs>
</svg>
