<svg width="1439" height="1644" viewBox="0 0 1439 1644" fill="none" xmlns="http://www.w3.org/2000/svg">
<path d="M1163.73 274.334L1348.47 1210.55M1163.73 274.334L744.872 931.848M1163.73 274.334L375.258 534.148L878.066 243.76L1221.35 1107.97M1433.74 1642.65L1371.47 801.015L605.528 523.162M1433.74 1642.65L1348.47 1210.55M1433.74 1642.65L752.833 187.718L744.872 931.848M1433.74 1642.65L1221.35 1107.97M605.528 523.162L1465.29 1065.15L1348.47 1210.55M605.528 523.162L774.386 726.415M605.528 523.162L415.264 217.846L1221.35 1107.97M1348.47 1210.55L774.386 726.415M774.386 726.415L4.65474 563.789L878.823 3.60773L744.872 931.848M774.386 726.415L1710.42 934.263L511.683 828.47L949.351 604.855L1453.92 1126.11L980.724 326.599L699.947 1002.37L744.872 931.848" stroke="url(#paint0_linear_1841_920)" stroke-opacity="0.7" stroke-width="3"/>
<defs>
<linearGradient id="paint0_linear_1841_920" x1="1378.67" y1="1709.31" x2="607.159" y2="-188.944" gradientUnits="userSpaceOnUse">
<stop offset="0.505326" stop-color="#61E1C2"/>
<stop offset="1" stop-color="#3B4040"/>
</linearGradient>
</defs>
</svg>
